  0
SECTION
  2
HEADER
  9
$ACADVER
  1
AC1009
  9
$EXTMIN
 10
0.0
 20
0.0
 30
0.0
  9
$EXTMAX
 10
1000.0
 20
1000.0
 30
0.0
  9
$FILLMODE
 70
 0
  9
$SPLFRAME
 70
 1
  0
ENDSEC
  0
SECTION
  2
TABLES
  0
TABLE
  2
LAYER
 70
1
  0
LAYER
  2
0
 70
     0
 62
     7
  6
CONTINUOUS
  0
ENDTAB
  0
ENDSEC
  0
SECTION
  2
ENTITIES
  0
LINE
  8
0
 62
     0
 10
382.958
 20
164.299
 30
0.0
 11
383.35
 21
164.284
 31
0.0
  0
LINE
  8
0
 62
     0
 10
383.35
 20
164.284
 30
0.0
 11
383.741
 21
164.237
 31
0.0
  0
LINE
  8
0
 62
     0
 10
383.741
 20
164.237
 30
0.0
 11
384.126
 21
164.162
 31
0.0
  0
LINE
  8
0
 62
     0
 10
384.126
 20
164.162
 30
0.0
 11
384.503
 21
164.055
 31
0.0
  0
LINE
  8
0
 62
     0
 10
384.503
 20
164.055
 30
0.0
 11
384.87
 21
163.919
 31
0.0
  0
LINE
  8
0
 62
     0
 10
384.87
 20
163.919
 30
0.0
 11
385.226
 21
163.755
 31
0.0
  0
LINE
  8
0
 62
     0
 10
385.226
 20
163.755
 30
0.0
 11
385.572
 21
163.564
 31
0.0
  0
LINE
  8
0
 62
     0
 10
385.572
 20
163.564
 30
0.0
 11
385.897
 21
163.344
 31
0.0
  0
LINE
  8
0
 62
     0
 10
385.897
 20
163.344
 30
0.0
 11
386.203
 21
163.102
 31
0.0
  0
LINE
  8
0
 62
     0
 10
386.203
 20
163.102
 30
0.0
 11
386.493
 21
162.834
 31
0.0
  0
LINE
  8
0
 62
     0
 10
386.493
 20
162.834
 30
0.0
 11
386.761
 21
162.547
 31
0.0
  0
LINE
  8
0
 62
     0
 10
386.761
 20
162.547
 30
0.0
 11
387.004
 21
162.238
 31
0.0
  0
LINE
  8
0
 62
     0
 10
387.004
 20
162.238
 30
0.0
 11
387.223
 21
161.913
 31
0.0
  0
LINE
  8
0
 62
     0
 10
387.223
 20
161.913
 30
0.0
 11
387.414
 21
161.569
 31
0.0
  0
LINE
  8
0
 62
     0
 10
387.414
 20
161.569
 30
0.0
 11
387.576
 21
161.212
 31
0.0
  0
LINE
  8
0
 62
     0
 10
387.576
 20
161.212
 30
0.0
 11
387.713
 21
160.845
 31
0.0
  0
LINE
  8
0
 62
     0
 10
387.713
 20
160.845
 30
0.0
 11
387.819
 21
160.467
 31
0.0
  0
LINE
  8
0
 62
     0
 10
387.819
 20
160.467
 30
0.0
 11
387.897
 21
160.082
 31
0.0
  0
LINE
  8
0
 62
     0
 10
387.897
 20
160.082
 30
0.0
 11
387.943
 21
159.693
 31
0.0
  0
LINE
  8
0
 62
     0
 10
387.943
 20
159.693
 30
0.0
 11
387.96
 21
159.299
 31
0.0
  0
LINE
  8
0
 62
     0
 10
387.96
 20
159.299
 30
0.0
 11
387.96
 21
5.27237
 31
0.0
  0
LINE
  8
0
 62
     0
 10
387.96
 20
5.27237
 30
0.0
 11
387.943
 21
4.881
 31
0.0
  0
LINE
  8
0
 62
     0
 10
387.943
 20
4.881
 30
0.0
 11
387.897
 21
4.49104
 31
0.0
  0
LINE
  8
0
 62
     0
 10
387.897
 20
4.49104
 30
0.0
 11
387.819
 21
4.10655
 31
0.0
  0
LINE
  8
0
 62
     0
 10
387.819
 20
4.10655
 30
0.0
 11
387.713
 21
3.72759
 31
0.0
  0
LINE
  8
0
 62
     0
 10
387.713
 20
3.72759
 30
0.0
 11
387.576
 21
3.35966
 31
0.0
  0
LINE
  8
0
 62
     0
 10
387.576
 20
3.35966
 30
0.0
 11
387.414
 21
3.00412
 31
0.0
  0
LINE
  8
0
 62
     0
 10
387.414
 20
3.00412
 30
0.0
 11
387.223
 21
2.66099
 31
0.0
  0
LINE
  8
0
 62
     0
 10
387.223
 20
2.66099
 30
0.0
 11
387.004
 21
2.3344
 31
0.0
  0
LINE
  8
0
 62
     0
 10
387.004
 20
2.3344
 30
0.0
 11
386.761
 21
2.02572
 31
0.0
  0
LINE
  8
0
 62
     0
 10
386.761
 20
2.02572
 30
0.0
 11
386.493
 21
1.73771
 31
0.0
  0
LINE
  8
0
 62
     0
 10
386.493
 20
1.73771
 30
0.0
 11
386.203
 21
1.47037
 31
0.0
  0
LINE
  8
0
 62
     0
 10
386.203
 20
1.47037
 30
0.0
 11
385.897
 21
1.22783
 31
0.0
  0
LINE
  8
0
 62
     0
 10
385.897
 20
1.22783
 30
0.0
 11
385.572
 21
1.0101
 31
0.0
  0
LINE
  8
0
 62
     0
 10
385.572
 20
1.0101
 30
0.0
 11
385.226
 21
0.818554
 31
0.0
  0
LINE
  8
0
 62
     0
 10
385.226
 20
0.818554
 30
0.0
 11
384.87
 21
0.654569
 31
0.0
  0
LINE
  8
0
 62
     0
 10
384.87
 20
0.654569
 30
0.0
 11
384.503
 21
0.518142
 31
0.0
  0
LINE
  8
0
 62
     0
 10
384.503
 20
0.518142
 30
0.0
 11
384.126
 21
0.412034
 31
0.0
  0
LINE
  8
0
 62
     0
 10
384.126
 20
0.412034
 30
0.0
 11
383.741
 21
0.334863
 31
0.0
  0
LINE
  8
0
 62
     0
 10
383.741
 20
0.334863
 30
0.0
 11
383.35
 21
0.289388
 31
0.0
  0
LINE
  8
0
 62
     0
 10
383.35
 20
0.289388
 30
0.0
 11
382.958
 21
0.272852
 31
0.0
  0
LINE
  8
0
 62
     0
 10
382.958
 20
0.272852
 30
0.0
 11
5.09598
 21
0.272852
 31
0.0
  0
LINE
  8
0
 62
     0
 10
5.09598
 20
0.272852
 30
0.0
 11
4.70186
 21
0.289388
 31
0.0
  0
LINE
  8
0
 62
     0
 10
4.70186
 20
0.289388
 30
0.0
 11
4.3119
 21
0.334863
 31
0.0
  0
LINE
  8
0
 62
     0
 10
4.3119
 20
0.334863
 30
0.0
 11
3.9274
 21
0.412034
 31
0.0
  0
LINE
  8
0
 62
     0
 10
3.9274
 20
0.412034
 30
0.0
 11
3.54983
 21
0.518142
 31
0.0
  0
LINE
  8
0
 62
     0
 10
3.54983
 20
0.518142
 30
0.0
 11
3.18189
 21
0.654569
 31
0.0
  0
LINE
  8
0
 62
     0
 10
3.18189
 20
0.654569
 30
0.0
 11
2.82498
 21
0.818554
 31
0.0
  0
LINE
  8
0
 62
     0
 10
2.82498
 20
0.818554
 30
0.0
 11
2.48185
 21
1.0101
 31
0.0
  0
LINE
  8
0
 62
     0
 10
2.48185
 20
1.0101
 30
0.0
 11
2.15663
 21
1.22783
 31
0.0
  0
LINE
  8
0
 62
     0
 10
2.15663
 20
1.22783
 30
0.0
 11
1.84795
 21
1.47037
 31
0.0
  0
LINE
  8
0
 62
     0
 10
1.84795
 20
1.47037
 30
0.0
 11
1.55994
 21
1.73771
 31
0.0
  0
LINE
  8
0
 62
     0
 10
1.55994
 20
1.73771
 30
0.0
 11
1.2926
 21
2.02572
 31
0.0
  0
LINE
  8
0
 62
     0
 10
1.2926
 20
2.02572
 30
0.0
 11
1.05006
 21
2.3344
 31
0.0
  0
LINE
  8
0
 62
     0
 10
1.05006
 20
2.3344
 30
0.0
 11
0.830957
 21
2.66099
 31
0.0
  0
LINE
  8
0
 62
     0
 10
0.830957
 20
2.66099
 30
0.0
 11
0.63941
 21
3.00412
 31
0.0
  0
LINE
  8
0
 62
     0
 10
0.63941
 20
3.00412
 30
0.0
 11
0.475424
 21
3.35966
 31
0.0
  0
LINE
  8
0
 62
     0
 10
0.475424
 20
3.35966
 30
0.0
 11
0.338998
 21
3.72759
 31
0.0
  0
LINE
  8
0
 62
     0
 10
0.338998
 20
3.72759
 30
0.0
 11
0.232888
 21
4.10655
 31
0.0
  0
LINE
  8
0
 62
     0
 10
0.232888
 20
4.10655
 30
0.0
 11
0.157097
 21
4.49104
 31
0.0
  0
LINE
  8
0
 62
     0
 10
0.157097
 20
4.49104
 30
0.0
 11
0.110243
 21
4.881
 31
0.0
  0
LINE
  8
0
 62
     0
 10
0.110243
 20
4.881
 30
0.0
 11
0.0950846
 21
5.27375
 31
0.0
  0
LINE
  8
0
 62
     0
 10
0.0950846
 20
5.27375
 30
0.0
 11
0.0950846
 21
159.299
 31
0.0
  0
LINE
  8
0
 62
     0
 10
0.0950846
 20
159.299
 30
0.0
 11
0.110243
 21
159.693
 31
0.0
  0
LINE
  8
0
 62
     0
 10
0.110243
 20
159.693
 30
0.0
 11
0.157097
 21
160.082
 31
0.0
  0
LINE
  8
0
 62
     0
 10
0.157097
 20
160.082
 30
0.0
 11
0.232888
 21
160.467
 31
0.0
  0
LINE
  8
0
 62
     0
 10
0.232888
 20
160.467
 30
0.0
 11
0.338998
 21
160.845
 31
0.0
  0
LINE
  8
0
 62
     0
 10
0.338998
 20
160.845
 30
0.0
 11
0.475424
 21
161.212
 31
0.0
  0
LINE
  8
0
 62
     0
 10
0.475424
 20
161.212
 30
0.0
 11
0.63941
 21
161.569
 31
0.0
  0
LINE
  8
0
 62
     0
 10
0.63941
 20
161.569
 30
0.0
 11
0.830957
 21
161.913
 31
0.0
  0
LINE
  8
0
 62
     0
 10
0.830957
 20
161.913
 30
0.0
 11
1.05006
 21
162.238
 31
0.0
  0
LINE
  8
0
 62
     0
 10
1.05006
 20
162.238
 30
0.0
 11
1.2926
 21
162.547
 31
0.0
  0
LINE
  8
0
 62
     0
 10
1.2926
 20
162.547
 30
0.0
 11
1.55994
 21
162.834
 31
0.0
  0
LINE
  8
0
 62
     0
 10
1.55994
 20
162.834
 30
0.0
 11
1.84795
 21
163.102
 31
0.0
  0
LINE
  8
0
 62
     0
 10
1.84795
 20
163.102
 30
0.0
 11
2.15663
 21
163.344
 31
0.0
  0
LINE
  8
0
 62
     0
 10
2.15663
 20
163.344
 30
0.0
 11
2.48185
 21
163.564
 31
0.0
  0
LINE
  8
0
 62
     0
 10
2.48185
 20
163.564
 30
0.0
 11
2.82498
 21
163.755
 31
0.0
  0
LINE
  8
0
 62
     0
 10
2.82498
 20
163.755
 30
0.0
 11
3.18189
 21
163.919
 31
0.0
  0
LINE
  8
0
 62
     0
 10
3.18189
 20
163.919
 30
0.0
 11
3.54983
 21
164.055
 31
0.0
  0
LINE
  8
0
 62
     0
 10
3.54983
 20
164.055
 30
0.0
 11
3.9274
 21
164.162
 31
0.0
  0
LINE
  8
0
 62
     0
 10
3.9274
 20
164.162
 30
0.0
 11
4.3119
 21
164.237
 31
0.0
  0
LINE
  8
0
 62
     0
 10
4.3119
 20
164.237
 30
0.0
 11
4.70186
 21
164.284
 31
0.0
  0
LINE
  8
0
 62
     0
 10
4.70186
 20
164.284
 30
0.0
 11
5.09598
 21
164.299
 31
0.0
  0
LINE
  8
0
 62
     0
 10
5.09598
 20
164.299
 30
0.0
 11
382.958
 21
164.299
 31
0.0
  0
LINE
  8
0
 62
     0
 10
144.264
 20
36.7993
 30
0.0
 11
144.264
 21
35.7988
 31
0.0
  0
LINE
  8
0
 62
     0
 10
144.264
 20
35.7988
 30
0.0
 11
143.463
 21
35.7988
 31
0.0
  0
LINE
  8
0
 62
     0
 10
143.463
 20
35.7988
 30
0.0
 11
143.463
 21
32.8993
 31
0.0
  0
LINE
  8
0
 62
     0
 10
143.463
 20
32.8993
 30
0.0
 11
144.264
 21
32.8993
 31
0.0
  0
LINE
  8
0
 62
     0
 10
144.264
 20
32.8993
 30
0.0
 11
144.264
 21
32.0986
 31
0.0
  0
LINE
  8
0
 62
     0
 10
144.264
 20
32.0986
 30
0.0
 11
104.439
 21
32.0986
 31
0.0
  0
LINE
  8
0
 62
     0
 10
104.439
 20
32.0986
 30
0.0
 11
104.439
 21
35.3289
 31
0.0
  0
LINE
  8
0
 62
     0
 10
104.439
 20
35.3289
 30
0.0
 11
97.8888
 21
35.3289
 31
0.0
  0
LINE
  8
0
 62
     0
 10
97.8888
 20
35.3289
 30
0.0
 11
97.8888
 21
32.0986
 31
0.0
  0
LINE
  8
0
 62
     0
 10
97.8888
 20
32.0986
 30
0.0
 11
97.0636
 21
32.0986
 31
0.0
  0
LINE
  8
0
 62
     0
 10
97.0636
 20
32.0986
 30
0.0
 11
97.0636
 21
29.4983
 31
0.0
  0
LINE
  8
0
 62
     0
 10
97.0636
 20
29.4983
 30
0.0
 11
97.8888
 21
29.4983
 31
0.0
  0
LINE
  8
0
 62
     0
 10
97.8888
 20
29.4983
 30
0.0
 11
97.8888
 21
23.2296
 31
0.0
  0
LINE
  8
0
 62
     0
 10
97.8888
 20
23.2296
 30
0.0
 11
99.6128
 21
23.2296
 31
0.0
  0
LINE
  8
0
 62
     0
 10
99.6128
 20
23.2296
 30
0.0
 11
99.6128
 21
22.0293
 31
0.0
  0
LINE
  8
0
 62
     0
 10
99.6128
 20
22.0293
 30
0.0
 11
102.713
 21
22.0293
 31
0.0
  0
LINE
  8
0
 62
     0
 10
102.713
 20
22.0293
 30
0.0
 11
102.713
 21
23.2296
 31
0.0
  0
LINE
  8
0
 62
     0
 10
102.713
 20
23.2296
 30
0.0
 11
104.439
 21
23.2296
 31
0.0
  0
LINE
  8
0
 62
     0
 10
104.439
 20
23.2296
 30
0.0
 11
104.439
 21
27.6986
 31
0.0
  0
LINE
  8
0
 62
     0
 10
104.439
 20
27.6986
 30
0.0
 11
144.264
 21
27.6986
 31
0.0
  0
LINE
  8
0
 62
     0
 10
144.264
 20
27.6986
 30
0.0
 11
144.264
 21
26.8993
 31
0.0
  0
LINE
  8
0
 62
     0
 10
144.264
 20
26.8993
 30
0.0
 11
143.463
 21
26.8993
 31
0.0
  0
LINE
  8
0
 62
     0
 10
143.463
 20
26.8993
 30
0.0
 11
143.463
 21
23.9985
 31
0.0
  0
LINE
  8
0
 62
     0
 10
143.463
 20
23.9985
 30
0.0
 11
144.264
 21
23.9985
 31
0.0
  0
LINE
  8
0
 62
     0
 10
144.264
 20
23.9985
 30
0.0
 11
144.264
 21
22.9995
 31
0.0
  0
LINE
  8
0
 62
     0
 10
144.264
 20
22.9995
 30
0.0
 11
158.064
 21
22.9995
 31
0.0
  0
LINE
  8
0
 62
     0
 10
158.064
 20
22.9995
 30
0.0
 11
158.064
 21
23.9985
 31
0.0
  0
LINE
  8
0
 62
     0
 10
158.064
 20
23.9985
 30
0.0
 11
158.863
 21
23.9985
 31
0.0
  0
LINE
  8
0
 62
     0
 10
158.863
 20
23.9985
 30
0.0
 11
158.863
 21
26.8993
 31
0.0
  0
LINE
  8
0
 62
     0
 10
158.863
 20
26.8993
 30
0.0
 11
158.064
 21
26.8993
 31
0.0
  0
LINE
  8
0
 62
     0
 10
158.064
 20
26.8993
 30
0.0
 11
158.064
 21
27.6986
 31
0.0
  0
LINE
  8
0
 62
     0
 10
158.064
 20
27.6986
 30
0.0
 11
197.889
 21
27.6986
 31
0.0
  0
LINE
  8
0
 62
     0
 10
197.889
 20
27.6986
 30
0.0
 11
197.889
 21
23.2296
 31
0.0
  0
LINE
  8
0
 62
     0
 10
197.889
 20
23.2296
 30
0.0
 11
199.613
 21
23.2296
 31
0.0
  0
LINE
  8
0
 62
     0
 10
199.613
 20
23.2296
 30
0.0
 11
199.613
 21
22.0293
 31
0.0
  0
LINE
  8
0
 62
     0
 10
199.613
 20
22.0293
 30
0.0
 11
202.714
 21
22.0293
 31
0.0
  0
LINE
  8
0
 62
     0
 10
202.714
 20
22.0293
 30
0.0
 11
202.714
 21
23.2296
 31
0.0
  0
LINE
  8
0
 62
     0
 10
202.714
 20
23.2296
 30
0.0
 11
204.439
 21
23.2296
 31
0.0
  0
LINE
  8
0
 62
     0
 10
204.439
 20
23.2296
 30
0.0
 11
204.439
 21
29.4983
 31
0.0
  0
LINE
  8
0
 62
     0
 10
204.439
 20
29.4983
 30
0.0
 11
205.263
 21
29.4983
 31
0.0
  0
LINE
  8
0
 62
     0
 10
205.263
 20
29.4983
 30
0.0
 11
205.263
 21
32.0986
 31
0.0
  0
LINE
  8
0
 62
     0
 10
205.263
 20
32.0986
 30
0.0
 11
204.439
 21
32.0986
 31
0.0
  0
LINE
  8
0
 62
     0
 10
204.439
 20
32.0986
 30
0.0
 11
204.439
 21
35.3289
 31
0.0
  0
LINE
  8
0
 62
     0
 10
204.439
 20
35.3289
 30
0.0
 11
197.889
 21
35.3289
 31
0.0
  0
LINE
  8
0
 62
     0
 10
197.889
 20
35.3289
 30
0.0
 11
197.889
 21
32.0986
 31
0.0
  0
LINE
  8
0
 62
     0
 10
197.889
 20
32.0986
 30
0.0
 11
158.064
 21
32.0986
 31
0.0
  0
LINE
  8
0
 62
     0
 10
158.064
 20
32.0986
 30
0.0
 11
158.064
 21
32.8993
 31
0.0
  0
LINE
  8
0
 62
     0
 10
158.064
 20
32.8993
 30
0.0
 11
158.863
 21
32.8993
 31
0.0
  0
LINE
  8
0
 62
     0
 10
158.863
 20
32.8993
 30
0.0
 11
158.863
 21
35.7988
 31
0.0
  0
LINE
  8
0
 62
     0
 10
158.863
 20
35.7988
 30
0.0
 11
158.064
 21
35.7988
 31
0.0
  0
LINE
  8
0
 62
     0
 10
158.064
 20
35.7988
 30
0.0
 11
158.064
 21
36.7993
 31
0.0
  0
LINE
  8
0
 62
     0
 10
158.064
 20
36.7993
 30
0.0
 11
144.264
 21
36.7993
 31
0.0
  0
LINE
  8
0
 62
     0
 10
351.433
 20
36.7993
 30
0.0
 11
351.433
 21
35.7988
 31
0.0
  0
LINE
  8
0
 62
     0
 10
351.433
 20
35.7988
 30
0.0
 11
350.632
 21
35.7988
 31
0.0
  0
LINE
  8
0
 62
     0
 10
350.632
 20
35.7988
 30
0.0
 11
350.632
 21
32.8993
 31
0.0
  0
LINE
  8
0
 62
     0
 10
350.632
 20
32.8993
 30
0.0
 11
351.433
 21
32.8993
 31
0.0
  0
LINE
  8
0
 62
     0
 10
351.433
 20
32.8993
 30
0.0
 11
351.433
 21
26.8993
 31
0.0
  0
LINE
  8
0
 62
     0
 10
351.433
 20
26.8993
 30
0.0
 11
350.632
 21
26.8993
 31
0.0
  0
LINE
  8
0
 62
     0
 10
350.632
 20
26.8993
 30
0.0
 11
350.632
 21
23.9985
 31
0.0
  0
LINE
  8
0
 62
     0
 10
350.632
 20
23.9985
 30
0.0
 11
351.433
 21
23.9985
 31
0.0
  0
LINE
  8
0
 62
     0
 10
351.433
 20
23.9985
 30
0.0
 11
351.433
 21
22.9995
 31
0.0
  0
LINE
  8
0
 62
     0
 10
351.433
 20
22.9995
 30
0.0
 11
365.231
 21
22.9995
 31
0.0
  0
LINE
  8
0
 62
     0
 10
365.231
 20
22.9995
 30
0.0
 11
365.231
 21
23.9985
 31
0.0
  0
LINE
  8
0
 62
     0
 10
365.231
 20
23.9985
 30
0.0
 11
366.032
 21
23.9985
 31
0.0
  0
LINE
  8
0
 62
     0
 10
366.032
 20
23.9985
 30
0.0
 11
366.032
 21
26.8993
 31
0.0
  0
LINE
  8
0
 62
     0
 10
366.032
 20
26.8993
 30
0.0
 11
365.231
 21
26.8993
 31
0.0
  0
LINE
  8
0
 62
     0
 10
365.231
 20
26.8993
 30
0.0
 11
365.231
 21
32.8993
 31
0.0
  0
LINE
  8
0
 62
     0
 10
365.231
 20
32.8993
 30
0.0
 11
366.032
 21
32.8993
 31
0.0
  0
LINE
  8
0
 62
     0
 10
366.032
 20
32.8993
 30
0.0
 11
366.032
 21
35.7988
 31
0.0
  0
LINE
  8
0
 62
     0
 10
366.032
 20
35.7988
 30
0.0
 11
365.231
 21
35.7988
 31
0.0
  0
LINE
  8
0
 62
     0
 10
365.231
 20
35.7988
 30
0.0
 11
365.231
 21
36.7993
 31
0.0
  0
LINE
  8
0
 62
     0
 10
365.231
 20
36.7993
 30
0.0
 11
351.433
 21
36.7993
 31
0.0
  0
LINE
  8
0
 62
     0
 10
332.383
 20
36.7993
 30
0.0
 11
332.383
 21
35.7988
 31
0.0
  0
LINE
  8
0
 62
     0
 10
332.383
 20
35.7988
 30
0.0
 11
331.582
 21
35.7988
 31
0.0
  0
LINE
  8
0
 62
     0
 10
331.582
 20
35.7988
 30
0.0
 11
331.582
 21
32.8993
 31
0.0
  0
LINE
  8
0
 62
     0
 10
331.582
 20
32.8993
 30
0.0
 11
332.383
 21
32.8993
 31
0.0
  0
LINE
  8
0
 62
     0
 10
332.383
 20
32.8993
 30
0.0
 11
332.383
 21
26.8993
 31
0.0
  0
LINE
  8
0
 62
     0
 10
332.383
 20
26.8993
 30
0.0
 11
331.582
 21
26.8993
 31
0.0
  0
LINE
  8
0
 62
     0
 10
331.582
 20
26.8993
 30
0.0
 11
331.582
 21
23.9985
 31
0.0
  0
LINE
  8
0
 62
     0
 10
331.582
 20
23.9985
 30
0.0
 11
332.383
 21
23.9985
 31
0.0
  0
LINE
  8
0
 62
     0
 10
332.383
 20
23.9985
 30
0.0
 11
332.383
 21
22.9995
 31
0.0
  0
LINE
  8
0
 62
     0
 10
332.383
 20
22.9995
 30
0.0
 11
346.183
 21
22.9995
 31
0.0
  0
LINE
  8
0
 62
     0
 10
346.183
 20
22.9995
 30
0.0
 11
346.183
 21
23.9985
 31
0.0
  0
LINE
  8
0
 62
     0
 10
346.183
 20
23.9985
 30
0.0
 11
346.983
 21
23.9985
 31
0.0
  0
LINE
  8
0
 62
     0
 10
346.983
 20
23.9985
 30
0.0
 11
346.983
 21
26.8993
 31
0.0
  0
LINE
  8
0
 62
     0
 10
346.983
 20
26.8993
 30
0.0
 11
346.183
 21
26.8993
 31
0.0
  0
LINE
  8
0
 62
     0
 10
346.183
 20
26.8993
 30
0.0
 11
346.183
 21
32.8993
 31
0.0
  0
LINE
  8
0
 62
     0
 10
346.183
 20
32.8993
 30
0.0
 11
346.983
 21
32.8993
 31
0.0
  0
LINE
  8
0
 62
     0
 10
346.983
 20
32.8993
 30
0.0
 11
346.983
 21
35.7988
 31
0.0
  0
LINE
  8
0
 62
     0
 10
346.983
 20
35.7988
 30
0.0
 11
346.183
 21
35.7988
 31
0.0
  0
LINE
  8
0
 62
     0
 10
346.183
 20
35.7988
 30
0.0
 11
346.183
 21
36.7993
 31
0.0
  0
LINE
  8
0
 62
     0
 10
346.183
 20
36.7993
 30
0.0
 11
332.383
 21
36.7993
 31
0.0
  0
LINE
  8
0
 62
     0
 10
313.333
 20
36.7993
 30
0.0
 11
313.333
 21
35.7988
 31
0.0
  0
LINE
  8
0
 62
     0
 10
313.333
 20
35.7988
 30
0.0
 11
312.532
 21
35.7988
 31
0.0
  0
LINE
  8
0
 62
     0
 10
312.532
 20
35.7988
 30
0.0
 11
312.532
 21
32.8993
 31
0.0
  0
LINE
  8
0
 62
     0
 10
312.532
 20
32.8993
 30
0.0
 11
313.333
 21
32.8993
 31
0.0
  0
LINE
  8
0
 62
     0
 10
313.333
 20
32.8993
 30
0.0
 11
313.333
 21
26.8993
 31
0.0
  0
LINE
  8
0
 62
     0
 10
313.333
 20
26.8993
 30
0.0
 11
312.532
 21
26.8993
 31
0.0
  0
LINE
  8
0
 62
     0
 10
312.532
 20
26.8993
 30
0.0
 11
312.532
 21
23.9985
 31
0.0
  0
LINE
  8
0
 62
     0
 10
312.532
 20
23.9985
 30
0.0
 11
313.333
 21
23.9985
 31
0.0
  0
LINE
  8
0
 62
     0
 10
313.333
 20
23.9985
 30
0.0
 11
313.333
 21
22.9995
 31
0.0
  0
LINE
  8
0
 62
     0
 10
313.333
 20
22.9995
 30
0.0
 11
327.133
 21
22.9995
 31
0.0
  0
LINE
  8
0
 62
     0
 10
327.133
 20
22.9995
 30
0.0
 11
327.133
 21
23.9985
 31
0.0
  0
LINE
  8
0
 62
     0
 10
327.133
 20
23.9985
 30
0.0
 11
327.933
 21
23.9985
 31
0.0
  0
LINE
  8
0
 62
     0
 10
327.933
 20
23.9985
 30
0.0
 11
327.933
 21
26.8993
 31
0.0
  0
LINE
  8
0
 62
     0
 10
327.933
 20
26.8993
 30
0.0
 11
327.133
 21
26.8993
 31
0.0
  0
LINE
  8
0
 62
     0
 10
327.133
 20
26.8993
 30
0.0
 11
327.133
 21
32.8993
 31
0.0
  0
LINE
  8
0
 62
     0
 10
327.133
 20
32.8993
 30
0.0
 11
327.933
 21
32.8993
 31
0.0
  0
LINE
  8
0
 62
     0
 10
327.933
 20
32.8993
 30
0.0
 11
327.933
 21
35.7988
 31
0.0
  0
LINE
  8
0
 62
     0
 10
327.933
 20
35.7988
 30
0.0
 11
327.133
 21
35.7988
 31
0.0
  0
LINE
  8
0
 62
     0
 10
327.133
 20
35.7988
 30
0.0
 11
327.133
 21
36.7993
 31
0.0
  0
LINE
  8
0
 62
     0
 10
327.133
 20
36.7993
 30
0.0
 11
313.333
 21
36.7993
 31
0.0
  0
LINE
  8
0
 62
     0
 10
287.139
 20
36.7993
 30
0.0
 11
287.139
 21
35.7988
 31
0.0
  0
LINE
  8
0
 62
     0
 10
287.139
 20
35.7988
 30
0.0
 11
286.338
 21
35.7988
 31
0.0
  0
LINE
  8
0
 62
     0
 10
286.338
 20
35.7988
 30
0.0
 11
286.338
 21
32.8993
 31
0.0
  0
LINE
  8
0
 62
     0
 10
286.338
 20
32.8993
 30
0.0
 11
287.139
 21
32.8993
 31
0.0
  0
LINE
  8
0
 62
     0
 10
287.139
 20
32.8993
 30
0.0
 11
287.139
 21
26.8993
 31
0.0
  0
LINE
  8
0
 62
     0
 10
287.139
 20
26.8993
 30
0.0
 11
286.338
 21
26.8993
 31
0.0
  0
LINE
  8
0
 62
     0
 10
286.338
 20
26.8993
 30
0.0
 11
286.338
 21
23.9985
 31
0.0
  0
LINE
  8
0
 62
     0
 10
286.338
 20
23.9985
 30
0.0
 11
287.139
 21
23.9985
 31
0.0
  0
LINE
  8
0
 62
     0
 10
287.139
 20
23.9985
 30
0.0
 11
287.139
 21
22.9995
 31
0.0
  0
LINE
  8
0
 62
     0
 10
287.139
 20
22.9995
 30
0.0
 11
300.939
 21
22.9995
 31
0.0
  0
LINE
  8
0
 62
     0
 10
300.939
 20
22.9995
 30
0.0
 11
300.939
 21
23.9985
 31
0.0
  0
LINE
  8
0
 62
     0
 10
300.939
 20
23.9985
 30
0.0
 11
301.738
 21
23.9985
 31
0.0
  0
LINE
  8
0
 62
     0
 10
301.738
 20
23.9985
 30
0.0
 11
301.738
 21
26.8993
 31
0.0
  0
LINE
  8
0
 62
     0
 10
301.738
 20
26.8993
 30
0.0
 11
300.939
 21
26.8993
 31
0.0
  0
LINE
  8
0
 62
     0
 10
300.939
 20
26.8993
 30
0.0
 11
300.939
 21
32.8993
 31
0.0
  0
LINE
  8
0
 62
     0
 10
300.939
 20
32.8993
 30
0.0
 11
301.738
 21
32.8993
 31
0.0
  0
LINE
  8
0
 62
     0
 10
301.738
 20
32.8993
 30
0.0
 11
301.738
 21
35.7988
 31
0.0
  0
LINE
  8
0
 62
     0
 10
301.738
 20
35.7988
 30
0.0
 11
300.939
 21
35.7988
 31
0.0
  0
LINE
  8
0
 62
     0
 10
300.939
 20
35.7988
 30
0.0
 11
300.939
 21
36.7993
 31
0.0
  0
LINE
  8
0
 62
     0
 10
300.939
 20
36.7993
 30
0.0
 11
287.139
 21
36.7993
 31
0.0
  0
LINE
  8
0
 62
     0
 10
263.327
 20
36.7993
 30
0.0
 11
263.327
 21
35.7988
 31
0.0
  0
LINE
  8
0
 62
     0
 10
263.327
 20
35.7988
 30
0.0
 11
262.526
 21
35.7988
 31
0.0
  0
LINE
  8
0
 62
     0
 10
262.526
 20
35.7988
 30
0.0
 11
262.526
 21
32.8993
 31
0.0
  0
LINE
  8
0
 62
     0
 10
262.526
 20
32.8993
 30
0.0
 11
263.327
 21
32.8993
 31
0.0
  0
LINE
  8
0
 62
     0
 10
263.327
 20
32.8993
 30
0.0
 11
263.327
 21
26.8993
 31
0.0
  0
LINE
  8
0
 62
     0
 10
263.327
 20
26.8993
 30
0.0
 11
262.526
 21
26.8993
 31
0.0
  0
LINE
  8
0
 62
     0
 10
262.526
 20
26.8993
 30
0.0
 11
262.526
 21
23.9985
 31
0.0
  0
LINE
  8
0
 62
     0
 10
262.526
 20
23.9985
 30
0.0
 11
263.327
 21
23.9985
 31
0.0
  0
LINE
  8
0
 62
     0
 10
263.327
 20
23.9985
 30
0.0
 11
263.327
 21
22.9995
 31
0.0
  0
LINE
  8
0
 62
     0
 10
263.327
 20
22.9995
 30
0.0
 11
277.126
 21
22.9995
 31
0.0
  0
LINE
  8
0
 62
     0
 10
277.126
 20
22.9995
 30
0.0
 11
277.126
 21
23.9985
 31
0.0
  0
LINE
  8
0
 62
     0
 10
277.126
 20
23.9985
 30
0.0
 11
277.927
 21
23.9985
 31
0.0
  0
LINE
  8
0
 62
     0
 10
277.927
 20
23.9985
 30
0.0
 11
277.927
 21
26.8993
 31
0.0
  0
LINE
  8
0
 62
     0
 10
277.927
 20
26.8993
 30
0.0
 11
277.126
 21
26.8993
 31
0.0
  0
LINE
  8
0
 62
     0
 10
277.126
 20
26.8993
 30
0.0
 11
277.126
 21
32.8993
 31
0.0
  0
LINE
  8
0
 62
     0
 10
277.126
 20
32.8993
 30
0.0
 11
277.927
 21
32.8993
 31
0.0
  0
LINE
  8
0
 62
     0
 10
277.927
 20
32.8993
 30
0.0
 11
277.927
 21
35.7988
 31
0.0
  0
LINE
  8
0
 62
     0
 10
277.927
 20
35.7988
 30
0.0
 11
277.126
 21
35.7988
 31
0.0
  0
LINE
  8
0
 62
     0
 10
277.126
 20
35.7988
 30
0.0
 11
277.126
 21
36.7993
 31
0.0
  0
LINE
  8
0
 62
     0
 10
277.126
 20
36.7993
 30
0.0
 11
263.327
 21
36.7993
 31
0.0
  0
LINE
  8
0
 62
     0
 10
239.514
 20
36.7993
 30
0.0
 11
239.514
 21
35.7988
 31
0.0
  0
LINE
  8
0
 62
     0
 10
239.514
 20
35.7988
 30
0.0
 11
238.713
 21
35.7988
 31
0.0
  0
LINE
  8
0
 62
     0
 10
238.713
 20
35.7988
 30
0.0
 11
238.713
 21
32.8993
 31
0.0
  0
LINE
  8
0
 62
     0
 10
238.713
 20
32.8993
 30
0.0
 11
239.514
 21
32.8993
 31
0.0
  0
LINE
  8
0
 62
     0
 10
239.514
 20
32.8993
 30
0.0
 11
239.514
 21
26.8993
 31
0.0
  0
LINE
  8
0
 62
     0
 10
239.514
 20
26.8993
 30
0.0
 11
238.713
 21
26.8993
 31
0.0
  0
LINE
  8
0
 62
     0
 10
238.713
 20
26.8993
 30
0.0
 11
238.713
 21
23.9985
 31
0.0
  0
LINE
  8
0
 62
     0
 10
238.713
 20
23.9985
 30
0.0
 11
239.514
 21
23.9985
 31
0.0
  0
LINE
  8
0
 62
     0
 10
239.514
 20
23.9985
 30
0.0
 11
239.514
 21
22.9995
 31
0.0
  0
LINE
  8
0
 62
     0
 10
239.514
 20
22.9995
 30
0.0
 11
253.314
 21
22.9995
 31
0.0
  0
LINE
  8
0
 62
     0
 10
253.314
 20
22.9995
 30
0.0
 11
253.314
 21
23.9985
 31
0.0
  0
LINE
  8
0
 62
     0
 10
253.314
 20
23.9985
 30
0.0
 11
254.113
 21
23.9985
 31
0.0
  0
LINE
  8
0
 62
     0
 10
254.113
 20
23.9985
 30
0.0
 11
254.113
 21
26.8993
 31
0.0
  0
LINE
  8
0
 62
     0
 10
254.113
 20
26.8993
 30
0.0
 11
253.314
 21
26.8993
 31
0.0
  0
LINE
  8
0
 62
     0
 10
253.314
 20
26.8993
 30
0.0
 11
253.314
 21
32.8993
 31
0.0
  0
LINE
  8
0
 62
     0
 10
253.314
 20
32.8993
 30
0.0
 11
254.113
 21
32.8993
 31
0.0
  0
LINE
  8
0
 62
     0
 10
254.113
 20
32.8993
 30
0.0
 11
254.113
 21
35.7988
 31
0.0
  0
LINE
  8
0
 62
     0
 10
254.113
 20
35.7988
 30
0.0
 11
253.314
 21
35.7988
 31
0.0
  0
LINE
  8
0
 62
     0
 10
253.314
 20
35.7988
 30
0.0
 11
253.314
 21
36.7993
 31
0.0
  0
LINE
  8
0
 62
     0
 10
253.314
 20
36.7993
 30
0.0
 11
239.514
 21
36.7993
 31
0.0
  0
LINE
  8
0
 62
     0
 10
215.702
 20
36.7993
 30
0.0
 11
215.702
 21
35.7988
 31
0.0
  0
LINE
  8
0
 62
     0
 10
215.702
 20
35.7988
 30
0.0
 11
214.901
 21
35.7988
 31
0.0
  0
LINE
  8
0
 62
     0
 10
214.901
 20
35.7988
 30
0.0
 11
214.901
 21
32.8993
 31
0.0
  0
LINE
  8
0
 62
     0
 10
214.901
 20
32.8993
 30
0.0
 11
215.702
 21
32.8993
 31
0.0
  0
LINE
  8
0
 62
     0
 10
215.702
 20
32.8993
 30
0.0
 11
215.702
 21
26.8993
 31
0.0
  0
LINE
  8
0
 62
     0
 10
215.702
 20
26.8993
 30
0.0
 11
214.901
 21
26.8993
 31
0.0
  0
LINE
  8
0
 62
     0
 10
214.901
 20
26.8993
 30
0.0
 11
214.901
 21
23.9985
 31
0.0
  0
LINE
  8
0
 62
     0
 10
214.901
 20
23.9985
 30
0.0
 11
215.702
 21
23.9985
 31
0.0
  0
LINE
  8
0
 62
     0
 10
215.702
 20
23.9985
 30
0.0
 11
215.702
 21
22.9995
 31
0.0
  0
LINE
  8
0
 62
     0
 10
215.702
 20
22.9995
 30
0.0
 11
229.501
 21
22.9995
 31
0.0
  0
LINE
  8
0
 62
     0
 10
229.501
 20
22.9995
 30
0.0
 11
229.501
 21
23.9985
 31
0.0
  0
LINE
  8
0
 62
     0
 10
229.501
 20
23.9985
 30
0.0
 11
230.302
 21
23.9985
 31
0.0
  0
LINE
  8
0
 62
     0
 10
230.302
 20
23.9985
 30
0.0
 11
230.302
 21
26.8993
 31
0.0
  0
LINE
  8
0
 62
     0
 10
230.302
 20
26.8993
 30
0.0
 11
229.501
 21
26.8993
 31
0.0
  0
LINE
  8
0
 62
     0
 10
229.501
 20
26.8993
 30
0.0
 11
229.501
 21
32.8993
 31
0.0
  0
LINE
  8
0
 62
     0
 10
229.501
 20
32.8993
 30
0.0
 11
230.302
 21
32.8993
 31
0.0
  0
LINE
  8
0
 62
     0
 10
230.302
 20
32.8993
 30
0.0
 11
230.302
 21
35.7988
 31
0.0
  0
LINE
  8
0
 62
     0
 10
230.302
 20
35.7988
 30
0.0
 11
229.501
 21
35.7988
 31
0.0
  0
LINE
  8
0
 62
     0
 10
229.501
 20
35.7988
 30
0.0
 11
229.501
 21
36.7993
 31
0.0
  0
LINE
  8
0
 62
     0
 10
229.501
 20
36.7993
 30
0.0
 11
215.702
 21
36.7993
 31
0.0
  0
LINE
  8
0
 62
     0
 10
72.8267
 20
36.7993
 30
0.0
 11
72.8267
 21
35.7988
 31
0.0
  0
LINE
  8
0
 62
     0
 10
72.8267
 20
35.7988
 30
0.0
 11
72.0259
 21
35.7988
 31
0.0
  0
LINE
  8
0
 62
     0
 10
72.0259
 20
35.7988
 30
0.0
 11
72.0259
 21
32.8993
 31
0.0
  0
LINE
  8
0
 62
     0
 10
72.0259
 20
32.8993
 30
0.0
 11
72.8267
 21
32.8993
 31
0.0
  0
LINE
  8
0
 62
     0
 10
72.8267
 20
32.8993
 30
0.0
 11
72.8267
 21
26.8993
 31
0.0
  0
LINE
  8
0
 62
     0
 10
72.8267
 20
26.8993
 30
0.0
 11
72.0259
 21
26.8993
 31
0.0
  0
LINE
  8
0
 62
     0
 10
72.0259
 20
26.8993
 30
0.0
 11
72.0259
 21
23.9985
 31
0.0
  0
LINE
  8
0
 62
     0
 10
72.0259
 20
23.9985
 30
0.0
 11
72.8267
 21
23.9985
 31
0.0
  0
LINE
  8
0
 62
     0
 10
72.8267
 20
23.9985
 30
0.0
 11
72.8267
 21
22.9995
 31
0.0
  0
LINE
  8
0
 62
     0
 10
72.8267
 20
22.9995
 30
0.0
 11
86.6263
 21
22.9995
 31
0.0
  0
LINE
  8
0
 62
     0
 10
86.6263
 20
22.9995
 30
0.0
 11
86.6263
 21
23.9985
 31
0.0
  0
LINE
  8
0
 62
     0
 10
86.6263
 20
23.9985
 30
0.0
 11
87.4268
 21
23.9985
 31
0.0
  0
LINE
  8
0
 62
     0
 10
87.4268
 20
23.9985
 30
0.0
 11
87.4268
 21
26.8993
 31
0.0
  0
LINE
  8
0
 62
     0
 10
87.4268
 20
26.8993
 30
0.0
 11
86.6263
 21
26.8993
 31
0.0
  0
LINE
  8
0
 62
     0
 10
86.6263
 20
26.8993
 30
0.0
 11
86.6263
 21
32.8993
 31
0.0
  0
LINE
  8
0
 62
     0
 10
86.6263
 20
32.8993
 30
0.0
 11
87.4268
 21
32.8993
 31
0.0
  0
LINE
  8
0
 62
     0
 10
87.4268
 20
32.8993
 30
0.0
 11
87.4268
 21
35.7988
 31
0.0
  0
LINE
  8
0
 62
     0
 10
87.4268
 20
35.7988
 30
0.0
 11
86.6263
 21
35.7988
 31
0.0
  0
LINE
  8
0
 62
     0
 10
86.6263
 20
35.7988
 30
0.0
 11
86.6263
 21
36.7993
 31
0.0
  0
LINE
  8
0
 62
     0
 10
86.6263
 20
36.7993
 30
0.0
 11
72.8267
 21
36.7993
 31
0.0
  0
LINE
  8
0
 62
     0
 10
49.0142
 20
36.7993
 30
0.0
 11
49.0142
 21
35.7988
 31
0.0
  0
LINE
  8
0
 62
     0
 10
49.0142
 20
35.7988
 30
0.0
 11
48.2134
 21
35.7988
 31
0.0
  0
LINE
  8
0
 62
     0
 10
48.2134
 20
35.7988
 30
0.0
 11
48.2134
 21
32.8993
 31
0.0
  0
LINE
  8
0
 62
     0
 10
48.2134
 20
32.8993
 30
0.0
 11
49.0142
 21
32.8993
 31
0.0
  0
LINE
  8
0
 62
     0
 10
49.0142
 20
32.8993
 30
0.0
 11
49.0142
 21
26.8993
 31
0.0
  0
LINE
  8
0
 62
     0
 10
49.0142
 20
26.8993
 30
0.0
 11
48.2134
 21
26.8993
 31
0.0
  0
LINE
  8
0
 62
     0
 10
48.2134
 20
26.8993
 30
0.0
 11
48.2134
 21
23.9985
 31
0.0
  0
LINE
  8
0
 62
     0
 10
48.2134
 20
23.9985
 30
0.0
 11
49.0142
 21
23.9985
 31
0.0
  0
LINE
  8
0
 62
     0
 10
49.0142
 20
23.9985
 30
0.0
 11
49.0142
 21
22.9995
 31
0.0
  0
LINE
  8
0
 62
     0
 10
49.0142
 20
22.9995
 30
0.0
 11
62.8138
 21
22.9995
 31
0.0
  0
LINE
  8
0
 62
     0
 10
62.8138
 20
22.9995
 30
0.0
 11
62.8138
 21
23.9985
 31
0.0
  0
LINE
  8
0
 62
     0
 10
62.8138
 20
23.9985
 30
0.0
 11
63.6129
 21
23.9985
 31
0.0
  0
LINE
  8
0
 62
     0
 10
63.6129
 20
23.9985
 30
0.0
 11
63.6129
 21
26.8993
 31
0.0
  0
LINE
  8
0
 62
     0
 10
63.6129
 20
26.8993
 30
0.0
 11
62.8138
 21
26.8993
 31
0.0
  0
LINE
  8
0
 62
     0
 10
62.8138
 20
26.8993
 30
0.0
 11
62.8138
 21
32.8993
 31
0.0
  0
LINE
  8
0
 62
     0
 10
62.8138
 20
32.8993
 30
0.0
 11
63.6129
 21
32.8993
 31
0.0
  0
LINE
  8
0
 62
     0
 10
63.6129
 20
32.8993
 30
0.0
 11
63.6129
 21
35.7988
 31
0.0
  0
LINE
  8
0
 62
     0
 10
63.6129
 20
35.7988
 30
0.0
 11
62.8138
 21
35.7988
 31
0.0
  0
LINE
  8
0
 62
     0
 10
62.8138
 20
35.7988
 30
0.0
 11
62.8138
 21
36.7993
 31
0.0
  0
LINE
  8
0
 62
     0
 10
62.8138
 20
36.7993
 30
0.0
 11
49.0142
 21
36.7993
 31
0.0
  0
LINE
  8
0
 62
     0
 10
25.2016
 20
36.7993
 30
0.0
 11
25.2016
 21
35.7988
 31
0.0
  0
LINE
  8
0
 62
     0
 10
25.2016
 20
35.7988
 30
0.0
 11
24.4009
 21
35.7988
 31
0.0
  0
LINE
  8
0
 62
     0
 10
24.4009
 20
35.7988
 30
0.0
 11
24.4009
 21
32.8993
 31
0.0
  0
LINE
  8
0
 62
     0
 10
24.4009
 20
32.8993
 30
0.0
 11
25.2016
 21
32.8993
 31
0.0
  0
LINE
  8
0
 62
     0
 10
25.2016
 20
32.8993
 30
0.0
 11
25.2016
 21
26.8993
 31
0.0
  0
LINE
  8
0
 62
     0
 10
25.2016
 20
26.8993
 30
0.0
 11
24.4009
 21
26.8993
 31
0.0
  0
LINE
  8
0
 62
     0
 10
24.4009
 20
26.8993
 30
0.0
 11
24.4009
 21
23.9985
 31
0.0
  0
LINE
  8
0
 62
     0
 10
24.4009
 20
23.9985
 30
0.0
 11
25.2016
 21
23.9985
 31
0.0
  0
LINE
  8
0
 62
     0
 10
25.2016
 20
23.9985
 30
0.0
 11
25.2016
 21
22.9995
 31
0.0
  0
LINE
  8
0
 62
     0
 10
25.2016
 20
22.9995
 30
0.0
 11
39.0013
 21
22.9995
 31
0.0
  0
LINE
  8
0
 62
     0
 10
39.0013
 20
22.9995
 30
0.0
 11
39.0013
 21
23.9985
 31
0.0
  0
LINE
  8
0
 62
     0
 10
39.0013
 20
23.9985
 30
0.0
 11
39.8018
 21
23.9985
 31
0.0
  0
LINE
  8
0
 62
     0
 10
39.8018
 20
23.9985
 30
0.0
 11
39.8018
 21
26.8993
 31
0.0
  0
LINE
  8
0
 62
     0
 10
39.8018
 20
26.8993
 30
0.0
 11
39.0013
 21
26.8993
 31
0.0
  0
LINE
  8
0
 62
     0
 10
39.0013
 20
26.8993
 30
0.0
 11
39.0013
 21
32.8993
 31
0.0
  0
LINE
  8
0
 62
     0
 10
39.0013
 20
32.8993
 30
0.0
 11
39.8018
 21
32.8993
 31
0.0
  0
LINE
  8
0
 62
     0
 10
39.8018
 20
32.8993
 30
0.0
 11
39.8018
 21
35.7988
 31
0.0
  0
LINE
  8
0
 62
     0
 10
39.8018
 20
35.7988
 30
0.0
 11
39.0013
 21
35.7988
 31
0.0
  0
LINE
  8
0
 62
     0
 10
39.0013
 20
35.7988
 30
0.0
 11
39.0013
 21
36.7993
 31
0.0
  0
LINE
  8
0
 62
     0
 10
39.0013
 20
36.7993
 30
0.0
 11
25.2016
 21
36.7993
 31
0.0
  0
LINE
  8
0
 62
     0
 10
272.852
 20
55.8504
 30
0.0
 11
272.852
 21
54.8499
 31
0.0
  0
LINE
  8
0
 62
     0
 10
272.852
 20
54.8499
 30
0.0
 11
272.051
 21
54.8499
 31
0.0
  0
LINE
  8
0
 62
     0
 10
272.051
 20
54.8499
 30
0.0
 11
272.051
 21
51.9493
 31
0.0
  0
LINE
  8
0
 62
     0
 10
272.051
 20
51.9493
 30
0.0
 11
272.852
 21
51.9493
 31
0.0
  0
LINE
  8
0
 62
     0
 10
272.852
 20
51.9493
 30
0.0
 11
272.852
 21
51.15
 31
0.0
  0
LINE
  8
0
 62
     0
 10
272.852
 20
51.15
 30
0.0
 11
271.126
 21
51.15
 31
0.0
  0
LINE
  8
0
 62
     0
 10
271.126
 20
51.15
 30
0.0
 11
271.126
 21
54.38
 31
0.0
  0
LINE
  8
0
 62
     0
 10
271.126
 20
54.38
 30
0.0
 11
264.576
 21
54.38
 31
0.0
  0
LINE
  8
0
 62
     0
 10
264.576
 20
54.38
 30
0.0
 11
264.576
 21
51.15
 31
0.0
  0
LINE
  8
0
 62
     0
 10
264.576
 20
51.15
 30
0.0
 11
263.751
 21
51.15
 31
0.0
  0
LINE
  8
0
 62
     0
 10
263.751
 20
51.15
 30
0.0
 11
263.751
 21
48.5482
 31
0.0
  0
LINE
  8
0
 62
     0
 10
263.751
 20
48.5482
 30
0.0
 11
264.576
 21
48.5482
 31
0.0
  0
LINE
  8
0
 62
     0
 10
264.576
 20
48.5482
 30
0.0
 11
264.576
 21
42.2797
 31
0.0
  0
LINE
  8
0
 62
     0
 10
264.576
 20
42.2797
 30
0.0
 11
266.302
 21
42.2797
 31
0.0
  0
LINE
  8
0
 62
     0
 10
266.302
 20
42.2797
 30
0.0
 11
266.302
 21
41.0792
 31
0.0
  0
LINE
  8
0
 62
     0
 10
266.302
 20
41.0792
 30
0.0
 11
269.401
 21
41.0792
 31
0.0
  0
LINE
  8
0
 62
     0
 10
269.401
 20
41.0792
 30
0.0
 11
269.401
 21
42.2797
 31
0.0
  0
LINE
  8
0
 62
     0
 10
269.401
 20
42.2797
 30
0.0
 11
271.126
 21
42.2797
 31
0.0
  0
LINE
  8
0
 62
     0
 10
271.126
 20
42.2797
 30
0.0
 11
271.126
 21
46.7487
 31
0.0
  0
LINE
  8
0
 62
     0
 10
271.126
 20
46.7487
 30
0.0
 11
272.852
 21
46.7487
 31
0.0
  0
LINE
  8
0
 62
     0
 10
272.852
 20
46.7487
 30
0.0
 11
272.852
 21
45.9493
 31
0.0
  0
LINE
  8
0
 62
     0
 10
272.852
 20
45.9493
 30
0.0
 11
272.051
 21
45.9493
 31
0.0
  0
LINE
  8
0
 62
     0
 10
272.051
 20
45.9493
 30
0.0
 11
272.051
 21
43.0484
 31
0.0
  0
LINE
  8
0
 62
     0
 10
272.051
 20
43.0484
 30
0.0
 11
272.852
 21
43.0484
 31
0.0
  0
LINE
  8
0
 62
     0
 10
272.852
 20
43.0484
 30
0.0
 11
272.852
 21
42.0493
 31
0.0
  0
LINE
  8
0
 62
     0
 10
272.852
 20
42.0493
 30
0.0
 11
286.651
 21
42.0493
 31
0.0
  0
LINE
  8
0
 62
     0
 10
286.651
 20
42.0493
 30
0.0
 11
286.651
 21
43.0484
 31
0.0
  0
LINE
  8
0
 62
     0
 10
286.651
 20
43.0484
 30
0.0
 11
287.452
 21
43.0484
 31
0.0
  0
LINE
  8
0
 62
     0
 10
287.452
 20
43.0484
 30
0.0
 11
287.452
 21
45.9493
 31
0.0
  0
LINE
  8
0
 62
     0
 10
287.452
 20
45.9493
 30
0.0
 11
286.651
 21
45.9493
 31
0.0
  0
LINE
  8
0
 62
     0
 10
286.651
 20
45.9493
 30
0.0
 11
286.651
 21
46.7487
 31
0.0
  0
LINE
  8
0
 62
     0
 10
286.651
 20
46.7487
 30
0.0
 11
288.376
 21
46.7487
 31
0.0
  0
LINE
  8
0
 62
     0
 10
288.376
 20
46.7487
 30
0.0
 11
288.376
 21
42.2797
 31
0.0
  0
LINE
  8
0
 62
     0
 10
288.376
 20
42.2797
 30
0.0
 11
290.102
 21
42.2797
 31
0.0
  0
LINE
  8
0
 62
     0
 10
290.102
 20
42.2797
 30
0.0
 11
290.102
 21
41.0792
 31
0.0
  0
LINE
  8
0
 62
     0
 10
290.102
 20
41.0792
 30
0.0
 11
293.201
 21
41.0792
 31
0.0
  0
LINE
  8
0
 62
     0
 10
293.201
 20
41.0792
 30
0.0
 11
293.201
 21
42.2797
 31
0.0
  0
LINE
  8
0
 62
     0
 10
293.201
 20
42.2797
 30
0.0
 11
294.926
 21
42.2797
 31
0.0
  0
LINE
  8
0
 62
     0
 10
294.926
 20
42.2797
 30
0.0
 11
294.926
 21
48.5482
 31
0.0
  0
LINE
  8
0
 62
     0
 10
294.926
 20
48.5482
 30
0.0
 11
295.752
 21
48.5482
 31
0.0
  0
LINE
  8
0
 62
     0
 10
295.752
 20
48.5482
 30
0.0
 11
295.752
 21
51.15
 31
0.0
  0
LINE
  8
0
 62
     0
 10
295.752
 20
51.15
 30
0.0
 11
294.926
 21
51.15
 31
0.0
  0
LINE
  8
0
 62
     0
 10
294.926
 20
51.15
 30
0.0
 11
294.926
 21
54.38
 31
0.0
  0
LINE
  8
0
 62
     0
 10
294.926
 20
54.38
 30
0.0
 11
288.376
 21
54.38
 31
0.0
  0
LINE
  8
0
 62
     0
 10
288.376
 20
54.38
 30
0.0
 11
288.376
 21
51.15
 31
0.0
  0
LINE
  8
0
 62
     0
 10
288.376
 20
51.15
 30
0.0
 11
286.651
 21
51.15
 31
0.0
  0
LINE
  8
0
 62
     0
 10
286.651
 20
51.15
 30
0.0
 11
286.651
 21
51.9493
 31
0.0
  0
LINE
  8
0
 62
     0
 10
286.651
 20
51.9493
 30
0.0
 11
287.452
 21
51.9493
 31
0.0
  0
LINE
  8
0
 62
     0
 10
287.452
 20
51.9493
 30
0.0
 11
287.452
 21
54.8499
 31
0.0
  0
LINE
  8
0
 62
     0
 10
287.452
 20
54.8499
 30
0.0
 11
286.651
 21
54.8499
 31
0.0
  0
LINE
  8
0
 62
     0
 10
286.651
 20
54.8499
 30
0.0
 11
286.651
 21
55.8504
 31
0.0
  0
LINE
  8
0
 62
     0
 10
286.651
 20
55.8504
 30
0.0
 11
272.852
 21
55.8504
 31
0.0
  0
LINE
  8
0
 62
     0
 10
34.7266
 20
55.8504
 30
0.0
 11
34.7266
 21
54.8499
 31
0.0
  0
LINE
  8
0
 62
     0
 10
34.7266
 20
54.8499
 30
0.0
 11
33.9259
 21
54.8499
 31
0.0
  0
LINE
  8
0
 62
     0
 10
33.9259
 20
54.8499
 30
0.0
 11
33.9259
 21
51.9493
 31
0.0
  0
LINE
  8
0
 62
     0
 10
33.9259
 20
51.9493
 30
0.0
 11
34.7266
 21
51.9493
 31
0.0
  0
LINE
  8
0
 62
     0
 10
34.7266
 20
51.9493
 30
0.0
 11
34.7266
 21
51.15
 31
0.0
  0
LINE
  8
0
 62
     0
 10
34.7266
 20
51.15
 30
0.0
 11
33.0013
 21
51.15
 31
0.0
  0
LINE
  8
0
 62
     0
 10
33.0013
 20
51.15
 30
0.0
 11
33.0013
 21
54.38
 31
0.0
  0
LINE
  8
0
 62
     0
 10
33.0013
 20
54.38
 30
0.0
 11
26.4515
 21
54.38
 31
0.0
  0
LINE
  8
0
 62
     0
 10
26.4515
 20
54.38
 30
0.0
 11
26.4515
 21
51.15
 31
0.0
  0
LINE
  8
0
 62
     0
 10
26.4515
 20
51.15
 30
0.0
 11
25.626
 21
51.15
 31
0.0
  0
LINE
  8
0
 62
     0
 10
25.626
 20
51.15
 30
0.0
 11
25.626
 21
48.5482
 31
0.0
  0
LINE
  8
0
 62
     0
 10
25.626
 20
48.5482
 30
0.0
 11
26.4515
 21
48.5482
 31
0.0
  0
LINE
  8
0
 62
     0
 10
26.4515
 20
48.5482
 30
0.0
 11
26.4515
 21
42.2797
 31
0.0
  0
LINE
  8
0
 62
     0
 10
26.4515
 20
42.2797
 30
0.0
 11
28.1767
 21
42.2797
 31
0.0
  0
LINE
  8
0
 62
     0
 10
28.1767
 20
42.2797
 30
0.0
 11
28.1767
 21
41.0792
 31
0.0
  0
LINE
  8
0
 62
     0
 10
28.1767
 20
41.0792
 30
0.0
 11
31.276
 21
41.0792
 31
0.0
  0
LINE
  8
0
 62
     0
 10
31.276
 20
41.0792
 30
0.0
 11
31.276
 21
42.2797
 31
0.0
  0
LINE
  8
0
 62
     0
 10
31.276
 20
42.2797
 30
0.0
 11
33.0013
 21
42.2797
 31
0.0
  0
LINE
  8
0
 62
     0
 10
33.0013
 20
42.2797
 30
0.0
 11
33.0013
 21
46.7487
 31
0.0
  0
LINE
  8
0
 62
     0
 10
33.0013
 20
46.7487
 30
0.0
 11
34.7266
 21
46.7487
 31
0.0
  0
LINE
  8
0
 62
     0
 10
34.7266
 20
46.7487
 30
0.0
 11
34.7266
 21
45.9493
 31
0.0
  0
LINE
  8
0
 62
     0
 10
34.7266
 20
45.9493
 30
0.0
 11
33.9259
 21
45.9493
 31
0.0
  0
LINE
  8
0
 62
     0
 10
33.9259
 20
45.9493
 30
0.0
 11
33.9259
 21
43.0484
 31
0.0
  0
LINE
  8
0
 62
     0
 10
33.9259
 20
43.0484
 30
0.0
 11
34.7266
 21
43.0484
 31
0.0
  0
LINE
  8
0
 62
     0
 10
34.7266
 20
43.0484
 30
0.0
 11
34.7266
 21
42.0493
 31
0.0
  0
LINE
  8
0
 62
     0
 10
34.7266
 20
42.0493
 30
0.0
 11
48.5263
 21
42.0493
 31
0.0
  0
LINE
  8
0
 62
     0
 10
48.5263
 20
42.0493
 30
0.0
 11
48.5263
 21
43.0484
 31
0.0
  0
LINE
  8
0
 62
     0
 10
48.5263
 20
43.0484
 30
0.0
 11
49.3268
 21
43.0484
 31
0.0
  0
LINE
  8
0
 62
     0
 10
49.3268
 20
43.0484
 30
0.0
 11
49.3268
 21
45.9493
 31
0.0
  0
LINE
  8
0
 62
     0
 10
49.3268
 20
45.9493
 30
0.0
 11
48.5263
 21
45.9493
 31
0.0
  0
LINE
  8
0
 62
     0
 10
48.5263
 20
45.9493
 30
0.0
 11
48.5263
 21
46.7487
 31
0.0
  0
LINE
  8
0
 62
     0
 10
48.5263
 20
46.7487
 30
0.0
 11
50.2514
 21
46.7487
 31
0.0
  0
LINE
  8
0
 62
     0
 10
50.2514
 20
46.7487
 30
0.0
 11
50.2514
 21
42.2797
 31
0.0
  0
LINE
  8
0
 62
     0
 10
50.2514
 20
42.2797
 30
0.0
 11
51.9769
 21
42.2797
 31
0.0
  0
LINE
  8
0
 62
     0
 10
51.9769
 20
42.2797
 30
0.0
 11
51.9769
 21
41.0792
 31
0.0
  0
LINE
  8
0
 62
     0
 10
51.9769
 20
41.0792
 30
0.0
 11
55.076
 21
41.0792
 31
0.0
  0
LINE
  8
0
 62
     0
 10
55.076
 20
41.0792
 30
0.0
 11
55.076
 21
42.2797
 31
0.0
  0
LINE
  8
0
 62
     0
 10
55.076
 20
42.2797
 30
0.0
 11
56.8015
 21
42.2797
 31
0.0
  0
LINE
  8
0
 62
     0
 10
56.8015
 20
42.2797
 30
0.0
 11
56.8015
 21
48.5482
 31
0.0
  0
LINE
  8
0
 62
     0
 10
56.8015
 20
48.5482
 30
0.0
 11
57.627
 21
48.5482
 31
0.0
  0
LINE
  8
0
 62
     0
 10
57.627
 20
48.5482
 30
0.0
 11
57.627
 21
51.15
 31
0.0
  0
LINE
  8
0
 62
     0
 10
57.627
 20
51.15
 30
0.0
 11
56.8015
 21
51.15
 31
0.0
  0
LINE
  8
0
 62
     0
 10
56.8015
 20
51.15
 30
0.0
 11
56.8015
 21
54.38
 31
0.0
  0
LINE
  8
0
 62
     0
 10
56.8015
 20
54.38
 30
0.0
 11
50.2514
 21
54.38
 31
0.0
  0
LINE
  8
0
 62
     0
 10
50.2514
 20
54.38
 30
0.0
 11
50.2514
 21
51.15
 31
0.0
  0
LINE
  8
0
 62
     0
 10
50.2514
 20
51.15
 30
0.0
 11
48.5263
 21
51.15
 31
0.0
  0
LINE
  8
0
 62
     0
 10
48.5263
 20
51.15
 30
0.0
 11
48.5263
 21
51.9493
 31
0.0
  0
LINE
  8
0
 62
     0
 10
48.5263
 20
51.9493
 30
0.0
 11
49.3268
 21
51.9493
 31
0.0
  0
LINE
  8
0
 62
     0
 10
49.3268
 20
51.9493
 30
0.0
 11
49.3268
 21
54.8499
 31
0.0
  0
LINE
  8
0
 62
     0
 10
49.3268
 20
54.8499
 30
0.0
 11
48.5263
 21
54.8499
 31
0.0
  0
LINE
  8
0
 62
     0
 10
48.5263
 20
54.8499
 30
0.0
 11
48.5263
 21
55.8504
 31
0.0
  0
LINE
  8
0
 62
     0
 10
48.5263
 20
55.8504
 30
0.0
 11
34.7266
 21
55.8504
 31
0.0
  0
LINE
  8
0
 62
     0
 10
332.383
 20
55.8504
 30
0.0
 11
332.383
 21
54.8499
 31
0.0
  0
LINE
  8
0
 62
     0
 10
332.383
 20
54.8499
 30
0.0
 11
331.582
 21
54.8499
 31
0.0
  0
LINE
  8
0
 62
     0
 10
331.582
 20
54.8499
 30
0.0
 11
331.582
 21
51.9493
 31
0.0
  0
LINE
  8
0
 62
     0
 10
331.582
 20
51.9493
 30
0.0
 11
332.383
 21
51.9493
 31
0.0
  0
LINE
  8
0
 62
     0
 10
332.383
 20
51.9493
 30
0.0
 11
332.383
 21
45.9493
 31
0.0
  0
LINE
  8
0
 62
     0
 10
332.383
 20
45.9493
 30
0.0
 11
331.582
 21
45.9493
 31
0.0
  0
LINE
  8
0
 62
     0
 10
331.582
 20
45.9493
 30
0.0
 11
331.582
 21
43.0484
 31
0.0
  0
LINE
  8
0
 62
     0
 10
331.582
 20
43.0484
 30
0.0
 11
332.383
 21
43.0484
 31
0.0
  0
LINE
  8
0
 62
     0
 10
332.383
 20
43.0484
 30
0.0
 11
332.383
 21
42.0493
 31
0.0
  0
LINE
  8
0
 62
     0
 10
332.383
 20
42.0493
 30
0.0
 11
346.183
 21
42.0493
 31
0.0
  0
LINE
  8
0
 62
     0
 10
346.183
 20
42.0493
 30
0.0
 11
346.183
 21
43.0484
 31
0.0
  0
LINE
  8
0
 62
     0
 10
346.183
 20
43.0484
 30
0.0
 11
346.983
 21
43.0484
 31
0.0
  0
LINE
  8
0
 62
     0
 10
346.983
 20
43.0484
 30
0.0
 11
346.983
 21
45.9493
 31
0.0
  0
LINE
  8
0
 62
     0
 10
346.983
 20
45.9493
 30
0.0
 11
346.183
 21
45.9493
 31
0.0
  0
LINE
  8
0
 62
     0
 10
346.183
 20
45.9493
 30
0.0
 11
346.183
 21
51.9493
 31
0.0
  0
LINE
  8
0
 62
     0
 10
346.183
 20
51.9493
 30
0.0
 11
346.983
 21
51.9493
 31
0.0
  0
LINE
  8
0
 62
     0
 10
346.983
 20
51.9493
 30
0.0
 11
346.983
 21
54.8499
 31
0.0
  0
LINE
  8
0
 62
     0
 10
346.983
 20
54.8499
 30
0.0
 11
346.183
 21
54.8499
 31
0.0
  0
LINE
  8
0
 62
     0
 10
346.183
 20
54.8499
 30
0.0
 11
346.183
 21
55.8504
 31
0.0
  0
LINE
  8
0
 62
     0
 10
346.183
 20
55.8504
 30
0.0
 11
332.383
 21
55.8504
 31
0.0
  0
LINE
  8
0
 62
     0
 10
237.133
 20
55.8504
 30
0.0
 11
237.133
 21
54.8499
 31
0.0
  0
LINE
  8
0
 62
     0
 10
237.133
 20
54.8499
 30
0.0
 11
236.332
 21
54.8499
 31
0.0
  0
LINE
  8
0
 62
     0
 10
236.332
 20
54.8499
 30
0.0
 11
236.332
 21
51.9493
 31
0.0
  0
LINE
  8
0
 62
     0
 10
236.332
 20
51.9493
 30
0.0
 11
237.133
 21
51.9493
 31
0.0
  0
LINE
  8
0
 62
     0
 10
237.133
 20
51.9493
 30
0.0
 11
237.133
 21
45.9493
 31
0.0
  0
LINE
  8
0
 62
     0
 10
237.133
 20
45.9493
 30
0.0
 11
236.332
 21
45.9493
 31
0.0
  0
LINE
  8
0
 62
     0
 10
236.332
 20
45.9493
 30
0.0
 11
236.332
 21
43.0484
 31
0.0
  0
LINE
  8
0
 62
     0
 10
236.332
 20
43.0484
 30
0.0
 11
237.133
 21
43.0484
 31
0.0
  0
LINE
  8
0
 62
     0
 10
237.133
 20
43.0484
 30
0.0
 11
237.133
 21
42.0493
 31
0.0
  0
LINE
  8
0
 62
     0
 10
237.133
 20
42.0493
 30
0.0
 11
250.933
 21
42.0493
 31
0.0
  0
LINE
  8
0
 62
     0
 10
250.933
 20
42.0493
 30
0.0
 11
250.933
 21
43.0484
 31
0.0
  0
LINE
  8
0
 62
     0
 10
250.933
 20
43.0484
 30
0.0
 11
251.733
 21
43.0484
 31
0.0
  0
LINE
  8
0
 62
     0
 10
251.733
 20
43.0484
 30
0.0
 11
251.733
 21
45.9493
 31
0.0
  0
LINE
  8
0
 62
     0
 10
251.733
 20
45.9493
 30
0.0
 11
250.933
 21
45.9493
 31
0.0
  0
LINE
  8
0
 62
     0
 10
250.933
 20
45.9493
 30
0.0
 11
250.933
 21
51.9493
 31
0.0
  0
LINE
  8
0
 62
     0
 10
250.933
 20
51.9493
 30
0.0
 11
251.733
 21
51.9493
 31
0.0
  0
LINE
  8
0
 62
     0
 10
251.733
 20
51.9493
 30
0.0
 11
251.733
 21
54.8499
 31
0.0
  0
LINE
  8
0
 62
     0
 10
251.733
 20
54.8499
 30
0.0
 11
250.933
 21
54.8499
 31
0.0
  0
LINE
  8
0
 62
     0
 10
250.933
 20
54.8499
 30
0.0
 11
250.933
 21
55.8504
 31
0.0
  0
LINE
  8
0
 62
     0
 10
250.933
 20
55.8504
 30
0.0
 11
237.133
 21
55.8504
 31
0.0
  0
LINE
  8
0
 62
     0
 10
218.083
 20
55.8504
 30
0.0
 11
218.083
 21
54.8499
 31
0.0
  0
LINE
  8
0
 62
     0
 10
218.083
 20
54.8499
 30
0.0
 11
217.282
 21
54.8499
 31
0.0
  0
LINE
  8
0
 62
     0
 10
217.282
 20
54.8499
 30
0.0
 11
217.282
 21
51.9493
 31
0.0
  0
LINE
  8
0
 62
     0
 10
217.282
 20
51.9493
 30
0.0
 11
218.083
 21
51.9493
 31
0.0
  0
LINE
  8
0
 62
     0
 10
218.083
 20
51.9493
 30
0.0
 11
218.083
 21
45.9493
 31
0.0
  0
LINE
  8
0
 62
     0
 10
218.083
 20
45.9493
 30
0.0
 11
217.282
 21
45.9493
 31
0.0
  0
LINE
  8
0
 62
     0
 10
217.282
 20
45.9493
 30
0.0
 11
217.282
 21
43.0484
 31
0.0
  0
LINE
  8
0
 62
     0
 10
217.282
 20
43.0484
 30
0.0
 11
218.083
 21
43.0484
 31
0.0
  0
LINE
  8
0
 62
     0
 10
218.083
 20
43.0484
 30
0.0
 11
218.083
 21
42.0493
 31
0.0
  0
LINE
  8
0
 62
     0
 10
218.083
 20
42.0493
 30
0.0
 11
231.883
 21
42.0493
 31
0.0
  0
LINE
  8
0
 62
     0
 10
231.883
 20
42.0493
 30
0.0
 11
231.883
 21
43.0484
 31
0.0
  0
LINE
  8
0
 62
     0
 10
231.883
 20
43.0484
 30
0.0
 11
232.683
 21
43.0484
 31
0.0
  0
LINE
  8
0
 62
     0
 10
232.683
 20
43.0484
 30
0.0
 11
232.683
 21
45.9493
 31
0.0
  0
LINE
  8
0
 62
     0
 10
232.683
 20
45.9493
 30
0.0
 11
231.883
 21
45.9493
 31
0.0
  0
LINE
  8
0
 62
     0
 10
231.883
 20
45.9493
 30
0.0
 11
231.883
 21
51.9493
 31
0.0
  0
LINE
  8
0
 62
     0
 10
231.883
 20
51.9493
 30
0.0
 11
232.683
 21
51.9493
 31
0.0
  0
LINE
  8
0
 62
     0
 10
232.683
 20
51.9493
 30
0.0
 11
232.683
 21
54.8499
 31
0.0
  0
LINE
  8
0
 62
     0
 10
232.683
 20
54.8499
 30
0.0
 11
231.883
 21
54.8499
 31
0.0
  0
LINE
  8
0
 62
     0
 10
231.883
 20
54.8499
 30
0.0
 11
231.883
 21
55.8504
 31
0.0
  0
LINE
  8
0
 62
     0
 10
231.883
 20
55.8504
 30
0.0
 11
218.083
 21
55.8504
 31
0.0
  0
LINE
  8
0
 62
     0
 10
199.033
 20
55.8504
 30
0.0
 11
199.033
 21
54.8499
 31
0.0
  0
LINE
  8
0
 62
     0
 10
199.033
 20
54.8499
 30
0.0
 11
198.232
 21
54.8499
 31
0.0
  0
LINE
  8
0
 62
     0
 10
198.232
 20
54.8499
 30
0.0
 11
198.232
 21
51.9493
 31
0.0
  0
LINE
  8
0
 62
     0
 10
198.232
 20
51.9493
 30
0.0
 11
199.033
 21
51.9493
 31
0.0
  0
LINE
  8
0
 62
     0
 10
199.033
 20
51.9493
 30
0.0
 11
199.033
 21
45.9493
 31
0.0
  0
LINE
  8
0
 62
     0
 10
199.033
 20
45.9493
 30
0.0
 11
198.232
 21
45.9493
 31
0.0
  0
LINE
  8
0
 62
     0
 10
198.232
 20
45.9493
 30
0.0
 11
198.232
 21
43.0484
 31
0.0
  0
LINE
  8
0
 62
     0
 10
198.232
 20
43.0484
 30
0.0
 11
199.033
 21
43.0484
 31
0.0
  0
LINE
  8
0
 62
     0
 10
199.033
 20
43.0484
 30
0.0
 11
199.033
 21
42.0493
 31
0.0
  0
LINE
  8
0
 62
     0
 10
199.033
 20
42.0493
 30
0.0
 11
212.833
 21
42.0493
 31
0.0
  0
LINE
  8
0
 62
     0
 10
212.833
 20
42.0493
 30
0.0
 11
212.833
 21
43.0484
 31
0.0
  0
LINE
  8
0
 62
     0
 10
212.833
 20
43.0484
 30
0.0
 11
213.633
 21
43.0484
 31
0.0
  0
LINE
  8
0
 62
     0
 10
213.633
 20
43.0484
 30
0.0
 11
213.633
 21
45.9493
 31
0.0
  0
LINE
  8
0
 62
     0
 10
213.633
 20
45.9493
 30
0.0
 11
212.833
 21
45.9493
 31
0.0
  0
LINE
  8
0
 62
     0
 10
212.833
 20
45.9493
 30
0.0
 11
212.833
 21
51.9493
 31
0.0
  0
LINE
  8
0
 62
     0
 10
212.833
 20
51.9493
 30
0.0
 11
213.633
 21
51.9493
 31
0.0
  0
LINE
  8
0
 62
     0
 10
213.633
 20
51.9493
 30
0.0
 11
213.633
 21
54.8499
 31
0.0
  0
LINE
  8
0
 62
     0
 10
213.633
 20
54.8499
 30
0.0
 11
212.833
 21
54.8499
 31
0.0
  0
LINE
  8
0
 62
     0
 10
212.833
 20
54.8499
 30
0.0
 11
212.833
 21
55.8504
 31
0.0
  0
LINE
  8
0
 62
     0
 10
212.833
 20
55.8504
 30
0.0
 11
199.033
 21
55.8504
 31
0.0
  0
LINE
  8
0
 62
     0
 10
179.983
 20
55.8504
 30
0.0
 11
179.983
 21
54.8499
 31
0.0
  0
LINE
  8
0
 62
     0
 10
179.983
 20
54.8499
 30
0.0
 11
179.182
 21
54.8499
 31
0.0
  0
LINE
  8
0
 62
     0
 10
179.182
 20
54.8499
 30
0.0
 11
179.182
 21
51.9493
 31
0.0
  0
LINE
  8
0
 62
     0
 10
179.182
 20
51.9493
 30
0.0
 11
179.983
 21
51.9493
 31
0.0
  0
LINE
  8
0
 62
     0
 10
179.983
 20
51.9493
 30
0.0
 11
179.983
 21
45.9493
 31
0.0
  0
LINE
  8
0
 62
     0
 10
179.983
 20
45.9493
 30
0.0
 11
179.182
 21
45.9493
 31
0.0
  0
LINE
  8
0
 62
     0
 10
179.182
 20
45.9493
 30
0.0
 11
179.182
 21
43.0484
 31
0.0
  0
LINE
  8
0
 62
     0
 10
179.182
 20
43.0484
 30
0.0
 11
179.983
 21
43.0484
 31
0.0
  0
LINE
  8
0
 62
     0
 10
179.983
 20
43.0484
 30
0.0
 11
179.983
 21
42.0493
 31
0.0
  0
LINE
  8
0
 62
     0
 10
179.983
 20
42.0493
 30
0.0
 11
193.783
 21
42.0493
 31
0.0
  0
LINE
  8
0
 62
     0
 10
193.783
 20
42.0493
 30
0.0
 11
193.783
 21
43.0484
 31
0.0
  0
LINE
  8
0
 62
     0
 10
193.783
 20
43.0484
 30
0.0
 11
194.583
 21
43.0484
 31
0.0
  0
LINE
  8
0
 62
     0
 10
194.583
 20
43.0484
 30
0.0
 11
194.583
 21
45.9493
 31
0.0
  0
LINE
  8
0
 62
     0
 10
194.583
 20
45.9493
 30
0.0
 11
193.783
 21
45.9493
 31
0.0
  0
LINE
  8
0
 62
     0
 10
193.783
 20
45.9493
 30
0.0
 11
193.783
 21
51.9493
 31
0.0
  0
LINE
  8
0
 62
     0
 10
193.783
 20
51.9493
 30
0.0
 11
194.583
 21
51.9493
 31
0.0
  0
LINE
  8
0
 62
     0
 10
194.583
 20
51.9493
 30
0.0
 11
194.583
 21
54.8499
 31
0.0
  0
LINE
  8
0
 62
     0
 10
194.583
 20
54.8499
 30
0.0
 11
193.783
 21
54.8499
 31
0.0
  0
LINE
  8
0
 62
     0
 10
193.783
 20
54.8499
 30
0.0
 11
193.783
 21
55.8504
 31
0.0
  0
LINE
  8
0
 62
     0
 10
193.783
 20
55.8504
 30
0.0
 11
179.983
 21
55.8504
 31
0.0
  0
LINE
  8
0
 62
     0
 10
160.933
 20
55.8504
 30
0.0
 11
160.933
 21
54.8499
 31
0.0
  0
LINE
  8
0
 62
     0
 10
160.933
 20
54.8499
 30
0.0
 11
160.132
 21
54.8499
 31
0.0
  0
LINE
  8
0
 62
     0
 10
160.132
 20
54.8499
 30
0.0
 11
160.132
 21
51.9493
 31
0.0
  0
LINE
  8
0
 62
     0
 10
160.132
 20
51.9493
 30
0.0
 11
160.933
 21
51.9493
 31
0.0
  0
LINE
  8
0
 62
     0
 10
160.933
 20
51.9493
 30
0.0
 11
160.933
 21
45.9493
 31
0.0
  0
LINE
  8
0
 62
     0
 10
160.933
 20
45.9493
 30
0.0
 11
160.132
 21
45.9493
 31
0.0
  0
LINE
  8
0
 62
     0
 10
160.132
 20
45.9493
 30
0.0
 11
160.132
 21
43.0484
 31
0.0
  0
LINE
  8
0
 62
     0
 10
160.132
 20
43.0484
 30
0.0
 11
160.933
 21
43.0484
 31
0.0
  0
LINE
  8
0
 62
     0
 10
160.933
 20
43.0484
 30
0.0
 11
160.933
 21
42.0493
 31
0.0
  0
LINE
  8
0
 62
     0
 10
160.933
 20
42.0493
 30
0.0
 11
174.733
 21
42.0493
 31
0.0
  0
LINE
  8
0
 62
     0
 10
174.733
 20
42.0493
 30
0.0
 11
174.733
 21
43.0484
 31
0.0
  0
LINE
  8
0
 62
     0
 10
174.733
 20
43.0484
 30
0.0
 11
175.533
 21
43.0484
 31
0.0
  0
LINE
  8
0
 62
     0
 10
175.533
 20
43.0484
 30
0.0
 11
175.533
 21
45.9493
 31
0.0
  0
LINE
  8
0
 62
     0
 10
175.533
 20
45.9493
 30
0.0
 11
174.733
 21
45.9493
 31
0.0
  0
LINE
  8
0
 62
     0
 10
174.733
 20
45.9493
 30
0.0
 11
174.733
 21
51.9493
 31
0.0
  0
LINE
  8
0
 62
     0
 10
174.733
 20
51.9493
 30
0.0
 11
175.533
 21
51.9493
 31
0.0
  0
LINE
  8
0
 62
     0
 10
175.533
 20
51.9493
 30
0.0
 11
175.533
 21
54.8499
 31
0.0
  0
LINE
  8
0
 62
     0
 10
175.533
 20
54.8499
 30
0.0
 11
174.733
 21
54.8499
 31
0.0
  0
LINE
  8
0
 62
     0
 10
174.733
 20
54.8499
 30
0.0
 11
174.733
 21
55.8504
 31
0.0
  0
LINE
  8
0
 62
     0
 10
174.733
 20
55.8504
 30
0.0
 11
160.933
 21
55.8504
 31
0.0
  0
LINE
  8
0
 62
     0
 10
141.883
 20
55.8504
 30
0.0
 11
141.883
 21
54.8499
 31
0.0
  0
LINE
  8
0
 62
     0
 10
141.883
 20
54.8499
 30
0.0
 11
141.082
 21
54.8499
 31
0.0
  0
LINE
  8
0
 62
     0
 10
141.082
 20
54.8499
 30
0.0
 11
141.082
 21
51.9493
 31
0.0
  0
LINE
  8
0
 62
     0
 10
141.082
 20
51.9493
 30
0.0
 11
141.883
 21
51.9493
 31
0.0
  0
LINE
  8
0
 62
     0
 10
141.883
 20
51.9493
 30
0.0
 11
141.883
 21
45.9493
 31
0.0
  0
LINE
  8
0
 62
     0
 10
141.883
 20
45.9493
 30
0.0
 11
141.082
 21
45.9493
 31
0.0
  0
LINE
  8
0
 62
     0
 10
141.082
 20
45.9493
 30
0.0
 11
141.082
 21
43.0484
 31
0.0
  0
LINE
  8
0
 62
     0
 10
141.082
 20
43.0484
 30
0.0
 11
141.883
 21
43.0484
 31
0.0
  0
LINE
  8
0
 62
     0
 10
141.883
 20
43.0484
 30
0.0
 11
141.883
 21
42.0493
 31
0.0
  0
LINE
  8
0
 62
     0
 10
141.883
 20
42.0493
 30
0.0
 11
155.683
 21
42.0493
 31
0.0
  0
LINE
  8
0
 62
     0
 10
155.683
 20
42.0493
 30
0.0
 11
155.683
 21
43.0484
 31
0.0
  0
LINE
  8
0
 62
     0
 10
155.683
 20
43.0484
 30
0.0
 11
156.483
 21
43.0484
 31
0.0
  0
LINE
  8
0
 62
     0
 10
156.483
 20
43.0484
 30
0.0
 11
156.483
 21
45.9493
 31
0.0
  0
LINE
  8
0
 62
     0
 10
156.483
 20
45.9493
 30
0.0
 11
155.683
 21
45.9493
 31
0.0
  0
LINE
  8
0
 62
     0
 10
155.683
 20
45.9493
 30
0.0
 11
155.683
 21
51.9493
 31
0.0
  0
LINE
  8
0
 62
     0
 10
155.683
 20
51.9493
 30
0.0
 11
156.483
 21
51.9493
 31
0.0
  0
LINE
  8
0
 62
     0
 10
156.483
 20
51.9493
 30
0.0
 11
156.483
 21
54.8499
 31
0.0
  0
LINE
  8
0
 62
     0
 10
156.483
 20
54.8499
 30
0.0
 11
155.683
 21
54.8499
 31
0.0
  0
LINE
  8
0
 62
     0
 10
155.683
 20
54.8499
 30
0.0
 11
155.683
 21
55.8504
 31
0.0
  0
LINE
  8
0
 62
     0
 10
155.683
 20
55.8504
 30
0.0
 11
141.883
 21
55.8504
 31
0.0
  0
LINE
  8
0
 62
     0
 10
122.833
 20
55.8504
 30
0.0
 11
122.833
 21
54.8499
 31
0.0
  0
LINE
  8
0
 62
     0
 10
122.833
 20
54.8499
 30
0.0
 11
122.032
 21
54.8499
 31
0.0
  0
LINE
  8
0
 62
     0
 10
122.032
 20
54.8499
 30
0.0
 11
122.032
 21
51.9493
 31
0.0
  0
LINE
  8
0
 62
     0
 10
122.032
 20
51.9493
 30
0.0
 11
122.833
 21
51.9493
 31
0.0
  0
LINE
  8
0
 62
     0
 10
122.833
 20
51.9493
 30
0.0
 11
122.833
 21
45.9493
 31
0.0
  0
LINE
  8
0
 62
     0
 10
122.833
 20
45.9493
 30
0.0
 11
122.032
 21
45.9493
 31
0.0
  0
LINE
  8
0
 62
     0
 10
122.032
 20
45.9493
 30
0.0
 11
122.032
 21
43.0484
 31
0.0
  0
LINE
  8
0
 62
     0
 10
122.032
 20
43.0484
 30
0.0
 11
122.833
 21
43.0484
 31
0.0
  0
LINE
  8
0
 62
     0
 10
122.833
 20
43.0484
 30
0.0
 11
122.833
 21
42.0493
 31
0.0
  0
LINE
  8
0
 62
     0
 10
122.833
 20
42.0493
 30
0.0
 11
136.633
 21
42.0493
 31
0.0
  0
LINE
  8
0
 62
     0
 10
136.633
 20
42.0493
 30
0.0
 11
136.633
 21
43.0484
 31
0.0
  0
LINE
  8
0
 62
     0
 10
136.633
 20
43.0484
 30
0.0
 11
137.433
 21
43.0484
 31
0.0
  0
LINE
  8
0
 62
     0
 10
137.433
 20
43.0484
 30
0.0
 11
137.433
 21
45.9493
 31
0.0
  0
LINE
  8
0
 62
     0
 10
137.433
 20
45.9493
 30
0.0
 11
136.633
 21
45.9493
 31
0.0
  0
LINE
  8
0
 62
     0
 10
136.633
 20
45.9493
 30
0.0
 11
136.633
 21
51.9493
 31
0.0
  0
LINE
  8
0
 62
     0
 10
136.633
 20
51.9493
 30
0.0
 11
137.433
 21
51.9493
 31
0.0
  0
LINE
  8
0
 62
     0
 10
137.433
 20
51.9493
 30
0.0
 11
137.433
 21
54.8499
 31
0.0
  0
LINE
  8
0
 62
     0
 10
137.433
 20
54.8499
 30
0.0
 11
136.633
 21
54.8499
 31
0.0
  0
LINE
  8
0
 62
     0
 10
136.633
 20
54.8499
 30
0.0
 11
136.633
 21
55.8504
 31
0.0
  0
LINE
  8
0
 62
     0
 10
136.633
 20
55.8504
 30
0.0
 11
122.833
 21
55.8504
 31
0.0
  0
LINE
  8
0
 62
     0
 10
103.783
 20
55.8504
 30
0.0
 11
103.783
 21
54.8499
 31
0.0
  0
LINE
  8
0
 62
     0
 10
103.783
 20
54.8499
 30
0.0
 11
102.982
 21
54.8499
 31
0.0
  0
LINE
  8
0
 62
     0
 10
102.982
 20
54.8499
 30
0.0
 11
102.982
 21
51.9493
 31
0.0
  0
LINE
  8
0
 62
     0
 10
102.982
 20
51.9493
 30
0.0
 11
103.783
 21
51.9493
 31
0.0
  0
LINE
  8
0
 62
     0
 10
103.783
 20
51.9493
 30
0.0
 11
103.783
 21
45.9493
 31
0.0
  0
LINE
  8
0
 62
     0
 10
103.783
 20
45.9493
 30
0.0
 11
102.982
 21
45.9493
 31
0.0
  0
LINE
  8
0
 62
     0
 10
102.982
 20
45.9493
 30
0.0
 11
102.982
 21
43.0484
 31
0.0
  0
LINE
  8
0
 62
     0
 10
102.982
 20
43.0484
 30
0.0
 11
103.783
 21
43.0484
 31
0.0
  0
LINE
  8
0
 62
     0
 10
103.783
 20
43.0484
 30
0.0
 11
103.783
 21
42.0493
 31
0.0
  0
LINE
  8
0
 62
     0
 10
103.783
 20
42.0493
 30
0.0
 11
117.583
 21
42.0493
 31
0.0
  0
LINE
  8
0
 62
     0
 10
117.583
 20
42.0493
 30
0.0
 11
117.583
 21
43.0484
 31
0.0
  0
LINE
  8
0
 62
     0
 10
117.583
 20
43.0484
 30
0.0
 11
118.383
 21
43.0484
 31
0.0
  0
LINE
  8
0
 62
     0
 10
118.383
 20
43.0484
 30
0.0
 11
118.383
 21
45.9493
 31
0.0
  0
LINE
  8
0
 62
     0
 10
118.383
 20
45.9493
 30
0.0
 11
117.583
 21
45.9493
 31
0.0
  0
LINE
  8
0
 62
     0
 10
117.583
 20
45.9493
 30
0.0
 11
117.583
 21
51.9493
 31
0.0
  0
LINE
  8
0
 62
     0
 10
117.583
 20
51.9493
 30
0.0
 11
118.383
 21
51.9493
 31
0.0
  0
LINE
  8
0
 62
     0
 10
118.383
 20
51.9493
 30
0.0
 11
118.383
 21
54.8499
 31
0.0
  0
LINE
  8
0
 62
     0
 10
118.383
 20
54.8499
 30
0.0
 11
117.583
 21
54.8499
 31
0.0
  0
LINE
  8
0
 62
     0
 10
117.583
 20
54.8499
 30
0.0
 11
117.583
 21
55.8504
 31
0.0
  0
LINE
  8
0
 62
     0
 10
117.583
 20
55.8504
 30
0.0
 11
103.783
 21
55.8504
 31
0.0
  0
LINE
  8
0
 62
     0
 10
84.733
 20
55.8504
 30
0.0
 11
84.733
 21
54.8499
 31
0.0
  0
LINE
  8
0
 62
     0
 10
84.733
 20
54.8499
 30
0.0
 11
83.9322
 21
54.8499
 31
0.0
  0
LINE
  8
0
 62
     0
 10
83.9322
 20
54.8499
 30
0.0
 11
83.9322
 21
51.9493
 31
0.0
  0
LINE
  8
0
 62
     0
 10
83.9322
 20
51.9493
 30
0.0
 11
84.733
 21
51.9493
 31
0.0
  0
LINE
  8
0
 62
     0
 10
84.733
 20
51.9493
 30
0.0
 11
84.733
 21
45.9493
 31
0.0
  0
LINE
  8
0
 62
     0
 10
84.733
 20
45.9493
 30
0.0
 11
83.9322
 21
45.9493
 31
0.0
  0
LINE
  8
0
 62
     0
 10
83.9322
 20
45.9493
 30
0.0
 11
83.9322
 21
43.0484
 31
0.0
  0
LINE
  8
0
 62
     0
 10
83.9322
 20
43.0484
 30
0.0
 11
84.733
 21
43.0484
 31
0.0
  0
LINE
  8
0
 62
     0
 10
84.733
 20
43.0484
 30
0.0
 11
84.733
 21
42.0493
 31
0.0
  0
LINE
  8
0
 62
     0
 10
84.733
 20
42.0493
 30
0.0
 11
98.5326
 21
42.0493
 31
0.0
  0
LINE
  8
0
 62
     0
 10
98.5326
 20
42.0493
 30
0.0
 11
98.5326
 21
43.0484
 31
0.0
  0
LINE
  8
0
 62
     0
 10
98.5326
 20
43.0484
 30
0.0
 11
99.3331
 21
43.0484
 31
0.0
  0
LINE
  8
0
 62
     0
 10
99.3331
 20
43.0484
 30
0.0
 11
99.3331
 21
45.9493
 31
0.0
  0
LINE
  8
0
 62
     0
 10
99.3331
 20
45.9493
 30
0.0
 11
98.5326
 21
45.9493
 31
0.0
  0
LINE
  8
0
 62
     0
 10
98.5326
 20
45.9493
 30
0.0
 11
98.5326
 21
51.9493
 31
0.0
  0
LINE
  8
0
 62
     0
 10
98.5326
 20
51.9493
 30
0.0
 11
99.3331
 21
51.9493
 31
0.0
  0
LINE
  8
0
 62
     0
 10
99.3331
 20
51.9493
 30
0.0
 11
99.3331
 21
54.8499
 31
0.0
  0
LINE
  8
0
 62
     0
 10
99.3331
 20
54.8499
 30
0.0
 11
98.5326
 21
54.8499
 31
0.0
  0
LINE
  8
0
 62
     0
 10
98.5326
 20
54.8499
 30
0.0
 11
98.5326
 21
55.8504
 31
0.0
  0
LINE
  8
0
 62
     0
 10
98.5326
 20
55.8504
 30
0.0
 11
84.733
 21
55.8504
 31
0.0
  0
LINE
  8
0
 62
     0
 10
65.683
 20
55.8504
 30
0.0
 11
65.683
 21
54.8499
 31
0.0
  0
LINE
  8
0
 62
     0
 10
65.683
 20
54.8499
 30
0.0
 11
64.8822
 21
54.8499
 31
0.0
  0
LINE
  8
0
 62
     0
 10
64.8822
 20
54.8499
 30
0.0
 11
64.8822
 21
51.9493
 31
0.0
  0
LINE
  8
0
 62
     0
 10
64.8822
 20
51.9493
 30
0.0
 11
65.683
 21
51.9493
 31
0.0
  0
LINE
  8
0
 62
     0
 10
65.683
 20
51.9493
 30
0.0
 11
65.683
 21
45.9493
 31
0.0
  0
LINE
  8
0
 62
     0
 10
65.683
 20
45.9493
 30
0.0
 11
64.8822
 21
45.9493
 31
0.0
  0
LINE
  8
0
 62
     0
 10
64.8822
 20
45.9493
 30
0.0
 11
64.8822
 21
43.0484
 31
0.0
  0
LINE
  8
0
 62
     0
 10
64.8822
 20
43.0484
 30
0.0
 11
65.683
 21
43.0484
 31
0.0
  0
LINE
  8
0
 62
     0
 10
65.683
 20
43.0484
 30
0.0
 11
65.683
 21
42.0493
 31
0.0
  0
LINE
  8
0
 62
     0
 10
65.683
 20
42.0493
 30
0.0
 11
79.4826
 21
42.0493
 31
0.0
  0
LINE
  8
0
 62
     0
 10
79.4826
 20
42.0493
 30
0.0
 11
79.4826
 21
43.0484
 31
0.0
  0
LINE
  8
0
 62
     0
 10
79.4826
 20
43.0484
 30
0.0
 11
80.2831
 21
43.0484
 31
0.0
  0
LINE
  8
0
 62
     0
 10
80.2831
 20
43.0484
 30
0.0
 11
80.2831
 21
45.9493
 31
0.0
  0
LINE
  8
0
 62
     0
 10
80.2831
 20
45.9493
 30
0.0
 11
79.4826
 21
45.9493
 31
0.0
  0
LINE
  8
0
 62
     0
 10
79.4826
 20
45.9493
 30
0.0
 11
79.4826
 21
51.9493
 31
0.0
  0
LINE
  8
0
 62
     0
 10
79.4826
 20
51.9493
 30
0.0
 11
80.2831
 21
51.9493
 31
0.0
  0
LINE
  8
0
 62
     0
 10
80.2831
 20
51.9493
 30
0.0
 11
80.2831
 21
54.8499
 31
0.0
  0
LINE
  8
0
 62
     0
 10
80.2831
 20
54.8499
 30
0.0
 11
79.4826
 21
54.8499
 31
0.0
  0
LINE
  8
0
 62
     0
 10
79.4826
 20
54.8499
 30
0.0
 11
79.4826
 21
55.8504
 31
0.0
  0
LINE
  8
0
 62
     0
 10
79.4826
 20
55.8504
 30
0.0
 11
65.683
 21
55.8504
 31
0.0
  0
LINE
  8
0
 62
     0
 10
277.614
 20
74.9004
 30
0.0
 11
277.614
 21
73.8999
 31
0.0
  0
LINE
  8
0
 62
     0
 10
277.614
 20
73.8999
 30
0.0
 11
276.813
 21
73.8999
 31
0.0
  0
LINE
  8
0
 62
     0
 10
276.813
 20
73.8999
 30
0.0
 11
276.813
 21
70.9993
 31
0.0
  0
LINE
  8
0
 62
     0
 10
276.813
 20
70.9993
 30
0.0
 11
277.614
 21
70.9993
 31
0.0
  0
LINE
  8
0
 62
     0
 10
277.614
 20
70.9993
 30
0.0
 11
277.614
 21
70.1985
 31
0.0
  0
LINE
  8
0
 62
     0
 10
277.614
 20
70.1985
 30
0.0
 11
275.889
 21
70.1985
 31
0.0
  0
LINE
  8
0
 62
     0
 10
275.889
 20
70.1985
 30
0.0
 11
275.889
 21
73.43
 31
0.0
  0
LINE
  8
0
 62
     0
 10
275.889
 20
73.43
 30
0.0
 11
269.339
 21
73.43
 31
0.0
  0
LINE
  8
0
 62
     0
 10
269.339
 20
73.43
 30
0.0
 11
269.339
 21
70.1985
 31
0.0
  0
LINE
  8
0
 62
     0
 10
269.339
 20
70.1985
 30
0.0
 11
268.514
 21
70.1985
 31
0.0
  0
LINE
  8
0
 62
     0
 10
268.514
 20
70.1985
 30
0.0
 11
268.514
 21
67.5982
 31
0.0
  0
LINE
  8
0
 62
     0
 10
268.514
 20
67.5982
 30
0.0
 11
269.339
 21
67.5982
 31
0.0
  0
LINE
  8
0
 62
     0
 10
269.339
 20
67.5982
 30
0.0
 11
269.339
 21
61.3297
 31
0.0
  0
LINE
  8
0
 62
     0
 10
269.339
 20
61.3297
 30
0.0
 11
271.063
 21
61.3297
 31
0.0
  0
LINE
  8
0
 62
     0
 10
271.063
 20
61.3297
 30
0.0
 11
271.063
 21
60.1292
 31
0.0
  0
LINE
  8
0
 62
     0
 10
271.063
 20
60.1292
 30
0.0
 11
274.163
 21
60.1292
 31
0.0
  0
LINE
  8
0
 62
     0
 10
274.163
 20
60.1292
 30
0.0
 11
274.163
 21
61.3297
 31
0.0
  0
LINE
  8
0
 62
     0
 10
274.163
 20
61.3297
 30
0.0
 11
275.889
 21
61.3297
 31
0.0
  0
LINE
  8
0
 62
     0
 10
275.889
 20
61.3297
 30
0.0
 11
275.889
 21
65.7987
 31
0.0
  0
LINE
  8
0
 62
     0
 10
275.889
 20
65.7987
 30
0.0
 11
277.614
 21
65.7987
 31
0.0
  0
LINE
  8
0
 62
     0
 10
277.614
 20
65.7987
 30
0.0
 11
277.614
 21
64.9993
 31
0.0
  0
LINE
  8
0
 62
     0
 10
277.614
 20
64.9993
 30
0.0
 11
276.813
 21
64.9993
 31
0.0
  0
LINE
  8
0
 62
     0
 10
276.813
 20
64.9993
 30
0.0
 11
276.813
 21
62.0984
 31
0.0
  0
LINE
  8
0
 62
     0
 10
276.813
 20
62.0984
 30
0.0
 11
277.614
 21
62.0984
 31
0.0
  0
LINE
  8
0
 62
     0
 10
277.614
 20
62.0984
 30
0.0
 11
277.614
 21
61.0994
 31
0.0
  0
LINE
  8
0
 62
     0
 10
277.614
 20
61.0994
 30
0.0
 11
291.414
 21
61.0994
 31
0.0
  0
LINE
  8
0
 62
     0
 10
291.414
 20
61.0994
 30
0.0
 11
291.414
 21
62.0984
 31
0.0
  0
LINE
  8
0
 62
     0
 10
291.414
 20
62.0984
 30
0.0
 11
292.213
 21
62.0984
 31
0.0
  0
LINE
  8
0
 62
     0
 10
292.213
 20
62.0984
 30
0.0
 11
292.213
 21
64.9993
 31
0.0
  0
LINE
  8
0
 62
     0
 10
292.213
 20
64.9993
 30
0.0
 11
291.414
 21
64.9993
 31
0.0
  0
LINE
  8
0
 62
     0
 10
291.414
 20
64.9993
 30
0.0
 11
291.414
 21
65.7987
 31
0.0
  0
LINE
  8
0
 62
     0
 10
291.414
 20
65.7987
 30
0.0
 11
293.139
 21
65.7987
 31
0.0
  0
LINE
  8
0
 62
     0
 10
293.139
 20
65.7987
 30
0.0
 11
293.139
 21
61.3297
 31
0.0
  0
LINE
  8
0
 62
     0
 10
293.139
 20
61.3297
 30
0.0
 11
294.863
 21
61.3297
 31
0.0
  0
LINE
  8
0
 62
     0
 10
294.863
 20
61.3297
 30
0.0
 11
294.863
 21
60.1292
 31
0.0
  0
LINE
  8
0
 62
     0
 10
294.863
 20
60.1292
 30
0.0
 11
297.964
 21
60.1292
 31
0.0
  0
LINE
  8
0
 62
     0
 10
297.964
 20
60.1292
 30
0.0
 11
297.964
 21
61.3297
 31
0.0
  0
LINE
  8
0
 62
     0
 10
297.964
 20
61.3297
 30
0.0
 11
299.689
 21
61.3297
 31
0.0
  0
LINE
  8
0
 62
     0
 10
299.689
 20
61.3297
 30
0.0
 11
299.689
 21
67.5982
 31
0.0
  0
LINE
  8
0
 62
     0
 10
299.689
 20
67.5982
 30
0.0
 11
300.513
 21
67.5982
 31
0.0
  0
LINE
  8
0
 62
     0
 10
300.513
 20
67.5982
 30
0.0
 11
300.513
 21
70.1985
 31
0.0
  0
LINE
  8
0
 62
     0
 10
300.513
 20
70.1985
 30
0.0
 11
299.689
 21
70.1985
 31
0.0
  0
LINE
  8
0
 62
     0
 10
299.689
 20
70.1985
 30
0.0
 11
299.689
 21
73.43
 31
0.0
  0
LINE
  8
0
 62
     0
 10
299.689
 20
73.43
 30
0.0
 11
293.139
 21
73.43
 31
0.0
  0
LINE
  8
0
 62
     0
 10
293.139
 20
73.43
 30
0.0
 11
293.139
 21
70.1985
 31
0.0
  0
LINE
  8
0
 62
     0
 10
293.139
 20
70.1985
 30
0.0
 11
291.414
 21
70.1985
 31
0.0
  0
LINE
  8
0
 62
     0
 10
291.414
 20
70.1985
 30
0.0
 11
291.414
 21
70.9993
 31
0.0
  0
LINE
  8
0
 62
     0
 10
291.414
 20
70.9993
 30
0.0
 11
292.213
 21
70.9993
 31
0.0
  0
LINE
  8
0
 62
     0
 10
292.213
 20
70.9993
 30
0.0
 11
292.213
 21
73.8999
 31
0.0
  0
LINE
  8
0
 62
     0
 10
292.213
 20
73.8999
 30
0.0
 11
291.414
 21
73.8999
 31
0.0
  0
LINE
  8
0
 62
     0
 10
291.414
 20
73.8999
 30
0.0
 11
291.414
 21
74.9004
 31
0.0
  0
LINE
  8
0
 62
     0
 10
291.414
 20
74.9004
 30
0.0
 11
277.614
 21
74.9004
 31
0.0
  0
LINE
  8
0
 62
     0
 10
246.658
 20
74.9004
 30
0.0
 11
246.658
 21
73.8999
 31
0.0
  0
LINE
  8
0
 62
     0
 10
246.658
 20
73.8999
 30
0.0
 11
245.857
 21
73.8999
 31
0.0
  0
LINE
  8
0
 62
     0
 10
245.857
 20
73.8999
 30
0.0
 11
245.857
 21
70.9993
 31
0.0
  0
LINE
  8
0
 62
     0
 10
245.857
 20
70.9993
 30
0.0
 11
246.658
 21
70.9993
 31
0.0
  0
LINE
  8
0
 62
     0
 10
246.658
 20
70.9993
 30
0.0
 11
246.658
 21
64.9993
 31
0.0
  0
LINE
  8
0
 62
     0
 10
246.658
 20
64.9993
 30
0.0
 11
245.857
 21
64.9993
 31
0.0
  0
LINE
  8
0
 62
     0
 10
245.857
 20
64.9993
 30
0.0
 11
245.857
 21
62.0984
 31
0.0
  0
LINE
  8
0
 62
     0
 10
245.857
 20
62.0984
 30
0.0
 11
246.658
 21
62.0984
 31
0.0
  0
LINE
  8
0
 62
     0
 10
246.658
 20
62.0984
 30
0.0
 11
246.658
 21
61.0994
 31
0.0
  0
LINE
  8
0
 62
     0
 10
246.658
 20
61.0994
 30
0.0
 11
260.458
 21
61.0994
 31
0.0
  0
LINE
  8
0
 62
     0
 10
260.458
 20
61.0994
 30
0.0
 11
260.458
 21
62.0984
 31
0.0
  0
LINE
  8
0
 62
     0
 10
260.458
 20
62.0984
 30
0.0
 11
261.258
 21
62.0984
 31
0.0
  0
LINE
  8
0
 62
     0
 10
261.258
 20
62.0984
 30
0.0
 11
261.258
 21
64.9993
 31
0.0
  0
LINE
  8
0
 62
     0
 10
261.258
 20
64.9993
 30
0.0
 11
260.458
 21
64.9993
 31
0.0
  0
LINE
  8
0
 62
     0
 10
260.458
 20
64.9993
 30
0.0
 11
260.458
 21
70.9993
 31
0.0
  0
LINE
  8
0
 62
     0
 10
260.458
 20
70.9993
 30
0.0
 11
261.258
 21
70.9993
 31
0.0
  0
LINE
  8
0
 62
     0
 10
261.258
 20
70.9993
 30
0.0
 11
261.258
 21
73.8999
 31
0.0
  0
LINE
  8
0
 62
     0
 10
261.258
 20
73.8999
 30
0.0
 11
260.458
 21
73.8999
 31
0.0
  0
LINE
  8
0
 62
     0
 10
260.458
 20
73.8999
 30
0.0
 11
260.458
 21
74.9004
 31
0.0
  0
LINE
  8
0
 62
     0
 10
260.458
 20
74.9004
 30
0.0
 11
246.658
 21
74.9004
 31
0.0
  0
LINE
  8
0
 62
     0
 10
227.608
 20
74.9004
 30
0.0
 11
227.608
 21
73.8999
 31
0.0
  0
LINE
  8
0
 62
     0
 10
227.608
 20
73.8999
 30
0.0
 11
226.807
 21
73.8999
 31
0.0
  0
LINE
  8
0
 62
     0
 10
226.807
 20
73.8999
 30
0.0
 11
226.807
 21
70.9993
 31
0.0
  0
LINE
  8
0
 62
     0
 10
226.807
 20
70.9993
 30
0.0
 11
227.608
 21
70.9993
 31
0.0
  0
LINE
  8
0
 62
     0
 10
227.608
 20
70.9993
 30
0.0
 11
227.608
 21
64.9993
 31
0.0
  0
LINE
  8
0
 62
     0
 10
227.608
 20
64.9993
 30
0.0
 11
226.807
 21
64.9993
 31
0.0
  0
LINE
  8
0
 62
     0
 10
226.807
 20
64.9993
 30
0.0
 11
226.807
 21
62.0984
 31
0.0
  0
LINE
  8
0
 62
     0
 10
226.807
 20
62.0984
 30
0.0
 11
227.608
 21
62.0984
 31
0.0
  0
LINE
  8
0
 62
     0
 10
227.608
 20
62.0984
 30
0.0
 11
227.608
 21
61.0994
 31
0.0
  0
LINE
  8
0
 62
     0
 10
227.608
 20
61.0994
 30
0.0
 11
241.408
 21
61.0994
 31
0.0
  0
LINE
  8
0
 62
     0
 10
241.408
 20
61.0994
 30
0.0
 11
241.408
 21
62.0984
 31
0.0
  0
LINE
  8
0
 62
     0
 10
241.408
 20
62.0984
 30
0.0
 11
242.208
 21
62.0984
 31
0.0
  0
LINE
  8
0
 62
     0
 10
242.208
 20
62.0984
 30
0.0
 11
242.208
 21
64.9993
 31
0.0
  0
LINE
  8
0
 62
     0
 10
242.208
 20
64.9993
 30
0.0
 11
241.408
 21
64.9993
 31
0.0
  0
LINE
  8
0
 62
     0
 10
241.408
 20
64.9993
 30
0.0
 11
241.408
 21
70.9993
 31
0.0
  0
LINE
  8
0
 62
     0
 10
241.408
 20
70.9993
 30
0.0
 11
242.208
 21
70.9993
 31
0.0
  0
LINE
  8
0
 62
     0
 10
242.208
 20
70.9993
 30
0.0
 11
242.208
 21
73.8999
 31
0.0
  0
LINE
  8
0
 62
     0
 10
242.208
 20
73.8999
 30
0.0
 11
241.408
 21
73.8999
 31
0.0
  0
LINE
  8
0
 62
     0
 10
241.408
 20
73.8999
 30
0.0
 11
241.408
 21
74.9004
 31
0.0
  0
LINE
  8
0
 62
     0
 10
241.408
 20
74.9004
 30
0.0
 11
227.608
 21
74.9004
 31
0.0
  0
LINE
  8
0
 62
     0
 10
208.558
 20
74.9004
 30
0.0
 11
208.558
 21
73.8999
 31
0.0
  0
LINE
  8
0
 62
     0
 10
208.558
 20
73.8999
 30
0.0
 11
207.757
 21
73.8999
 31
0.0
  0
LINE
  8
0
 62
     0
 10
207.757
 20
73.8999
 30
0.0
 11
207.757
 21
70.9993
 31
0.0
  0
LINE
  8
0
 62
     0
 10
207.757
 20
70.9993
 30
0.0
 11
208.558
 21
70.9993
 31
0.0
  0
LINE
  8
0
 62
     0
 10
208.558
 20
70.9993
 30
0.0
 11
208.558
 21
64.9993
 31
0.0
  0
LINE
  8
0
 62
     0
 10
208.558
 20
64.9993
 30
0.0
 11
207.757
 21
64.9993
 31
0.0
  0
LINE
  8
0
 62
     0
 10
207.757
 20
64.9993
 30
0.0
 11
207.757
 21
62.0984
 31
0.0
  0
LINE
  8
0
 62
     0
 10
207.757
 20
62.0984
 30
0.0
 11
208.558
 21
62.0984
 31
0.0
  0
LINE
  8
0
 62
     0
 10
208.558
 20
62.0984
 30
0.0
 11
208.558
 21
61.0994
 31
0.0
  0
LINE
  8
0
 62
     0
 10
208.558
 20
61.0994
 30
0.0
 11
222.358
 21
61.0994
 31
0.0
  0
LINE
  8
0
 62
     0
 10
222.358
 20
61.0994
 30
0.0
 11
222.358
 21
62.0984
 31
0.0
  0
LINE
  8
0
 62
     0
 10
222.358
 20
62.0984
 30
0.0
 11
223.158
 21
62.0984
 31
0.0
  0
LINE
  8
0
 62
     0
 10
223.158
 20
62.0984
 30
0.0
 11
223.158
 21
64.9993
 31
0.0
  0
LINE
  8
0
 62
     0
 10
223.158
 20
64.9993
 30
0.0
 11
222.358
 21
64.9993
 31
0.0
  0
LINE
  8
0
 62
     0
 10
222.358
 20
64.9993
 30
0.0
 11
222.358
 21
70.9993
 31
0.0
  0
LINE
  8
0
 62
     0
 10
222.358
 20
70.9993
 30
0.0
 11
223.158
 21
70.9993
 31
0.0
  0
LINE
  8
0
 62
     0
 10
223.158
 20
70.9993
 30
0.0
 11
223.158
 21
73.8999
 31
0.0
  0
LINE
  8
0
 62
     0
 10
223.158
 20
73.8999
 30
0.0
 11
222.358
 21
73.8999
 31
0.0
  0
LINE
  8
0
 62
     0
 10
222.358
 20
73.8999
 30
0.0
 11
222.358
 21
74.9004
 31
0.0
  0
LINE
  8
0
 62
     0
 10
222.358
 20
74.9004
 30
0.0
 11
208.558
 21
74.9004
 31
0.0
  0
LINE
  8
0
 62
     0
 10
189.508
 20
74.9004
 30
0.0
 11
189.508
 21
73.8999
 31
0.0
  0
LINE
  8
0
 62
     0
 10
189.508
 20
73.8999
 30
0.0
 11
188.707
 21
73.8999
 31
0.0
  0
LINE
  8
0
 62
     0
 10
188.707
 20
73.8999
 30
0.0
 11
188.707
 21
70.9993
 31
0.0
  0
LINE
  8
0
 62
     0
 10
188.707
 20
70.9993
 30
0.0
 11
189.508
 21
70.9993
 31
0.0
  0
LINE
  8
0
 62
     0
 10
189.508
 20
70.9993
 30
0.0
 11
189.508
 21
64.9993
 31
0.0
  0
LINE
  8
0
 62
     0
 10
189.508
 20
64.9993
 30
0.0
 11
188.707
 21
64.9993
 31
0.0
  0
LINE
  8
0
 62
     0
 10
188.707
 20
64.9993
 30
0.0
 11
188.707
 21
62.0984
 31
0.0
  0
LINE
  8
0
 62
     0
 10
188.707
 20
62.0984
 30
0.0
 11
189.508
 21
62.0984
 31
0.0
  0
LINE
  8
0
 62
     0
 10
189.508
 20
62.0984
 30
0.0
 11
189.508
 21
61.0994
 31
0.0
  0
LINE
  8
0
 62
     0
 10
189.508
 20
61.0994
 30
0.0
 11
203.308
 21
61.0994
 31
0.0
  0
LINE
  8
0
 62
     0
 10
203.308
 20
61.0994
 30
0.0
 11
203.308
 21
62.0984
 31
0.0
  0
LINE
  8
0
 62
     0
 10
203.308
 20
62.0984
 30
0.0
 11
204.108
 21
62.0984
 31
0.0
  0
LINE
  8
0
 62
     0
 10
204.108
 20
62.0984
 30
0.0
 11
204.108
 21
64.9993
 31
0.0
  0
LINE
  8
0
 62
     0
 10
204.108
 20
64.9993
 30
0.0
 11
203.308
 21
64.9993
 31
0.0
  0
LINE
  8
0
 62
     0
 10
203.308
 20
64.9993
 30
0.0
 11
203.308
 21
70.9993
 31
0.0
  0
LINE
  8
0
 62
     0
 10
203.308
 20
70.9993
 30
0.0
 11
204.108
 21
70.9993
 31
0.0
  0
LINE
  8
0
 62
     0
 10
204.108
 20
70.9993
 30
0.0
 11
204.108
 21
73.8999
 31
0.0
  0
LINE
  8
0
 62
     0
 10
204.108
 20
73.8999
 30
0.0
 11
203.308
 21
73.8999
 31
0.0
  0
LINE
  8
0
 62
     0
 10
203.308
 20
73.8999
 30
0.0
 11
203.308
 21
74.9004
 31
0.0
  0
LINE
  8
0
 62
     0
 10
203.308
 20
74.9004
 30
0.0
 11
189.508
 21
74.9004
 31
0.0
  0
LINE
  8
0
 62
     0
 10
170.458
 20
74.9004
 30
0.0
 11
170.458
 21
73.8999
 31
0.0
  0
LINE
  8
0
 62
     0
 10
170.458
 20
73.8999
 30
0.0
 11
169.657
 21
73.8999
 31
0.0
  0
LINE
  8
0
 62
     0
 10
169.657
 20
73.8999
 30
0.0
 11
169.657
 21
70.9993
 31
0.0
  0
LINE
  8
0
 62
     0
 10
169.657
 20
70.9993
 30
0.0
 11
170.458
 21
70.9993
 31
0.0
  0
LINE
  8
0
 62
     0
 10
170.458
 20
70.9993
 30
0.0
 11
170.458
 21
64.9993
 31
0.0
  0
LINE
  8
0
 62
     0
 10
170.458
 20
64.9993
 30
0.0
 11
169.657
 21
64.9993
 31
0.0
  0
LINE
  8
0
 62
     0
 10
169.657
 20
64.9993
 30
0.0
 11
169.657
 21
62.0984
 31
0.0
  0
LINE
  8
0
 62
     0
 10
169.657
 20
62.0984
 30
0.0
 11
170.458
 21
62.0984
 31
0.0
  0
LINE
  8
0
 62
     0
 10
170.458
 20
62.0984
 30
0.0
 11
170.458
 21
61.0994
 31
0.0
  0
LINE
  8
0
 62
     0
 10
170.458
 20
61.0994
 30
0.0
 11
184.258
 21
61.0994
 31
0.0
  0
LINE
  8
0
 62
     0
 10
184.258
 20
61.0994
 30
0.0
 11
184.258
 21
62.0984
 31
0.0
  0
LINE
  8
0
 62
     0
 10
184.258
 20
62.0984
 30
0.0
 11
185.058
 21
62.0984
 31
0.0
  0
LINE
  8
0
 62
     0
 10
185.058
 20
62.0984
 30
0.0
 11
185.058
 21
64.9993
 31
0.0
  0
LINE
  8
0
 62
     0
 10
185.058
 20
64.9993
 30
0.0
 11
184.258
 21
64.9993
 31
0.0
  0
LINE
  8
0
 62
     0
 10
184.258
 20
64.9993
 30
0.0
 11
184.258
 21
70.9993
 31
0.0
  0
LINE
  8
0
 62
     0
 10
184.258
 20
70.9993
 30
0.0
 11
185.058
 21
70.9993
 31
0.0
  0
LINE
  8
0
 62
     0
 10
185.058
 20
70.9993
 30
0.0
 11
185.058
 21
73.8999
 31
0.0
  0
LINE
  8
0
 62
     0
 10
185.058
 20
73.8999
 30
0.0
 11
184.258
 21
73.8999
 31
0.0
  0
LINE
  8
0
 62
     0
 10
184.258
 20
73.8999
 30
0.0
 11
184.258
 21
74.9004
 31
0.0
  0
LINE
  8
0
 62
     0
 10
184.258
 20
74.9004
 30
0.0
 11
170.458
 21
74.9004
 31
0.0
  0
LINE
  8
0
 62
     0
 10
151.408
 20
74.9004
 30
0.0
 11
151.408
 21
73.8999
 31
0.0
  0
LINE
  8
0
 62
     0
 10
151.408
 20
73.8999
 30
0.0
 11
150.607
 21
73.8999
 31
0.0
  0
LINE
  8
0
 62
     0
 10
150.607
 20
73.8999
 30
0.0
 11
150.607
 21
70.9993
 31
0.0
  0
LINE
  8
0
 62
     0
 10
150.607
 20
70.9993
 30
0.0
 11
151.408
 21
70.9993
 31
0.0
  0
LINE
  8
0
 62
     0
 10
151.408
 20
70.9993
 30
0.0
 11
151.408
 21
64.9993
 31
0.0
  0
LINE
  8
0
 62
     0
 10
151.408
 20
64.9993
 30
0.0
 11
150.607
 21
64.9993
 31
0.0
  0
LINE
  8
0
 62
     0
 10
150.607
 20
64.9993
 30
0.0
 11
150.607
 21
62.0984
 31
0.0
  0
LINE
  8
0
 62
     0
 10
150.607
 20
62.0984
 30
0.0
 11
151.408
 21
62.0984
 31
0.0
  0
LINE
  8
0
 62
     0
 10
151.408
 20
62.0984
 30
0.0
 11
151.408
 21
61.0994
 31
0.0
  0
LINE
  8
0
 62
     0
 10
151.408
 20
61.0994
 30
0.0
 11
165.208
 21
61.0994
 31
0.0
  0
LINE
  8
0
 62
     0
 10
165.208
 20
61.0994
 30
0.0
 11
165.208
 21
62.0984
 31
0.0
  0
LINE
  8
0
 62
     0
 10
165.208
 20
62.0984
 30
0.0
 11
166.008
 21
62.0984
 31
0.0
  0
LINE
  8
0
 62
     0
 10
166.008
 20
62.0984
 30
0.0
 11
166.008
 21
64.9993
 31
0.0
  0
LINE
  8
0
 62
     0
 10
166.008
 20
64.9993
 30
0.0
 11
165.208
 21
64.9993
 31
0.0
  0
LINE
  8
0
 62
     0
 10
165.208
 20
64.9993
 30
0.0
 11
165.208
 21
70.9993
 31
0.0
  0
LINE
  8
0
 62
     0
 10
165.208
 20
70.9993
 30
0.0
 11
166.008
 21
70.9993
 31
0.0
  0
LINE
  8
0
 62
     0
 10
166.008
 20
70.9993
 30
0.0
 11
166.008
 21
73.8999
 31
0.0
  0
LINE
  8
0
 62
     0
 10
166.008
 20
73.8999
 30
0.0
 11
165.208
 21
73.8999
 31
0.0
  0
LINE
  8
0
 62
     0
 10
165.208
 20
73.8999
 30
0.0
 11
165.208
 21
74.9004
 31
0.0
  0
LINE
  8
0
 62
     0
 10
165.208
 20
74.9004
 30
0.0
 11
151.408
 21
74.9004
 31
0.0
  0
LINE
  8
0
 62
     0
 10
132.358
 20
74.9004
 30
0.0
 11
132.358
 21
73.8999
 31
0.0
  0
LINE
  8
0
 62
     0
 10
132.358
 20
73.8999
 30
0.0
 11
131.557
 21
73.8999
 31
0.0
  0
LINE
  8
0
 62
     0
 10
131.557
 20
73.8999
 30
0.0
 11
131.557
 21
70.9993
 31
0.0
  0
LINE
  8
0
 62
     0
 10
131.557
 20
70.9993
 30
0.0
 11
132.358
 21
70.9993
 31
0.0
  0
LINE
  8
0
 62
     0
 10
132.358
 20
70.9993
 30
0.0
 11
132.358
 21
64.9993
 31
0.0
  0
LINE
  8
0
 62
     0
 10
132.358
 20
64.9993
 30
0.0
 11
131.557
 21
64.9993
 31
0.0
  0
LINE
  8
0
 62
     0
 10
131.557
 20
64.9993
 30
0.0
 11
131.557
 21
62.0984
 31
0.0
  0
LINE
  8
0
 62
     0
 10
131.557
 20
62.0984
 30
0.0
 11
132.358
 21
62.0984
 31
0.0
  0
LINE
  8
0
 62
     0
 10
132.358
 20
62.0984
 30
0.0
 11
132.358
 21
61.0994
 31
0.0
  0
LINE
  8
0
 62
     0
 10
132.358
 20
61.0994
 30
0.0
 11
146.158
 21
61.0994
 31
0.0
  0
LINE
  8
0
 62
     0
 10
146.158
 20
61.0994
 30
0.0
 11
146.158
 21
62.0984
 31
0.0
  0
LINE
  8
0
 62
     0
 10
146.158
 20
62.0984
 30
0.0
 11
146.958
 21
62.0984
 31
0.0
  0
LINE
  8
0
 62
     0
 10
146.958
 20
62.0984
 30
0.0
 11
146.958
 21
64.9993
 31
0.0
  0
LINE
  8
0
 62
     0
 10
146.958
 20
64.9993
 30
0.0
 11
146.158
 21
64.9993
 31
0.0
  0
LINE
  8
0
 62
     0
 10
146.158
 20
64.9993
 30
0.0
 11
146.158
 21
70.9993
 31
0.0
  0
LINE
  8
0
 62
     0
 10
146.158
 20
70.9993
 30
0.0
 11
146.958
 21
70.9993
 31
0.0
  0
LINE
  8
0
 62
     0
 10
146.958
 20
70.9993
 30
0.0
 11
146.958
 21
73.8999
 31
0.0
  0
LINE
  8
0
 62
     0
 10
146.958
 20
73.8999
 30
0.0
 11
146.158
 21
73.8999
 31
0.0
  0
LINE
  8
0
 62
     0
 10
146.158
 20
73.8999
 30
0.0
 11
146.158
 21
74.9004
 31
0.0
  0
LINE
  8
0
 62
     0
 10
146.158
 20
74.9004
 30
0.0
 11
132.358
 21
74.9004
 31
0.0
  0
LINE
  8
0
 62
     0
 10
113.308
 20
74.9004
 30
0.0
 11
113.308
 21
73.8999
 31
0.0
  0
LINE
  8
0
 62
     0
 10
113.308
 20
73.8999
 30
0.0
 11
112.507
 21
73.8999
 31
0.0
  0
LINE
  8
0
 62
     0
 10
112.507
 20
73.8999
 30
0.0
 11
112.507
 21
70.9993
 31
0.0
  0
LINE
  8
0
 62
     0
 10
112.507
 20
70.9993
 30
0.0
 11
113.308
 21
70.9993
 31
0.0
  0
LINE
  8
0
 62
     0
 10
113.308
 20
70.9993
 30
0.0
 11
113.308
 21
64.9993
 31
0.0
  0
LINE
  8
0
 62
     0
 10
113.308
 20
64.9993
 30
0.0
 11
112.507
 21
64.9993
 31
0.0
  0
LINE
  8
0
 62
     0
 10
112.507
 20
64.9993
 30
0.0
 11
112.507
 21
62.0984
 31
0.0
  0
LINE
  8
0
 62
     0
 10
112.507
 20
62.0984
 30
0.0
 11
113.308
 21
62.0984
 31
0.0
  0
LINE
  8
0
 62
     0
 10
113.308
 20
62.0984
 30
0.0
 11
113.308
 21
61.0994
 31
0.0
  0
LINE
  8
0
 62
     0
 10
113.308
 20
61.0994
 30
0.0
 11
127.108
 21
61.0994
 31
0.0
  0
LINE
  8
0
 62
     0
 10
127.108
 20
61.0994
 30
0.0
 11
127.108
 21
62.0984
 31
0.0
  0
LINE
  8
0
 62
     0
 10
127.108
 20
62.0984
 30
0.0
 11
127.908
 21
62.0984
 31
0.0
  0
LINE
  8
0
 62
     0
 10
127.908
 20
62.0984
 30
0.0
 11
127.908
 21
64.9993
 31
0.0
  0
LINE
  8
0
 62
     0
 10
127.908
 20
64.9993
 30
0.0
 11
127.108
 21
64.9993
 31
0.0
  0
LINE
  8
0
 62
     0
 10
127.108
 20
64.9993
 30
0.0
 11
127.108
 21
70.9993
 31
0.0
  0
LINE
  8
0
 62
     0
 10
127.108
 20
70.9993
 30
0.0
 11
127.908
 21
70.9993
 31
0.0
  0
LINE
  8
0
 62
     0
 10
127.908
 20
70.9993
 30
0.0
 11
127.908
 21
73.8999
 31
0.0
  0
LINE
  8
0
 62
     0
 10
127.908
 20
73.8999
 30
0.0
 11
127.108
 21
73.8999
 31
0.0
  0
LINE
  8
0
 62
     0
 10
127.108
 20
73.8999
 30
0.0
 11
127.108
 21
74.9004
 31
0.0
  0
LINE
  8
0
 62
     0
 10
127.108
 20
74.9004
 30
0.0
 11
113.308
 21
74.9004
 31
0.0
  0
LINE
  8
0
 62
     0
 10
94.258
 20
74.9004
 30
0.0
 11
94.258
 21
73.8999
 31
0.0
  0
LINE
  8
0
 62
     0
 10
94.258
 20
73.8999
 30
0.0
 11
93.4572
 21
73.8999
 31
0.0
  0
LINE
  8
0
 62
     0
 10
93.4572
 20
73.8999
 30
0.0
 11
93.4572
 21
70.9993
 31
0.0
  0
LINE
  8
0
 62
     0
 10
93.4572
 20
70.9993
 30
0.0
 11
94.258
 21
70.9993
 31
0.0
  0
LINE
  8
0
 62
     0
 10
94.258
 20
70.9993
 30
0.0
 11
94.258
 21
64.9993
 31
0.0
  0
LINE
  8
0
 62
     0
 10
94.258
 20
64.9993
 30
0.0
 11
93.4572
 21
64.9993
 31
0.0
  0
LINE
  8
0
 62
     0
 10
93.4572
 20
64.9993
 30
0.0
 11
93.4572
 21
62.0984
 31
0.0
  0
LINE
  8
0
 62
     0
 10
93.4572
 20
62.0984
 30
0.0
 11
94.258
 21
62.0984
 31
0.0
  0
LINE
  8
0
 62
     0
 10
94.258
 20
62.0984
 30
0.0
 11
94.258
 21
61.0994
 31
0.0
  0
LINE
  8
0
 62
     0
 10
94.258
 20
61.0994
 30
0.0
 11
108.058
 21
61.0994
 31
0.0
  0
LINE
  8
0
 62
     0
 10
108.058
 20
61.0994
 30
0.0
 11
108.058
 21
62.0984
 31
0.0
  0
LINE
  8
0
 62
     0
 10
108.058
 20
62.0984
 30
0.0
 11
108.858
 21
62.0984
 31
0.0
  0
LINE
  8
0
 62
     0
 10
108.858
 20
62.0984
 30
0.0
 11
108.858
 21
64.9993
 31
0.0
  0
LINE
  8
0
 62
     0
 10
108.858
 20
64.9993
 30
0.0
 11
108.058
 21
64.9993
 31
0.0
  0
LINE
  8
0
 62
     0
 10
108.058
 20
64.9993
 30
0.0
 11
108.058
 21
70.9993
 31
0.0
  0
LINE
  8
0
 62
     0
 10
108.058
 20
70.9993
 30
0.0
 11
108.858
 21
70.9993
 31
0.0
  0
LINE
  8
0
 62
     0
 10
108.858
 20
70.9993
 30
0.0
 11
108.858
 21
73.8999
 31
0.0
  0
LINE
  8
0
 62
     0
 10
108.858
 20
73.8999
 30
0.0
 11
108.058
 21
73.8999
 31
0.0
  0
LINE
  8
0
 62
     0
 10
108.058
 20
73.8999
 30
0.0
 11
108.058
 21
74.9004
 31
0.0
  0
LINE
  8
0
 62
     0
 10
108.058
 20
74.9004
 30
0.0
 11
94.258
 21
74.9004
 31
0.0
  0
LINE
  8
0
 62
     0
 10
75.208
 20
74.9004
 30
0.0
 11
75.208
 21
73.8999
 31
0.0
  0
LINE
  8
0
 62
     0
 10
75.208
 20
73.8999
 30
0.0
 11
74.4072
 21
73.8999
 31
0.0
  0
LINE
  8
0
 62
     0
 10
74.4072
 20
73.8999
 30
0.0
 11
74.4072
 21
70.9993
 31
0.0
  0
LINE
  8
0
 62
     0
 10
74.4072
 20
70.9993
 30
0.0
 11
75.208
 21
70.9993
 31
0.0
  0
LINE
  8
0
 62
     0
 10
75.208
 20
70.9993
 30
0.0
 11
75.208
 21
64.9993
 31
0.0
  0
LINE
  8
0
 62
     0
 10
75.208
 20
64.9993
 30
0.0
 11
74.4072
 21
64.9993
 31
0.0
  0
LINE
  8
0
 62
     0
 10
74.4072
 20
64.9993
 30
0.0
 11
74.4072
 21
62.0984
 31
0.0
  0
LINE
  8
0
 62
     0
 10
74.4072
 20
62.0984
 30
0.0
 11
75.208
 21
62.0984
 31
0.0
  0
LINE
  8
0
 62
     0
 10
75.208
 20
62.0984
 30
0.0
 11
75.208
 21
61.0994
 31
0.0
  0
LINE
  8
0
 62
     0
 10
75.208
 20
61.0994
 30
0.0
 11
89.0076
 21
61.0994
 31
0.0
  0
LINE
  8
0
 62
     0
 10
89.0076
 20
61.0994
 30
0.0
 11
89.0076
 21
62.0984
 31
0.0
  0
LINE
  8
0
 62
     0
 10
89.0076
 20
62.0984
 30
0.0
 11
89.8081
 21
62.0984
 31
0.0
  0
LINE
  8
0
 62
     0
 10
89.8081
 20
62.0984
 30
0.0
 11
89.8081
 21
64.9993
 31
0.0
  0
LINE
  8
0
 62
     0
 10
89.8081
 20
64.9993
 30
0.0
 11
89.0076
 21
64.9993
 31
0.0
  0
LINE
  8
0
 62
     0
 10
89.0076
 20
64.9993
 30
0.0
 11
89.0076
 21
70.9993
 31
0.0
  0
LINE
  8
0
 62
     0
 10
89.0076
 20
70.9993
 30
0.0
 11
89.8081
 21
70.9993
 31
0.0
  0
LINE
  8
0
 62
     0
 10
89.8081
 20
70.9993
 30
0.0
 11
89.8081
 21
73.8999
 31
0.0
  0
LINE
  8
0
 62
     0
 10
89.8081
 20
73.8999
 30
0.0
 11
89.0076
 21
73.8999
 31
0.0
  0
LINE
  8
0
 62
     0
 10
89.0076
 20
73.8999
 30
0.0
 11
89.0076
 21
74.9004
 31
0.0
  0
LINE
  8
0
 62
     0
 10
89.0076
 20
74.9004
 30
0.0
 11
75.208
 21
74.9004
 31
0.0
  0
LINE
  8
0
 62
     0
 10
56.158
 20
74.9004
 30
0.0
 11
56.158
 21
73.8999
 31
0.0
  0
LINE
  8
0
 62
     0
 10
56.158
 20
73.8999
 30
0.0
 11
55.3572
 21
73.8999
 31
0.0
  0
LINE
  8
0
 62
     0
 10
55.3572
 20
73.8999
 30
0.0
 11
55.3572
 21
70.9993
 31
0.0
  0
LINE
  8
0
 62
     0
 10
55.3572
 20
70.9993
 30
0.0
 11
56.158
 21
70.9993
 31
0.0
  0
LINE
  8
0
 62
     0
 10
56.158
 20
70.9993
 30
0.0
 11
56.158
 21
64.9993
 31
0.0
  0
LINE
  8
0
 62
     0
 10
56.158
 20
64.9993
 30
0.0
 11
55.3572
 21
64.9993
 31
0.0
  0
LINE
  8
0
 62
     0
 10
55.3572
 20
64.9993
 30
0.0
 11
55.3572
 21
62.0984
 31
0.0
  0
LINE
  8
0
 62
     0
 10
55.3572
 20
62.0984
 30
0.0
 11
56.158
 21
62.0984
 31
0.0
  0
LINE
  8
0
 62
     0
 10
56.158
 20
62.0984
 30
0.0
 11
56.158
 21
61.0994
 31
0.0
  0
LINE
  8
0
 62
     0
 10
56.158
 20
61.0994
 30
0.0
 11
69.9576
 21
61.0994
 31
0.0
  0
LINE
  8
0
 62
     0
 10
69.9576
 20
61.0994
 30
0.0
 11
69.9576
 21
62.0984
 31
0.0
  0
LINE
  8
0
 62
     0
 10
69.9576
 20
62.0984
 30
0.0
 11
70.7581
 21
62.0984
 31
0.0
  0
LINE
  8
0
 62
     0
 10
70.7581
 20
62.0984
 30
0.0
 11
70.7581
 21
64.9993
 31
0.0
  0
LINE
  8
0
 62
     0
 10
70.7581
 20
64.9993
 30
0.0
 11
69.9576
 21
64.9993
 31
0.0
  0
LINE
  8
0
 62
     0
 10
69.9576
 20
64.9993
 30
0.0
 11
69.9576
 21
70.9993
 31
0.0
  0
LINE
  8
0
 62
     0
 10
69.9576
 20
70.9993
 30
0.0
 11
70.7581
 21
70.9993
 31
0.0
  0
LINE
  8
0
 62
     0
 10
70.7581
 20
70.9993
 30
0.0
 11
70.7581
 21
73.8999
 31
0.0
  0
LINE
  8
0
 62
     0
 10
70.7581
 20
73.8999
 30
0.0
 11
69.9576
 21
73.8999
 31
0.0
  0
LINE
  8
0
 62
     0
 10
69.9576
 20
73.8999
 30
0.0
 11
69.9576
 21
74.9004
 31
0.0
  0
LINE
  8
0
 62
     0
 10
69.9576
 20
74.9004
 30
0.0
 11
56.158
 21
74.9004
 31
0.0
  0
LINE
  8
0
 62
     0
 10
29.9641
 20
74.9004
 30
0.0
 11
29.9641
 21
73.8999
 31
0.0
  0
LINE
  8
0
 62
     0
 10
29.9641
 20
73.8999
 30
0.0
 11
29.1634
 21
73.8999
 31
0.0
  0
LINE
  8
0
 62
     0
 10
29.1634
 20
73.8999
 30
0.0
 11
29.1634
 21
70.9993
 31
0.0
  0
LINE
  8
0
 62
     0
 10
29.1634
 20
70.9993
 30
0.0
 11
29.9641
 21
70.9993
 31
0.0
  0
LINE
  8
0
 62
     0
 10
29.9641
 20
70.9993
 30
0.0
 11
29.9641
 21
64.9993
 31
0.0
  0
LINE
  8
0
 62
     0
 10
29.9641
 20
64.9993
 30
0.0
 11
29.1634
 21
64.9993
 31
0.0
  0
LINE
  8
0
 62
     0
 10
29.1634
 20
64.9993
 30
0.0
 11
29.1634
 21
62.0984
 31
0.0
  0
LINE
  8
0
 62
     0
 10
29.1634
 20
62.0984
 30
0.0
 11
29.9641
 21
62.0984
 31
0.0
  0
LINE
  8
0
 62
     0
 10
29.9641
 20
62.0984
 30
0.0
 11
29.9641
 21
61.0994
 31
0.0
  0
LINE
  8
0
 62
     0
 10
29.9641
 20
61.0994
 30
0.0
 11
43.7638
 21
61.0994
 31
0.0
  0
LINE
  8
0
 62
     0
 10
43.7638
 20
61.0994
 30
0.0
 11
43.7638
 21
62.0984
 31
0.0
  0
LINE
  8
0
 62
     0
 10
43.7638
 20
62.0984
 30
0.0
 11
44.5629
 21
62.0984
 31
0.0
  0
LINE
  8
0
 62
     0
 10
44.5629
 20
62.0984
 30
0.0
 11
44.5629
 21
64.9993
 31
0.0
  0
LINE
  8
0
 62
     0
 10
44.5629
 20
64.9993
 30
0.0
 11
43.7638
 21
64.9993
 31
0.0
  0
LINE
  8
0
 62
     0
 10
43.7638
 20
64.9993
 30
0.0
 11
43.7638
 21
70.9993
 31
0.0
  0
LINE
  8
0
 62
     0
 10
43.7638
 20
70.9993
 30
0.0
 11
44.5629
 21
70.9993
 31
0.0
  0
LINE
  8
0
 62
     0
 10
44.5629
 20
70.9993
 30
0.0
 11
44.5629
 21
73.8999
 31
0.0
  0
LINE
  8
0
 62
     0
 10
44.5629
 20
73.8999
 30
0.0
 11
43.7638
 21
73.8999
 31
0.0
  0
LINE
  8
0
 62
     0
 10
43.7638
 20
73.8999
 30
0.0
 11
43.7638
 21
74.9004
 31
0.0
  0
LINE
  8
0
 62
     0
 10
43.7638
 20
74.9004
 30
0.0
 11
29.9641
 21
74.9004
 31
0.0
  0
LINE
  8
0
 62
     0
 10
351.433
 20
93.9493
 30
0.0
 11
351.433
 21
92.9488
 31
0.0
  0
LINE
  8
0
 62
     0
 10
351.433
 20
92.9488
 30
0.0
 11
350.632
 21
92.9488
 31
0.0
  0
LINE
  8
0
 62
     0
 10
350.632
 20
92.9488
 30
0.0
 11
350.632
 21
90.0493
 31
0.0
  0
LINE
  8
0
 62
     0
 10
350.632
 20
90.0493
 30
0.0
 11
351.433
 21
90.0493
 31
0.0
  0
LINE
  8
0
 62
     0
 10
351.433
 20
90.0493
 30
0.0
 11
351.433
 21
84.0493
 31
0.0
  0
LINE
  8
0
 62
     0
 10
351.433
 20
84.0493
 30
0.0
 11
350.632
 21
84.0493
 31
0.0
  0
LINE
  8
0
 62
     0
 10
350.632
 20
84.0493
 30
0.0
 11
350.632
 21
81.1484
 31
0.0
  0
LINE
  8
0
 62
     0
 10
350.632
 20
81.1484
 30
0.0
 11
351.433
 21
81.1484
 31
0.0
  0
LINE
  8
0
 62
     0
 10
351.433
 20
81.1484
 30
0.0
 11
351.433
 21
80.1494
 31
0.0
  0
LINE
  8
0
 62
     0
 10
351.433
 20
80.1494
 30
0.0
 11
365.231
 21
80.1494
 31
0.0
  0
LINE
  8
0
 62
     0
 10
365.231
 20
80.1494
 30
0.0
 11
365.231
 21
81.1484
 31
0.0
  0
LINE
  8
0
 62
     0
 10
365.231
 20
81.1484
 30
0.0
 11
366.032
 21
81.1484
 31
0.0
  0
LINE
  8
0
 62
     0
 10
366.032
 20
81.1484
 30
0.0
 11
366.032
 21
84.0493
 31
0.0
  0
LINE
  8
0
 62
     0
 10
366.032
 20
84.0493
 30
0.0
 11
365.231
 21
84.0493
 31
0.0
  0
LINE
  8
0
 62
     0
 10
365.231
 20
84.0493
 30
0.0
 11
365.231
 21
90.0493
 31
0.0
  0
LINE
  8
0
 62
     0
 10
365.231
 20
90.0493
 30
0.0
 11
366.032
 21
90.0493
 31
0.0
  0
LINE
  8
0
 62
     0
 10
366.032
 20
90.0493
 30
0.0
 11
366.032
 21
92.9488
 31
0.0
  0
LINE
  8
0
 62
     0
 10
366.032
 20
92.9488
 30
0.0
 11
365.231
 21
92.9488
 31
0.0
  0
LINE
  8
0
 62
     0
 10
365.231
 20
92.9488
 30
0.0
 11
365.231
 21
93.9493
 31
0.0
  0
LINE
  8
0
 62
     0
 10
365.231
 20
93.9493
 30
0.0
 11
351.433
 21
93.9493
 31
0.0
  0
LINE
  8
0
 62
     0
 10
332.383
 20
93.9493
 30
0.0
 11
332.383
 21
92.9488
 31
0.0
  0
LINE
  8
0
 62
     0
 10
332.383
 20
92.9488
 30
0.0
 11
331.582
 21
92.9488
 31
0.0
  0
LINE
  8
0
 62
     0
 10
331.582
 20
92.9488
 30
0.0
 11
331.582
 21
90.0493
 31
0.0
  0
LINE
  8
0
 62
     0
 10
331.582
 20
90.0493
 30
0.0
 11
332.383
 21
90.0493
 31
0.0
  0
LINE
  8
0
 62
     0
 10
332.383
 20
90.0493
 30
0.0
 11
332.383
 21
84.0493
 31
0.0
  0
LINE
  8
0
 62
     0
 10
332.383
 20
84.0493
 30
0.0
 11
331.582
 21
84.0493
 31
0.0
  0
LINE
  8
0
 62
     0
 10
331.582
 20
84.0493
 30
0.0
 11
331.582
 21
81.1484
 31
0.0
  0
LINE
  8
0
 62
     0
 10
331.582
 20
81.1484
 30
0.0
 11
332.383
 21
81.1484
 31
0.0
  0
LINE
  8
0
 62
     0
 10
332.383
 20
81.1484
 30
0.0
 11
332.383
 21
80.1494
 31
0.0
  0
LINE
  8
0
 62
     0
 10
332.383
 20
80.1494
 30
0.0
 11
346.183
 21
80.1494
 31
0.0
  0
LINE
  8
0
 62
     0
 10
346.183
 20
80.1494
 30
0.0
 11
346.183
 21
81.1484
 31
0.0
  0
LINE
  8
0
 62
     0
 10
346.183
 20
81.1484
 30
0.0
 11
346.983
 21
81.1484
 31
0.0
  0
LINE
  8
0
 62
     0
 10
346.983
 20
81.1484
 30
0.0
 11
346.983
 21
84.0493
 31
0.0
  0
LINE
  8
0
 62
     0
 10
346.983
 20
84.0493
 30
0.0
 11
346.183
 21
84.0493
 31
0.0
  0
LINE
  8
0
 62
     0
 10
346.183
 20
84.0493
 30
0.0
 11
346.183
 21
90.0493
 31
0.0
  0
LINE
  8
0
 62
     0
 10
346.183
 20
90.0493
 30
0.0
 11
346.983
 21
90.0493
 31
0.0
  0
LINE
  8
0
 62
     0
 10
346.983
 20
90.0493
 30
0.0
 11
346.983
 21
92.9488
 31
0.0
  0
LINE
  8
0
 62
     0
 10
346.983
 20
92.9488
 30
0.0
 11
346.183
 21
92.9488
 31
0.0
  0
LINE
  8
0
 62
     0
 10
346.183
 20
92.9488
 30
0.0
 11
346.183
 21
93.9493
 31
0.0
  0
LINE
  8
0
 62
     0
 10
346.183
 20
93.9493
 30
0.0
 11
332.383
 21
93.9493
 31
0.0
  0
LINE
  8
0
 62
     0
 10
313.333
 20
93.9493
 30
0.0
 11
313.333
 21
92.9488
 31
0.0
  0
LINE
  8
0
 62
     0
 10
313.333
 20
92.9488
 30
0.0
 11
312.532
 21
92.9488
 31
0.0
  0
LINE
  8
0
 62
     0
 10
312.532
 20
92.9488
 30
0.0
 11
312.532
 21
90.0493
 31
0.0
  0
LINE
  8
0
 62
     0
 10
312.532
 20
90.0493
 30
0.0
 11
313.333
 21
90.0493
 31
0.0
  0
LINE
  8
0
 62
     0
 10
313.333
 20
90.0493
 30
0.0
 11
313.333
 21
84.0493
 31
0.0
  0
LINE
  8
0
 62
     0
 10
313.333
 20
84.0493
 30
0.0
 11
312.532
 21
84.0493
 31
0.0
  0
LINE
  8
0
 62
     0
 10
312.532
 20
84.0493
 30
0.0
 11
312.532
 21
81.1484
 31
0.0
  0
LINE
  8
0
 62
     0
 10
312.532
 20
81.1484
 30
0.0
 11
313.333
 21
81.1484
 31
0.0
  0
LINE
  8
0
 62
     0
 10
313.333
 20
81.1484
 30
0.0
 11
313.333
 21
80.1494
 31
0.0
  0
LINE
  8
0
 62
     0
 10
313.333
 20
80.1494
 30
0.0
 11
327.133
 21
80.1494
 31
0.0
  0
LINE
  8
0
 62
     0
 10
327.133
 20
80.1494
 30
0.0
 11
327.133
 21
81.1484
 31
0.0
  0
LINE
  8
0
 62
     0
 10
327.133
 20
81.1484
 30
0.0
 11
327.933
 21
81.1484
 31
0.0
  0
LINE
  8
0
 62
     0
 10
327.933
 20
81.1484
 30
0.0
 11
327.933
 21
84.0493
 31
0.0
  0
LINE
  8
0
 62
     0
 10
327.933
 20
84.0493
 30
0.0
 11
327.133
 21
84.0493
 31
0.0
  0
LINE
  8
0
 62
     0
 10
327.133
 20
84.0493
 30
0.0
 11
327.133
 21
90.0493
 31
0.0
  0
LINE
  8
0
 62
     0
 10
327.133
 20
90.0493
 30
0.0
 11
327.933
 21
90.0493
 31
0.0
  0
LINE
  8
0
 62
     0
 10
327.933
 20
90.0493
 30
0.0
 11
327.933
 21
92.9488
 31
0.0
  0
LINE
  8
0
 62
     0
 10
327.933
 20
92.9488
 30
0.0
 11
327.133
 21
92.9488
 31
0.0
  0
LINE
  8
0
 62
     0
 10
327.133
 20
92.9488
 30
0.0
 11
327.133
 21
93.9493
 31
0.0
  0
LINE
  8
0
 62
     0
 10
327.133
 20
93.9493
 30
0.0
 11
313.333
 21
93.9493
 31
0.0
  0
LINE
  8
0
 62
     0
 10
284.758
 20
93.9493
 30
0.0
 11
284.758
 21
92.9488
 31
0.0
  0
LINE
  8
0
 62
     0
 10
284.758
 20
92.9488
 30
0.0
 11
283.957
 21
92.9488
 31
0.0
  0
LINE
  8
0
 62
     0
 10
283.957
 20
92.9488
 30
0.0
 11
283.957
 21
90.0493
 31
0.0
  0
LINE
  8
0
 62
     0
 10
283.957
 20
90.0493
 30
0.0
 11
284.758
 21
90.0493
 31
0.0
  0
LINE
  8
0
 62
     0
 10
284.758
 20
90.0493
 30
0.0
 11
284.758
 21
84.0493
 31
0.0
  0
LINE
  8
0
 62
     0
 10
284.758
 20
84.0493
 30
0.0
 11
283.957
 21
84.0493
 31
0.0
  0
LINE
  8
0
 62
     0
 10
283.957
 20
84.0493
 30
0.0
 11
283.957
 21
81.1484
 31
0.0
  0
LINE
  8
0
 62
     0
 10
283.957
 20
81.1484
 30
0.0
 11
284.758
 21
81.1484
 31
0.0
  0
LINE
  8
0
 62
     0
 10
284.758
 20
81.1484
 30
0.0
 11
284.758
 21
80.1494
 31
0.0
  0
LINE
  8
0
 62
     0
 10
284.758
 20
80.1494
 30
0.0
 11
298.558
 21
80.1494
 31
0.0
  0
LINE
  8
0
 62
     0
 10
298.558
 20
80.1494
 30
0.0
 11
298.558
 21
81.1484
 31
0.0
  0
LINE
  8
0
 62
     0
 10
298.558
 20
81.1484
 30
0.0
 11
299.358
 21
81.1484
 31
0.0
  0
LINE
  8
0
 62
     0
 10
299.358
 20
81.1484
 30
0.0
 11
299.358
 21
84.0493
 31
0.0
  0
LINE
  8
0
 62
     0
 10
299.358
 20
84.0493
 30
0.0
 11
298.558
 21
84.0493
 31
0.0
  0
LINE
  8
0
 62
     0
 10
298.558
 20
84.0493
 30
0.0
 11
298.558
 21
90.0493
 31
0.0
  0
LINE
  8
0
 62
     0
 10
298.558
 20
90.0493
 30
0.0
 11
299.358
 21
90.0493
 31
0.0
  0
LINE
  8
0
 62
     0
 10
299.358
 20
90.0493
 30
0.0
 11
299.358
 21
92.9488
 31
0.0
  0
LINE
  8
0
 62
     0
 10
299.358
 20
92.9488
 30
0.0
 11
298.558
 21
92.9488
 31
0.0
  0
LINE
  8
0
 62
     0
 10
298.558
 20
92.9488
 30
0.0
 11
298.558
 21
93.9493
 31
0.0
  0
LINE
  8
0
 62
     0
 10
298.558
 20
93.9493
 30
0.0
 11
284.758
 21
93.9493
 31
0.0
  0
LINE
  8
0
 62
     0
 10
260.945
 20
93.9493
 30
0.0
 11
260.945
 21
92.9488
 31
0.0
  0
LINE
  8
0
 62
     0
 10
260.945
 20
92.9488
 30
0.0
 11
260.146
 21
92.9488
 31
0.0
  0
LINE
  8
0
 62
     0
 10
260.146
 20
92.9488
 30
0.0
 11
260.146
 21
90.0493
 31
0.0
  0
LINE
  8
0
 62
     0
 10
260.146
 20
90.0493
 30
0.0
 11
260.945
 21
90.0493
 31
0.0
  0
LINE
  8
0
 62
     0
 10
260.945
 20
90.0493
 30
0.0
 11
260.945
 21
84.0493
 31
0.0
  0
LINE
  8
0
 62
     0
 10
260.945
 20
84.0493
 30
0.0
 11
260.146
 21
84.0493
 31
0.0
  0
LINE
  8
0
 62
     0
 10
260.146
 20
84.0493
 30
0.0
 11
260.146
 21
81.1484
 31
0.0
  0
LINE
  8
0
 62
     0
 10
260.146
 20
81.1484
 30
0.0
 11
260.945
 21
81.1484
 31
0.0
  0
LINE
  8
0
 62
     0
 10
260.945
 20
81.1484
 30
0.0
 11
260.945
 21
80.1494
 31
0.0
  0
LINE
  8
0
 62
     0
 10
260.945
 20
80.1494
 30
0.0
 11
274.745
 21
80.1494
 31
0.0
  0
LINE
  8
0
 62
     0
 10
274.745
 20
80.1494
 30
0.0
 11
274.745
 21
81.1484
 31
0.0
  0
LINE
  8
0
 62
     0
 10
274.745
 20
81.1484
 30
0.0
 11
275.546
 21
81.1484
 31
0.0
  0
LINE
  8
0
 62
     0
 10
275.546
 20
81.1484
 30
0.0
 11
275.546
 21
84.0493
 31
0.0
  0
LINE
  8
0
 62
     0
 10
275.546
 20
84.0493
 30
0.0
 11
274.745
 21
84.0493
 31
0.0
  0
LINE
  8
0
 62
     0
 10
274.745
 20
84.0493
 30
0.0
 11
274.745
 21
90.0493
 31
0.0
  0
LINE
  8
0
 62
     0
 10
274.745
 20
90.0493
 30
0.0
 11
275.546
 21
90.0493
 31
0.0
  0
LINE
  8
0
 62
     0
 10
275.546
 20
90.0493
 30
0.0
 11
275.546
 21
92.9488
 31
0.0
  0
LINE
  8
0
 62
     0
 10
275.546
 20
92.9488
 30
0.0
 11
274.745
 21
92.9488
 31
0.0
  0
LINE
  8
0
 62
     0
 10
274.745
 20
92.9488
 30
0.0
 11
274.745
 21
93.9493
 31
0.0
  0
LINE
  8
0
 62
     0
 10
274.745
 20
93.9493
 30
0.0
 11
260.945
 21
93.9493
 31
0.0
  0
LINE
  8
0
 62
     0
 10
241.895
 20
93.9493
 30
0.0
 11
241.895
 21
92.9488
 31
0.0
  0
LINE
  8
0
 62
     0
 10
241.895
 20
92.9488
 30
0.0
 11
241.096
 21
92.9488
 31
0.0
  0
LINE
  8
0
 62
     0
 10
241.096
 20
92.9488
 30
0.0
 11
241.096
 21
90.0493
 31
0.0
  0
LINE
  8
0
 62
     0
 10
241.096
 20
90.0493
 30
0.0
 11
241.895
 21
90.0493
 31
0.0
  0
LINE
  8
0
 62
     0
 10
241.895
 20
90.0493
 30
0.0
 11
241.895
 21
84.0493
 31
0.0
  0
LINE
  8
0
 62
     0
 10
241.895
 20
84.0493
 30
0.0
 11
241.096
 21
84.0493
 31
0.0
  0
LINE
  8
0
 62
     0
 10
241.096
 20
84.0493
 30
0.0
 11
241.096
 21
81.1484
 31
0.0
  0
LINE
  8
0
 62
     0
 10
241.096
 20
81.1484
 30
0.0
 11
241.895
 21
81.1484
 31
0.0
  0
LINE
  8
0
 62
     0
 10
241.895
 20
81.1484
 30
0.0
 11
241.895
 21
80.1494
 31
0.0
  0
LINE
  8
0
 62
     0
 10
241.895
 20
80.1494
 30
0.0
 11
255.695
 21
80.1494
 31
0.0
  0
LINE
  8
0
 62
     0
 10
255.695
 20
80.1494
 30
0.0
 11
255.695
 21
81.1484
 31
0.0
  0
LINE
  8
0
 62
     0
 10
255.695
 20
81.1484
 30
0.0
 11
256.494
 21
81.1484
 31
0.0
  0
LINE
  8
0
 62
     0
 10
256.494
 20
81.1484
 30
0.0
 11
256.494
 21
84.0493
 31
0.0
  0
LINE
  8
0
 62
     0
 10
256.494
 20
84.0493
 30
0.0
 11
255.695
 21
84.0493
 31
0.0
  0
LINE
  8
0
 62
     0
 10
255.695
 20
84.0493
 30
0.0
 11
255.695
 21
90.0493
 31
0.0
  0
LINE
  8
0
 62
     0
 10
255.695
 20
90.0493
 30
0.0
 11
256.494
 21
90.0493
 31
0.0
  0
LINE
  8
0
 62
     0
 10
256.494
 20
90.0493
 30
0.0
 11
256.494
 21
92.9488
 31
0.0
  0
LINE
  8
0
 62
     0
 10
256.494
 20
92.9488
 30
0.0
 11
255.695
 21
92.9488
 31
0.0
  0
LINE
  8
0
 62
     0
 10
255.695
 20
92.9488
 30
0.0
 11
255.695
 21
93.9493
 31
0.0
  0
LINE
  8
0
 62
     0
 10
255.695
 20
93.9493
 30
0.0
 11
241.895
 21
93.9493
 31
0.0
  0
LINE
  8
0
 62
     0
 10
222.845
 20
93.9493
 30
0.0
 11
222.845
 21
92.9488
 31
0.0
  0
LINE
  8
0
 62
     0
 10
222.845
 20
92.9488
 30
0.0
 11
222.046
 21
92.9488
 31
0.0
  0
LINE
  8
0
 62
     0
 10
222.046
 20
92.9488
 30
0.0
 11
222.046
 21
90.0493
 31
0.0
  0
LINE
  8
0
 62
     0
 10
222.046
 20
90.0493
 30
0.0
 11
222.845
 21
90.0493
 31
0.0
  0
LINE
  8
0
 62
     0
 10
222.845
 20
90.0493
 30
0.0
 11
222.845
 21
84.0493
 31
0.0
  0
LINE
  8
0
 62
     0
 10
222.845
 20
84.0493
 30
0.0
 11
222.046
 21
84.0493
 31
0.0
  0
LINE
  8
0
 62
     0
 10
222.046
 20
84.0493
 30
0.0
 11
222.046
 21
81.1484
 31
0.0
  0
LINE
  8
0
 62
     0
 10
222.046
 20
81.1484
 30
0.0
 11
222.845
 21
81.1484
 31
0.0
  0
LINE
  8
0
 62
     0
 10
222.845
 20
81.1484
 30
0.0
 11
222.845
 21
80.1494
 31
0.0
  0
LINE
  8
0
 62
     0
 10
222.845
 20
80.1494
 30
0.0
 11
236.645
 21
80.1494
 31
0.0
  0
LINE
  8
0
 62
     0
 10
236.645
 20
80.1494
 30
0.0
 11
236.645
 21
81.1484
 31
0.0
  0
LINE
  8
0
 62
     0
 10
236.645
 20
81.1484
 30
0.0
 11
237.446
 21
81.1484
 31
0.0
  0
LINE
  8
0
 62
     0
 10
237.446
 20
81.1484
 30
0.0
 11
237.446
 21
84.0493
 31
0.0
  0
LINE
  8
0
 62
     0
 10
237.446
 20
84.0493
 30
0.0
 11
236.645
 21
84.0493
 31
0.0
  0
LINE
  8
0
 62
     0
 10
236.645
 20
84.0493
 30
0.0
 11
236.645
 21
90.0493
 31
0.0
  0
LINE
  8
0
 62
     0
 10
236.645
 20
90.0493
 30
0.0
 11
237.446
 21
90.0493
 31
0.0
  0
LINE
  8
0
 62
     0
 10
237.446
 20
90.0493
 30
0.0
 11
237.446
 21
92.9488
 31
0.0
  0
LINE
  8
0
 62
     0
 10
237.446
 20
92.9488
 30
0.0
 11
236.645
 21
92.9488
 31
0.0
  0
LINE
  8
0
 62
     0
 10
236.645
 20
92.9488
 30
0.0
 11
236.645
 21
93.9493
 31
0.0
  0
LINE
  8
0
 62
     0
 10
236.645
 20
93.9493
 30
0.0
 11
222.845
 21
93.9493
 31
0.0
  0
LINE
  8
0
 62
     0
 10
203.795
 20
93.9493
 30
0.0
 11
203.795
 21
92.9488
 31
0.0
  0
LINE
  8
0
 62
     0
 10
203.795
 20
92.9488
 30
0.0
 11
202.996
 21
92.9488
 31
0.0
  0
LINE
  8
0
 62
     0
 10
202.996
 20
92.9488
 30
0.0
 11
202.996
 21
90.0493
 31
0.0
  0
LINE
  8
0
 62
     0
 10
202.996
 20
90.0493
 30
0.0
 11
203.795
 21
90.0493
 31
0.0
  0
LINE
  8
0
 62
     0
 10
203.795
 20
90.0493
 30
0.0
 11
203.795
 21
84.0493
 31
0.0
  0
LINE
  8
0
 62
     0
 10
203.795
 20
84.0493
 30
0.0
 11
202.996
 21
84.0493
 31
0.0
  0
LINE
  8
0
 62
     0
 10
202.996
 20
84.0493
 30
0.0
 11
202.996
 21
81.1484
 31
0.0
  0
LINE
  8
0
 62
     0
 10
202.996
 20
81.1484
 30
0.0
 11
203.795
 21
81.1484
 31
0.0
  0
LINE
  8
0
 62
     0
 10
203.795
 20
81.1484
 30
0.0
 11
203.795
 21
80.1494
 31
0.0
  0
LINE
  8
0
 62
     0
 10
203.795
 20
80.1494
 30
0.0
 11
217.595
 21
80.1494
 31
0.0
  0
LINE
  8
0
 62
     0
 10
217.595
 20
80.1494
 30
0.0
 11
217.595
 21
81.1484
 31
0.0
  0
LINE
  8
0
 62
     0
 10
217.595
 20
81.1484
 30
0.0
 11
218.396
 21
81.1484
 31
0.0
  0
LINE
  8
0
 62
     0
 10
218.396
 20
81.1484
 30
0.0
 11
218.396
 21
84.0493
 31
0.0
  0
LINE
  8
0
 62
     0
 10
218.396
 20
84.0493
 30
0.0
 11
217.595
 21
84.0493
 31
0.0
  0
LINE
  8
0
 62
     0
 10
217.595
 20
84.0493
 30
0.0
 11
217.595
 21
90.0493
 31
0.0
  0
LINE
  8
0
 62
     0
 10
217.595
 20
90.0493
 30
0.0
 11
218.396
 21
90.0493
 31
0.0
  0
LINE
  8
0
 62
     0
 10
218.396
 20
90.0493
 30
0.0
 11
218.396
 21
92.9488
 31
0.0
  0
LINE
  8
0
 62
     0
 10
218.396
 20
92.9488
 30
0.0
 11
217.595
 21
92.9488
 31
0.0
  0
LINE
  8
0
 62
     0
 10
217.595
 20
92.9488
 30
0.0
 11
217.595
 21
93.9493
 31
0.0
  0
LINE
  8
0
 62
     0
 10
217.595
 20
93.9493
 30
0.0
 11
203.795
 21
93.9493
 31
0.0
  0
LINE
  8
0
 62
     0
 10
184.745
 20
93.9493
 30
0.0
 11
184.745
 21
92.9488
 31
0.0
  0
LINE
  8
0
 62
     0
 10
184.745
 20
92.9488
 30
0.0
 11
183.946
 21
92.9488
 31
0.0
  0
LINE
  8
0
 62
     0
 10
183.946
 20
92.9488
 30
0.0
 11
183.946
 21
90.0493
 31
0.0
  0
LINE
  8
0
 62
     0
 10
183.946
 20
90.0493
 30
0.0
 11
184.745
 21
90.0493
 31
0.0
  0
LINE
  8
0
 62
     0
 10
184.745
 20
90.0493
 30
0.0
 11
184.745
 21
84.0493
 31
0.0
  0
LINE
  8
0
 62
     0
 10
184.745
 20
84.0493
 30
0.0
 11
183.946
 21
84.0493
 31
0.0
  0
LINE
  8
0
 62
     0
 10
183.946
 20
84.0493
 30
0.0
 11
183.946
 21
81.1484
 31
0.0
  0
LINE
  8
0
 62
     0
 10
183.946
 20
81.1484
 30
0.0
 11
184.745
 21
81.1484
 31
0.0
  0
LINE
  8
0
 62
     0
 10
184.745
 20
81.1484
 30
0.0
 11
184.745
 21
80.1494
 31
0.0
  0
LINE
  8
0
 62
     0
 10
184.745
 20
80.1494
 30
0.0
 11
198.545
 21
80.1494
 31
0.0
  0
LINE
  8
0
 62
     0
 10
198.545
 20
80.1494
 30
0.0
 11
198.545
 21
81.1484
 31
0.0
  0
LINE
  8
0
 62
     0
 10
198.545
 20
81.1484
 30
0.0
 11
199.346
 21
81.1484
 31
0.0
  0
LINE
  8
0
 62
     0
 10
199.346
 20
81.1484
 30
0.0
 11
199.346
 21
84.0493
 31
0.0
  0
LINE
  8
0
 62
     0
 10
199.346
 20
84.0493
 30
0.0
 11
198.545
 21
84.0493
 31
0.0
  0
LINE
  8
0
 62
     0
 10
198.545
 20
84.0493
 30
0.0
 11
198.545
 21
90.0493
 31
0.0
  0
LINE
  8
0
 62
     0
 10
198.545
 20
90.0493
 30
0.0
 11
199.346
 21
90.0493
 31
0.0
  0
LINE
  8
0
 62
     0
 10
199.346
 20
90.0493
 30
0.0
 11
199.346
 21
92.9488
 31
0.0
  0
LINE
  8
0
 62
     0
 10
199.346
 20
92.9488
 30
0.0
 11
198.545
 21
92.9488
 31
0.0
  0
LINE
  8
0
 62
     0
 10
198.545
 20
92.9488
 30
0.0
 11
198.545
 21
93.9493
 31
0.0
  0
LINE
  8
0
 62
     0
 10
198.545
 20
93.9493
 30
0.0
 11
184.745
 21
93.9493
 31
0.0
  0
LINE
  8
0
 62
     0
 10
165.695
 20
93.9493
 30
0.0
 11
165.695
 21
92.9488
 31
0.0
  0
LINE
  8
0
 62
     0
 10
165.695
 20
92.9488
 30
0.0
 11
164.896
 21
92.9488
 31
0.0
  0
LINE
  8
0
 62
     0
 10
164.896
 20
92.9488
 30
0.0
 11
164.896
 21
90.0493
 31
0.0
  0
LINE
  8
0
 62
     0
 10
164.896
 20
90.0493
 30
0.0
 11
165.695
 21
90.0493
 31
0.0
  0
LINE
  8
0
 62
     0
 10
165.695
 20
90.0493
 30
0.0
 11
165.695
 21
84.0493
 31
0.0
  0
LINE
  8
0
 62
     0
 10
165.695
 20
84.0493
 30
0.0
 11
164.896
 21
84.0493
 31
0.0
  0
LINE
  8
0
 62
     0
 10
164.896
 20
84.0493
 30
0.0
 11
164.896
 21
81.1484
 31
0.0
  0
LINE
  8
0
 62
     0
 10
164.896
 20
81.1484
 30
0.0
 11
165.695
 21
81.1484
 31
0.0
  0
LINE
  8
0
 62
     0
 10
165.695
 20
81.1484
 30
0.0
 11
165.695
 21
80.1494
 31
0.0
  0
LINE
  8
0
 62
     0
 10
165.695
 20
80.1494
 30
0.0
 11
179.495
 21
80.1494
 31
0.0
  0
LINE
  8
0
 62
     0
 10
179.495
 20
80.1494
 30
0.0
 11
179.495
 21
81.1484
 31
0.0
  0
LINE
  8
0
 62
     0
 10
179.495
 20
81.1484
 30
0.0
 11
180.296
 21
81.1484
 31
0.0
  0
LINE
  8
0
 62
     0
 10
180.296
 20
81.1484
 30
0.0
 11
180.296
 21
84.0493
 31
0.0
  0
LINE
  8
0
 62
     0
 10
180.296
 20
84.0493
 30
0.0
 11
179.495
 21
84.0493
 31
0.0
  0
LINE
  8
0
 62
     0
 10
179.495
 20
84.0493
 30
0.0
 11
179.495
 21
90.0493
 31
0.0
  0
LINE
  8
0
 62
     0
 10
179.495
 20
90.0493
 30
0.0
 11
180.296
 21
90.0493
 31
0.0
  0
LINE
  8
0
 62
     0
 10
180.296
 20
90.0493
 30
0.0
 11
180.296
 21
92.9488
 31
0.0
  0
LINE
  8
0
 62
     0
 10
180.296
 20
92.9488
 30
0.0
 11
179.495
 21
92.9488
 31
0.0
  0
LINE
  8
0
 62
     0
 10
179.495
 20
92.9488
 30
0.0
 11
179.495
 21
93.9493
 31
0.0
  0
LINE
  8
0
 62
     0
 10
179.495
 20
93.9493
 30
0.0
 11
165.695
 21
93.9493
 31
0.0
  0
LINE
  8
0
 62
     0
 10
146.645
 20
93.9493
 30
0.0
 11
146.645
 21
92.9488
 31
0.0
  0
LINE
  8
0
 62
     0
 10
146.645
 20
92.9488
 30
0.0
 11
145.846
 21
92.9488
 31
0.0
  0
LINE
  8
0
 62
     0
 10
145.846
 20
92.9488
 30
0.0
 11
145.846
 21
90.0493
 31
0.0
  0
LINE
  8
0
 62
     0
 10
145.846
 20
90.0493
 30
0.0
 11
146.645
 21
90.0493
 31
0.0
  0
LINE
  8
0
 62
     0
 10
146.645
 20
90.0493
 30
0.0
 11
146.645
 21
84.0493
 31
0.0
  0
LINE
  8
0
 62
     0
 10
146.645
 20
84.0493
 30
0.0
 11
145.846
 21
84.0493
 31
0.0
  0
LINE
  8
0
 62
     0
 10
145.846
 20
84.0493
 30
0.0
 11
145.846
 21
81.1484
 31
0.0
  0
LINE
  8
0
 62
     0
 10
145.846
 20
81.1484
 30
0.0
 11
146.645
 21
81.1484
 31
0.0
  0
LINE
  8
0
 62
     0
 10
146.645
 20
81.1484
 30
0.0
 11
146.645
 21
80.1494
 31
0.0
  0
LINE
  8
0
 62
     0
 10
146.645
 20
80.1494
 30
0.0
 11
160.445
 21
80.1494
 31
0.0
  0
LINE
  8
0
 62
     0
 10
160.445
 20
80.1494
 30
0.0
 11
160.445
 21
81.1484
 31
0.0
  0
LINE
  8
0
 62
     0
 10
160.445
 20
81.1484
 30
0.0
 11
161.246
 21
81.1484
 31
0.0
  0
LINE
  8
0
 62
     0
 10
161.246
 20
81.1484
 30
0.0
 11
161.246
 21
84.0493
 31
0.0
  0
LINE
  8
0
 62
     0
 10
161.246
 20
84.0493
 30
0.0
 11
160.445
 21
84.0493
 31
0.0
  0
LINE
  8
0
 62
     0
 10
160.445
 20
84.0493
 30
0.0
 11
160.445
 21
90.0493
 31
0.0
  0
LINE
  8
0
 62
     0
 10
160.445
 20
90.0493
 30
0.0
 11
161.246
 21
90.0493
 31
0.0
  0
LINE
  8
0
 62
     0
 10
161.246
 20
90.0493
 30
0.0
 11
161.246
 21
92.9488
 31
0.0
  0
LINE
  8
0
 62
     0
 10
161.246
 20
92.9488
 30
0.0
 11
160.445
 21
92.9488
 31
0.0
  0
LINE
  8
0
 62
     0
 10
160.445
 20
92.9488
 30
0.0
 11
160.445
 21
93.9493
 31
0.0
  0
LINE
  8
0
 62
     0
 10
160.445
 20
93.9493
 30
0.0
 11
146.645
 21
93.9493
 31
0.0
  0
LINE
  8
0
 62
     0
 10
127.595
 20
93.9493
 30
0.0
 11
127.595
 21
92.9488
 31
0.0
  0
LINE
  8
0
 62
     0
 10
127.595
 20
92.9488
 30
0.0
 11
126.796
 21
92.9488
 31
0.0
  0
LINE
  8
0
 62
     0
 10
126.796
 20
92.9488
 30
0.0
 11
126.796
 21
90.0493
 31
0.0
  0
LINE
  8
0
 62
     0
 10
126.796
 20
90.0493
 30
0.0
 11
127.595
 21
90.0493
 31
0.0
  0
LINE
  8
0
 62
     0
 10
127.595
 20
90.0493
 30
0.0
 11
127.595
 21
84.0493
 31
0.0
  0
LINE
  8
0
 62
     0
 10
127.595
 20
84.0493
 30
0.0
 11
126.796
 21
84.0493
 31
0.0
  0
LINE
  8
0
 62
     0
 10
126.796
 20
84.0493
 30
0.0
 11
126.796
 21
81.1484
 31
0.0
  0
LINE
  8
0
 62
     0
 10
126.796
 20
81.1484
 30
0.0
 11
127.595
 21
81.1484
 31
0.0
  0
LINE
  8
0
 62
     0
 10
127.595
 20
81.1484
 30
0.0
 11
127.595
 21
80.1494
 31
0.0
  0
LINE
  8
0
 62
     0
 10
127.595
 20
80.1494
 30
0.0
 11
141.395
 21
80.1494
 31
0.0
  0
LINE
  8
0
 62
     0
 10
141.395
 20
80.1494
 30
0.0
 11
141.395
 21
81.1484
 31
0.0
  0
LINE
  8
0
 62
     0
 10
141.395
 20
81.1484
 30
0.0
 11
142.196
 21
81.1484
 31
0.0
  0
LINE
  8
0
 62
     0
 10
142.196
 20
81.1484
 30
0.0
 11
142.196
 21
84.0493
 31
0.0
  0
LINE
  8
0
 62
     0
 10
142.196
 20
84.0493
 30
0.0
 11
141.395
 21
84.0493
 31
0.0
  0
LINE
  8
0
 62
     0
 10
141.395
 20
84.0493
 30
0.0
 11
141.395
 21
90.0493
 31
0.0
  0
LINE
  8
0
 62
     0
 10
141.395
 20
90.0493
 30
0.0
 11
142.196
 21
90.0493
 31
0.0
  0
LINE
  8
0
 62
     0
 10
142.196
 20
90.0493
 30
0.0
 11
142.196
 21
92.9488
 31
0.0
  0
LINE
  8
0
 62
     0
 10
142.196
 20
92.9488
 30
0.0
 11
141.395
 21
92.9488
 31
0.0
  0
LINE
  8
0
 62
     0
 10
141.395
 20
92.9488
 30
0.0
 11
141.395
 21
93.9493
 31
0.0
  0
LINE
  8
0
 62
     0
 10
141.395
 20
93.9493
 30
0.0
 11
127.595
 21
93.9493
 31
0.0
  0
LINE
  8
0
 62
     0
 10
108.544
 20
93.9493
 30
0.0
 11
108.544
 21
92.9488
 31
0.0
  0
LINE
  8
0
 62
     0
 10
108.544
 20
92.9488
 30
0.0
 11
107.745
 21
92.9488
 31
0.0
  0
LINE
  8
0
 62
     0
 10
107.745
 20
92.9488
 30
0.0
 11
107.745
 21
90.0493
 31
0.0
  0
LINE
  8
0
 62
     0
 10
107.745
 20
90.0493
 30
0.0
 11
108.544
 21
90.0493
 31
0.0
  0
LINE
  8
0
 62
     0
 10
108.544
 20
90.0493
 30
0.0
 11
108.544
 21
84.0493
 31
0.0
  0
LINE
  8
0
 62
     0
 10
108.544
 20
84.0493
 30
0.0
 11
107.745
 21
84.0493
 31
0.0
  0
LINE
  8
0
 62
     0
 10
107.745
 20
84.0493
 30
0.0
 11
107.745
 21
81.1484
 31
0.0
  0
LINE
  8
0
 62
     0
 10
107.745
 20
81.1484
 30
0.0
 11
108.544
 21
81.1484
 31
0.0
  0
LINE
  8
0
 62
     0
 10
108.544
 20
81.1484
 30
0.0
 11
108.544
 21
80.1494
 31
0.0
  0
LINE
  8
0
 62
     0
 10
108.544
 20
80.1494
 30
0.0
 11
122.345
 21
80.1494
 31
0.0
  0
LINE
  8
0
 62
     0
 10
122.345
 20
80.1494
 30
0.0
 11
122.345
 21
81.1484
 31
0.0
  0
LINE
  8
0
 62
     0
 10
122.345
 20
81.1484
 30
0.0
 11
123.144
 21
81.1484
 31
0.0
  0
LINE
  8
0
 62
     0
 10
123.144
 20
81.1484
 30
0.0
 11
123.144
 21
84.0493
 31
0.0
  0
LINE
  8
0
 62
     0
 10
123.144
 20
84.0493
 30
0.0
 11
122.345
 21
84.0493
 31
0.0
  0
LINE
  8
0
 62
     0
 10
122.345
 20
84.0493
 30
0.0
 11
122.345
 21
90.0493
 31
0.0
  0
LINE
  8
0
 62
     0
 10
122.345
 20
90.0493
 30
0.0
 11
123.144
 21
90.0493
 31
0.0
  0
LINE
  8
0
 62
     0
 10
123.144
 20
90.0493
 30
0.0
 11
123.144
 21
92.9488
 31
0.0
  0
LINE
  8
0
 62
     0
 10
123.144
 20
92.9488
 30
0.0
 11
122.345
 21
92.9488
 31
0.0
  0
LINE
  8
0
 62
     0
 10
122.345
 20
92.9488
 30
0.0
 11
122.345
 21
93.9493
 31
0.0
  0
LINE
  8
0
 62
     0
 10
122.345
 20
93.9493
 30
0.0
 11
108.544
 21
93.9493
 31
0.0
  0
LINE
  8
0
 62
     0
 10
89.4941
 20
93.9493
 30
0.0
 11
89.4941
 21
92.9488
 31
0.0
  0
LINE
  8
0
 62
     0
 10
89.4941
 20
92.9488
 30
0.0
 11
88.6961
 21
92.9488
 31
0.0
  0
LINE
  8
0
 62
     0
 10
88.6961
 20
92.9488
 30
0.0
 11
88.6961
 21
90.0493
 31
0.0
  0
LINE
  8
0
 62
     0
 10
88.6961
 20
90.0493
 30
0.0
 11
89.4941
 21
90.0493
 31
0.0
  0
LINE
  8
0
 62
     0
 10
89.4941
 20
90.0493
 30
0.0
 11
89.4941
 21
84.0493
 31
0.0
  0
LINE
  8
0
 62
     0
 10
89.4941
 20
84.0493
 30
0.0
 11
88.6961
 21
84.0493
 31
0.0
  0
LINE
  8
0
 62
     0
 10
88.6961
 20
84.0493
 30
0.0
 11
88.6961
 21
81.1484
 31
0.0
  0
LINE
  8
0
 62
     0
 10
88.6961
 20
81.1484
 30
0.0
 11
89.4941
 21
81.1484
 31
0.0
  0
LINE
  8
0
 62
     0
 10
89.4941
 20
81.1484
 30
0.0
 11
89.4941
 21
80.1494
 31
0.0
  0
LINE
  8
0
 62
     0
 10
89.4941
 20
80.1494
 30
0.0
 11
103.295
 21
80.1494
 31
0.0
  0
LINE
  8
0
 62
     0
 10
103.295
 20
80.1494
 30
0.0
 11
103.295
 21
81.1484
 31
0.0
  0
LINE
  8
0
 62
     0
 10
103.295
 20
81.1484
 30
0.0
 11
104.096
 21
81.1484
 31
0.0
  0
LINE
  8
0
 62
     0
 10
104.096
 20
81.1484
 30
0.0
 11
104.096
 21
84.0493
 31
0.0
  0
LINE
  8
0
 62
     0
 10
104.096
 20
84.0493
 30
0.0
 11
103.295
 21
84.0493
 31
0.0
  0
LINE
  8
0
 62
     0
 10
103.295
 20
84.0493
 30
0.0
 11
103.295
 21
90.0493
 31
0.0
  0
LINE
  8
0
 62
     0
 10
103.295
 20
90.0493
 30
0.0
 11
104.096
 21
90.0493
 31
0.0
  0
LINE
  8
0
 62
     0
 10
104.096
 20
90.0493
 30
0.0
 11
104.096
 21
92.9488
 31
0.0
  0
LINE
  8
0
 62
     0
 10
104.096
 20
92.9488
 30
0.0
 11
103.295
 21
92.9488
 31
0.0
  0
LINE
  8
0
 62
     0
 10
103.295
 20
92.9488
 30
0.0
 11
103.295
 21
93.9493
 31
0.0
  0
LINE
  8
0
 62
     0
 10
103.295
 20
93.9493
 30
0.0
 11
89.4941
 21
93.9493
 31
0.0
  0
LINE
  8
0
 62
     0
 10
70.4455
 20
93.9493
 30
0.0
 11
70.4455
 21
92.9488
 31
0.0
  0
LINE
  8
0
 62
     0
 10
70.4455
 20
92.9488
 30
0.0
 11
69.6461
 21
92.9488
 31
0.0
  0
LINE
  8
0
 62
     0
 10
69.6461
 20
92.9488
 30
0.0
 11
69.6461
 21
90.0493
 31
0.0
  0
LINE
  8
0
 62
     0
 10
69.6461
 20
90.0493
 30
0.0
 11
70.4455
 21
90.0493
 31
0.0
  0
LINE
  8
0
 62
     0
 10
70.4455
 20
90.0493
 30
0.0
 11
70.4455
 21
84.0493
 31
0.0
  0
LINE
  8
0
 62
     0
 10
70.4455
 20
84.0493
 30
0.0
 11
69.6461
 21
84.0493
 31
0.0
  0
LINE
  8
0
 62
     0
 10
69.6461
 20
84.0493
 30
0.0
 11
69.6461
 21
81.1484
 31
0.0
  0
LINE
  8
0
 62
     0
 10
69.6461
 20
81.1484
 30
0.0
 11
70.4455
 21
81.1484
 31
0.0
  0
LINE
  8
0
 62
     0
 10
70.4455
 20
81.1484
 30
0.0
 11
70.4455
 21
80.1494
 31
0.0
  0
LINE
  8
0
 62
     0
 10
70.4455
 20
80.1494
 30
0.0
 11
84.2451
 21
80.1494
 31
0.0
  0
LINE
  8
0
 62
     0
 10
84.2451
 20
80.1494
 30
0.0
 11
84.2451
 21
81.1484
 31
0.0
  0
LINE
  8
0
 62
     0
 10
84.2451
 20
81.1484
 30
0.0
 11
85.0456
 21
81.1484
 31
0.0
  0
LINE
  8
0
 62
     0
 10
85.0456
 20
81.1484
 30
0.0
 11
85.0456
 21
84.0493
 31
0.0
  0
LINE
  8
0
 62
     0
 10
85.0456
 20
84.0493
 30
0.0
 11
84.2451
 21
84.0493
 31
0.0
  0
LINE
  8
0
 62
     0
 10
84.2451
 20
84.0493
 30
0.0
 11
84.2451
 21
90.0493
 31
0.0
  0
LINE
  8
0
 62
     0
 10
84.2451
 20
90.0493
 30
0.0
 11
85.0456
 21
90.0493
 31
0.0
  0
LINE
  8
0
 62
     0
 10
85.0456
 20
90.0493
 30
0.0
 11
85.0456
 21
92.9488
 31
0.0
  0
LINE
  8
0
 62
     0
 10
85.0456
 20
92.9488
 30
0.0
 11
84.2451
 21
92.9488
 31
0.0
  0
LINE
  8
0
 62
     0
 10
84.2451
 20
92.9488
 30
0.0
 11
84.2451
 21
93.9493
 31
0.0
  0
LINE
  8
0
 62
     0
 10
84.2451
 20
93.9493
 30
0.0
 11
70.4455
 21
93.9493
 31
0.0
  0
LINE
  8
0
 62
     0
 10
51.3955
 20
93.9493
 30
0.0
 11
51.3955
 21
92.9488
 31
0.0
  0
LINE
  8
0
 62
     0
 10
51.3955
 20
92.9488
 30
0.0
 11
50.5961
 21
92.9488
 31
0.0
  0
LINE
  8
0
 62
     0
 10
50.5961
 20
92.9488
 30
0.0
 11
50.5961
 21
90.0493
 31
0.0
  0
LINE
  8
0
 62
     0
 10
50.5961
 20
90.0493
 30
0.0
 11
51.3955
 21
90.0493
 31
0.0
  0
LINE
  8
0
 62
     0
 10
51.3955
 20
90.0493
 30
0.0
 11
51.3955
 21
84.0493
 31
0.0
  0
LINE
  8
0
 62
     0
 10
51.3955
 20
84.0493
 30
0.0
 11
50.5961
 21
84.0493
 31
0.0
  0
LINE
  8
0
 62
     0
 10
50.5961
 20
84.0493
 30
0.0
 11
50.5961
 21
81.1484
 31
0.0
  0
LINE
  8
0
 62
     0
 10
50.5961
 20
81.1484
 30
0.0
 11
51.3955
 21
81.1484
 31
0.0
  0
LINE
  8
0
 62
     0
 10
51.3955
 20
81.1484
 30
0.0
 11
51.3955
 21
80.1494
 31
0.0
  0
LINE
  8
0
 62
     0
 10
51.3955
 20
80.1494
 30
0.0
 11
65.1951
 21
80.1494
 31
0.0
  0
LINE
  8
0
 62
     0
 10
65.1951
 20
80.1494
 30
0.0
 11
65.1951
 21
81.1484
 31
0.0
  0
LINE
  8
0
 62
     0
 10
65.1951
 20
81.1484
 30
0.0
 11
65.9956
 21
81.1484
 31
0.0
  0
LINE
  8
0
 62
     0
 10
65.9956
 20
81.1484
 30
0.0
 11
65.9956
 21
84.0493
 31
0.0
  0
LINE
  8
0
 62
     0
 10
65.9956
 20
84.0493
 30
0.0
 11
65.1951
 21
84.0493
 31
0.0
  0
LINE
  8
0
 62
     0
 10
65.1951
 20
84.0493
 30
0.0
 11
65.1951
 21
90.0493
 31
0.0
  0
LINE
  8
0
 62
     0
 10
65.1951
 20
90.0493
 30
0.0
 11
65.9956
 21
90.0493
 31
0.0
  0
LINE
  8
0
 62
     0
 10
65.9956
 20
90.0493
 30
0.0
 11
65.9956
 21
92.9488
 31
0.0
  0
LINE
  8
0
 62
     0
 10
65.9956
 20
92.9488
 30
0.0
 11
65.1951
 21
92.9488
 31
0.0
  0
LINE
  8
0
 62
     0
 10
65.1951
 20
92.9488
 30
0.0
 11
65.1951
 21
93.9493
 31
0.0
  0
LINE
  8
0
 62
     0
 10
65.1951
 20
93.9493
 30
0.0
 11
51.3955
 21
93.9493
 31
0.0
  0
LINE
  8
0
 62
     0
 10
27.5828
 20
93.9493
 30
0.0
 11
27.5828
 21
92.9488
 31
0.0
  0
LINE
  8
0
 62
     0
 10
27.5828
 20
92.9488
 30
0.0
 11
26.7822
 21
92.9488
 31
0.0
  0
LINE
  8
0
 62
     0
 10
26.7822
 20
92.9488
 30
0.0
 11
26.7822
 21
90.0493
 31
0.0
  0
LINE
  8
0
 62
     0
 10
26.7822
 20
90.0493
 30
0.0
 11
27.5828
 21
90.0493
 31
0.0
  0
LINE
  8
0
 62
     0
 10
27.5828
 20
90.0493
 30
0.0
 11
27.5828
 21
84.0493
 31
0.0
  0
LINE
  8
0
 62
     0
 10
27.5828
 20
84.0493
 30
0.0
 11
26.7822
 21
84.0493
 31
0.0
  0
LINE
  8
0
 62
     0
 10
26.7822
 20
84.0493
 30
0.0
 11
26.7822
 21
81.1484
 31
0.0
  0
LINE
  8
0
 62
     0
 10
26.7822
 20
81.1484
 30
0.0
 11
27.5828
 21
81.1484
 31
0.0
  0
LINE
  8
0
 62
     0
 10
27.5828
 20
81.1484
 30
0.0
 11
27.5828
 21
80.1494
 31
0.0
  0
LINE
  8
0
 62
     0
 10
27.5828
 20
80.1494
 30
0.0
 11
41.3826
 21
80.1494
 31
0.0
  0
LINE
  8
0
 62
     0
 10
41.3826
 20
80.1494
 30
0.0
 11
41.3826
 21
81.1484
 31
0.0
  0
LINE
  8
0
 62
     0
 10
41.3826
 20
81.1484
 30
0.0
 11
42.183
 21
81.1484
 31
0.0
  0
LINE
  8
0
 62
     0
 10
42.183
 20
81.1484
 30
0.0
 11
42.183
 21
84.0493
 31
0.0
  0
LINE
  8
0
 62
     0
 10
42.183
 20
84.0493
 30
0.0
 11
41.3826
 21
84.0493
 31
0.0
  0
LINE
  8
0
 62
     0
 10
41.3826
 20
84.0493
 30
0.0
 11
41.3826
 21
90.0493
 31
0.0
  0
LINE
  8
0
 62
     0
 10
41.3826
 20
90.0493
 30
0.0
 11
42.183
 21
90.0493
 31
0.0
  0
LINE
  8
0
 62
     0
 10
42.183
 20
90.0493
 30
0.0
 11
42.183
 21
92.9488
 31
0.0
  0
LINE
  8
0
 62
     0
 10
42.183
 20
92.9488
 30
0.0
 11
41.3826
 21
92.9488
 31
0.0
  0
LINE
  8
0
 62
     0
 10
41.3826
 20
92.9488
 30
0.0
 11
41.3826
 21
93.9493
 31
0.0
  0
LINE
  8
0
 62
     0
 10
41.3826
 20
93.9493
 30
0.0
 11
27.5828
 21
93.9493
 31
0.0
  0
LINE
  8
0
 62
     0
 10
279.995
 20
112.999
 30
0.0
 11
279.995
 21
111.999
 31
0.0
  0
LINE
  8
0
 62
     0
 10
279.995
 20
111.999
 30
0.0
 11
279.196
 21
111.999
 31
0.0
  0
LINE
  8
0
 62
     0
 10
279.196
 20
111.999
 30
0.0
 11
279.196
 21
109.099
 31
0.0
  0
LINE
  8
0
 62
     0
 10
279.196
 20
109.099
 30
0.0
 11
279.995
 21
109.099
 31
0.0
  0
LINE
  8
0
 62
     0
 10
279.995
 20
109.099
 30
0.0
 11
279.995
 21
108.299
 31
0.0
  0
LINE
  8
0
 62
     0
 10
279.995
 20
108.299
 30
0.0
 11
278.27
 21
108.299
 31
0.0
  0
LINE
  8
0
 62
     0
 10
278.27
 20
108.299
 30
0.0
 11
278.27
 21
111.529
 31
0.0
  0
LINE
  8
0
 62
     0
 10
278.27
 20
111.529
 30
0.0
 11
271.72
 21
111.529
 31
0.0
  0
LINE
  8
0
 62
     0
 10
271.72
 20
111.529
 30
0.0
 11
271.72
 21
108.299
 31
0.0
  0
LINE
  8
0
 62
     0
 10
271.72
 20
108.299
 30
0.0
 11
270.896
 21
108.299
 31
0.0
  0
LINE
  8
0
 62
     0
 10
270.896
 20
108.299
 30
0.0
 11
270.896
 21
105.698
 31
0.0
  0
LINE
  8
0
 62
     0
 10
270.896
 20
105.698
 30
0.0
 11
271.72
 21
105.698
 31
0.0
  0
LINE
  8
0
 62
     0
 10
271.72
 20
105.698
 30
0.0
 11
271.72
 21
99.4297
 31
0.0
  0
LINE
  8
0
 62
     0
 10
271.72
 20
99.4297
 30
0.0
 11
273.445
 21
99.4297
 31
0.0
  0
LINE
  8
0
 62
     0
 10
273.445
 20
99.4297
 30
0.0
 11
273.445
 21
98.2292
 31
0.0
  0
LINE
  8
0
 62
     0
 10
273.445
 20
98.2292
 30
0.0
 11
276.546
 21
98.2292
 31
0.0
  0
LINE
  8
0
 62
     0
 10
276.546
 20
98.2292
 30
0.0
 11
276.546
 21
99.4297
 31
0.0
  0
LINE
  8
0
 62
     0
 10
276.546
 20
99.4297
 30
0.0
 11
278.27
 21
99.4297
 31
0.0
  0
LINE
  8
0
 62
     0
 10
278.27
 20
99.4297
 30
0.0
 11
278.27
 21
103.899
 31
0.0
  0
LINE
  8
0
 62
     0
 10
278.27
 20
103.899
 30
0.0
 11
279.995
 21
103.899
 31
0.0
  0
LINE
  8
0
 62
     0
 10
279.995
 20
103.899
 30
0.0
 11
279.995
 21
103.099
 31
0.0
  0
LINE
  8
0
 62
     0
 10
279.995
 20
103.099
 30
0.0
 11
279.196
 21
103.099
 31
0.0
  0
LINE
  8
0
 62
     0
 10
279.196
 20
103.099
 30
0.0
 11
279.196
 21
100.198
 31
0.0
  0
LINE
  8
0
 62
     0
 10
279.196
 20
100.198
 30
0.0
 11
279.995
 21
100.198
 31
0.0
  0
LINE
  8
0
 62
     0
 10
279.995
 20
100.198
 30
0.0
 11
279.995
 21
99.1994
 31
0.0
  0
LINE
  8
0
 62
     0
 10
279.995
 20
99.1994
 30
0.0
 11
293.795
 21
99.1994
 31
0.0
  0
LINE
  8
0
 62
     0
 10
293.795
 20
99.1994
 30
0.0
 11
293.795
 21
100.198
 31
0.0
  0
LINE
  8
0
 62
     0
 10
293.795
 20
100.198
 30
0.0
 11
294.596
 21
100.198
 31
0.0
  0
LINE
  8
0
 62
     0
 10
294.596
 20
100.198
 30
0.0
 11
294.596
 21
103.099
 31
0.0
  0
LINE
  8
0
 62
     0
 10
294.596
 20
103.099
 30
0.0
 11
293.795
 21
103.099
 31
0.0
  0
LINE
  8
0
 62
     0
 10
293.795
 20
103.099
 30
0.0
 11
293.795
 21
103.899
 31
0.0
  0
LINE
  8
0
 62
     0
 10
293.795
 20
103.899
 30
0.0
 11
295.52
 21
103.899
 31
0.0
  0
LINE
  8
0
 62
     0
 10
295.52
 20
103.899
 30
0.0
 11
295.52
 21
99.4297
 31
0.0
  0
LINE
  8
0
 62
     0
 10
295.52
 20
99.4297
 30
0.0
 11
297.246
 21
99.4297
 31
0.0
  0
LINE
  8
0
 62
     0
 10
297.246
 20
99.4297
 30
0.0
 11
297.246
 21
98.2292
 31
0.0
  0
LINE
  8
0
 62
     0
 10
297.246
 20
98.2292
 30
0.0
 11
300.345
 21
98.2292
 31
0.0
  0
LINE
  8
0
 62
     0
 10
300.345
 20
98.2292
 30
0.0
 11
300.345
 21
99.4297
 31
0.0
  0
LINE
  8
0
 62
     0
 10
300.345
 20
99.4297
 30
0.0
 11
302.07
 21
99.4297
 31
0.0
  0
LINE
  8
0
 62
     0
 10
302.07
 20
99.4297
 30
0.0
 11
302.07
 21
105.698
 31
0.0
  0
LINE
  8
0
 62
     0
 10
302.07
 20
105.698
 30
0.0
 11
302.896
 21
105.698
 31
0.0
  0
LINE
  8
0
 62
     0
 10
302.896
 20
105.698
 30
0.0
 11
302.896
 21
108.299
 31
0.0
  0
LINE
  8
0
 62
     0
 10
302.896
 20
108.299
 30
0.0
 11
302.07
 21
108.299
 31
0.0
  0
LINE
  8
0
 62
     0
 10
302.07
 20
108.299
 30
0.0
 11
302.07
 21
111.529
 31
0.0
  0
LINE
  8
0
 62
     0
 10
302.07
 20
111.529
 30
0.0
 11
295.52
 21
111.529
 31
0.0
  0
LINE
  8
0
 62
     0
 10
295.52
 20
111.529
 30
0.0
 11
295.52
 21
108.299
 31
0.0
  0
LINE
  8
0
 62
     0
 10
295.52
 20
108.299
 30
0.0
 11
293.795
 21
108.299
 31
0.0
  0
LINE
  8
0
 62
     0
 10
293.795
 20
108.299
 30
0.0
 11
293.795
 21
109.099
 31
0.0
  0
LINE
  8
0
 62
     0
 10
293.795
 20
109.099
 30
0.0
 11
294.596
 21
109.099
 31
0.0
  0
LINE
  8
0
 62
     0
 10
294.596
 20
109.099
 30
0.0
 11
294.596
 21
111.999
 31
0.0
  0
LINE
  8
0
 62
     0
 10
294.596
 20
111.999
 30
0.0
 11
293.795
 21
111.999
 31
0.0
  0
LINE
  8
0
 62
     0
 10
293.795
 20
111.999
 30
0.0
 11
293.795
 21
112.999
 31
0.0
  0
LINE
  8
0
 62
     0
 10
293.795
 20
112.999
 30
0.0
 11
279.995
 21
112.999
 31
0.0
  0
LINE
  8
0
 62
     0
 10
351.433
 20
112.999
 30
0.0
 11
351.433
 21
111.999
 31
0.0
  0
LINE
  8
0
 62
     0
 10
351.433
 20
111.999
 30
0.0
 11
350.632
 21
111.999
 31
0.0
  0
LINE
  8
0
 62
     0
 10
350.632
 20
111.999
 30
0.0
 11
350.632
 21
109.099
 31
0.0
  0
LINE
  8
0
 62
     0
 10
350.632
 20
109.099
 30
0.0
 11
351.433
 21
109.099
 31
0.0
  0
LINE
  8
0
 62
     0
 10
351.433
 20
109.099
 30
0.0
 11
351.433
 21
103.099
 31
0.0
  0
LINE
  8
0
 62
     0
 10
351.433
 20
103.099
 30
0.0
 11
350.632
 21
103.099
 31
0.0
  0
LINE
  8
0
 62
     0
 10
350.632
 20
103.099
 30
0.0
 11
350.632
 21
100.198
 31
0.0
  0
LINE
  8
0
 62
     0
 10
350.632
 20
100.198
 30
0.0
 11
351.433
 21
100.198
 31
0.0
  0
LINE
  8
0
 62
     0
 10
351.433
 20
100.198
 30
0.0
 11
351.433
 21
99.1994
 31
0.0
  0
LINE
  8
0
 62
     0
 10
351.433
 20
99.1994
 30
0.0
 11
365.231
 21
99.1994
 31
0.0
  0
LINE
  8
0
 62
     0
 10
365.231
 20
99.1994
 30
0.0
 11
365.231
 21
100.198
 31
0.0
  0
LINE
  8
0
 62
     0
 10
365.231
 20
100.198
 30
0.0
 11
366.032
 21
100.198
 31
0.0
  0
LINE
  8
0
 62
     0
 10
366.032
 20
100.198
 30
0.0
 11
366.032
 21
103.099
 31
0.0
  0
LINE
  8
0
 62
     0
 10
366.032
 20
103.099
 30
0.0
 11
365.231
 21
103.099
 31
0.0
  0
LINE
  8
0
 62
     0
 10
365.231
 20
103.099
 30
0.0
 11
365.231
 21
109.099
 31
0.0
  0
LINE
  8
0
 62
     0
 10
365.231
 20
109.099
 30
0.0
 11
366.032
 21
109.099
 31
0.0
  0
LINE
  8
0
 62
     0
 10
366.032
 20
109.099
 30
0.0
 11
366.032
 21
111.999
 31
0.0
  0
LINE
  8
0
 62
     0
 10
366.032
 20
111.999
 30
0.0
 11
365.231
 21
111.999
 31
0.0
  0
LINE
  8
0
 62
     0
 10
365.231
 20
111.999
 30
0.0
 11
365.231
 21
112.999
 31
0.0
  0
LINE
  8
0
 62
     0
 10
365.231
 20
112.999
 30
0.0
 11
351.433
 21
112.999
 31
0.0
  0
LINE
  8
0
 62
     0
 10
332.383
 20
112.999
 30
0.0
 11
332.383
 21
111.999
 31
0.0
  0
LINE
  8
0
 62
     0
 10
332.383
 20
111.999
 30
0.0
 11
331.582
 21
111.999
 31
0.0
  0
LINE
  8
0
 62
     0
 10
331.582
 20
111.999
 30
0.0
 11
331.582
 21
109.099
 31
0.0
  0
LINE
  8
0
 62
     0
 10
331.582
 20
109.099
 30
0.0
 11
332.383
 21
109.099
 31
0.0
  0
LINE
  8
0
 62
     0
 10
332.383
 20
109.099
 30
0.0
 11
332.383
 21
103.099
 31
0.0
  0
LINE
  8
0
 62
     0
 10
332.383
 20
103.099
 30
0.0
 11
331.582
 21
103.099
 31
0.0
  0
LINE
  8
0
 62
     0
 10
331.582
 20
103.099
 30
0.0
 11
331.582
 21
100.198
 31
0.0
  0
LINE
  8
0
 62
     0
 10
331.582
 20
100.198
 30
0.0
 11
332.383
 21
100.198
 31
0.0
  0
LINE
  8
0
 62
     0
 10
332.383
 20
100.198
 30
0.0
 11
332.383
 21
99.1994
 31
0.0
  0
LINE
  8
0
 62
     0
 10
332.383
 20
99.1994
 30
0.0
 11
346.183
 21
99.1994
 31
0.0
  0
LINE
  8
0
 62
     0
 10
346.183
 20
99.1994
 30
0.0
 11
346.183
 21
100.198
 31
0.0
  0
LINE
  8
0
 62
     0
 10
346.183
 20
100.198
 30
0.0
 11
346.983
 21
100.198
 31
0.0
  0
LINE
  8
0
 62
     0
 10
346.983
 20
100.198
 30
0.0
 11
346.983
 21
103.099
 31
0.0
  0
LINE
  8
0
 62
     0
 10
346.983
 20
103.099
 30
0.0
 11
346.183
 21
103.099
 31
0.0
  0
LINE
  8
0
 62
     0
 10
346.183
 20
103.099
 30
0.0
 11
346.183
 21
109.099
 31
0.0
  0
LINE
  8
0
 62
     0
 10
346.183
 20
109.099
 30
0.0
 11
346.983
 21
109.099
 31
0.0
  0
LINE
  8
0
 62
     0
 10
346.983
 20
109.099
 30
0.0
 11
346.983
 21
111.999
 31
0.0
  0
LINE
  8
0
 62
     0
 10
346.983
 20
111.999
 30
0.0
 11
346.183
 21
111.999
 31
0.0
  0
LINE
  8
0
 62
     0
 10
346.183
 20
111.999
 30
0.0
 11
346.183
 21
112.999
 31
0.0
  0
LINE
  8
0
 62
     0
 10
346.183
 20
112.999
 30
0.0
 11
332.383
 21
112.999
 31
0.0
  0
LINE
  8
0
 62
     0
 10
313.333
 20
112.999
 30
0.0
 11
313.333
 21
111.999
 31
0.0
  0
LINE
  8
0
 62
     0
 10
313.333
 20
111.999
 30
0.0
 11
312.532
 21
111.999
 31
0.0
  0
LINE
  8
0
 62
     0
 10
312.532
 20
111.999
 30
0.0
 11
312.532
 21
109.099
 31
0.0
  0
LINE
  8
0
 62
     0
 10
312.532
 20
109.099
 30
0.0
 11
313.333
 21
109.099
 31
0.0
  0
LINE
  8
0
 62
     0
 10
313.333
 20
109.099
 30
0.0
 11
313.333
 21
103.099
 31
0.0
  0
LINE
  8
0
 62
     0
 10
313.333
 20
103.099
 30
0.0
 11
312.532
 21
103.099
 31
0.0
  0
LINE
  8
0
 62
     0
 10
312.532
 20
103.099
 30
0.0
 11
312.532
 21
100.198
 31
0.0
  0
LINE
  8
0
 62
     0
 10
312.532
 20
100.198
 30
0.0
 11
313.333
 21
100.198
 31
0.0
  0
LINE
  8
0
 62
     0
 10
313.333
 20
100.198
 30
0.0
 11
313.333
 21
99.1994
 31
0.0
  0
LINE
  8
0
 62
     0
 10
313.333
 20
99.1994
 30
0.0
 11
327.133
 21
99.1994
 31
0.0
  0
LINE
  8
0
 62
     0
 10
327.133
 20
99.1994
 30
0.0
 11
327.133
 21
100.198
 31
0.0
  0
LINE
  8
0
 62
     0
 10
327.133
 20
100.198
 30
0.0
 11
327.933
 21
100.198
 31
0.0
  0
LINE
  8
0
 62
     0
 10
327.933
 20
100.198
 30
0.0
 11
327.933
 21
103.099
 31
0.0
  0
LINE
  8
0
 62
     0
 10
327.933
 20
103.099
 30
0.0
 11
327.133
 21
103.099
 31
0.0
  0
LINE
  8
0
 62
     0
 10
327.133
 20
103.099
 30
0.0
 11
327.133
 21
109.099
 31
0.0
  0
LINE
  8
0
 62
     0
 10
327.133
 20
109.099
 30
0.0
 11
327.933
 21
109.099
 31
0.0
  0
LINE
  8
0
 62
     0
 10
327.933
 20
109.099
 30
0.0
 11
327.933
 21
111.999
 31
0.0
  0
LINE
  8
0
 62
     0
 10
327.933
 20
111.999
 30
0.0
 11
327.133
 21
111.999
 31
0.0
  0
LINE
  8
0
 62
     0
 10
327.133
 20
111.999
 30
0.0
 11
327.133
 21
112.999
 31
0.0
  0
LINE
  8
0
 62
     0
 10
327.133
 20
112.999
 30
0.0
 11
313.333
 21
112.999
 31
0.0
  0
LINE
  8
0
 62
     0
 10
251.42
 20
112.999
 30
0.0
 11
251.42
 21
111.999
 31
0.0
  0
LINE
  8
0
 62
     0
 10
251.42
 20
111.999
 30
0.0
 11
250.621
 21
111.999
 31
0.0
  0
LINE
  8
0
 62
     0
 10
250.621
 20
111.999
 30
0.0
 11
250.621
 21
109.099
 31
0.0
  0
LINE
  8
0
 62
     0
 10
250.621
 20
109.099
 30
0.0
 11
251.42
 21
109.099
 31
0.0
  0
LINE
  8
0
 62
     0
 10
251.42
 20
109.099
 30
0.0
 11
251.42
 21
103.099
 31
0.0
  0
LINE
  8
0
 62
     0
 10
251.42
 20
103.099
 30
0.0
 11
250.621
 21
103.099
 31
0.0
  0
LINE
  8
0
 62
     0
 10
250.621
 20
103.099
 30
0.0
 11
250.621
 21
100.198
 31
0.0
  0
LINE
  8
0
 62
     0
 10
250.621
 20
100.198
 30
0.0
 11
251.42
 21
100.198
 31
0.0
  0
LINE
  8
0
 62
     0
 10
251.42
 20
100.198
 30
0.0
 11
251.42
 21
99.1994
 31
0.0
  0
LINE
  8
0
 62
     0
 10
251.42
 20
99.1994
 30
0.0
 11
265.22
 21
99.1994
 31
0.0
  0
LINE
  8
0
 62
     0
 10
265.22
 20
99.1994
 30
0.0
 11
265.22
 21
100.198
 31
0.0
  0
LINE
  8
0
 62
     0
 10
265.22
 20
100.198
 30
0.0
 11
266.021
 21
100.198
 31
0.0
  0
LINE
  8
0
 62
     0
 10
266.021
 20
100.198
 30
0.0
 11
266.021
 21
103.099
 31
0.0
  0
LINE
  8
0
 62
     0
 10
266.021
 20
103.099
 30
0.0
 11
265.22
 21
103.099
 31
0.0
  0
LINE
  8
0
 62
     0
 10
265.22
 20
103.099
 30
0.0
 11
265.22
 21
109.099
 31
0.0
  0
LINE
  8
0
 62
     0
 10
265.22
 20
109.099
 30
0.0
 11
266.021
 21
109.099
 31
0.0
  0
LINE
  8
0
 62
     0
 10
266.021
 20
109.099
 30
0.0
 11
266.021
 21
111.999
 31
0.0
  0
LINE
  8
0
 62
     0
 10
266.021
 20
111.999
 30
0.0
 11
265.22
 21
111.999
 31
0.0
  0
LINE
  8
0
 62
     0
 10
265.22
 20
111.999
 30
0.0
 11
265.22
 21
112.999
 31
0.0
  0
LINE
  8
0
 62
     0
 10
265.22
 20
112.999
 30
0.0
 11
251.42
 21
112.999
 31
0.0
  0
LINE
  8
0
 62
     0
 10
232.37
 20
112.999
 30
0.0
 11
232.37
 21
111.999
 31
0.0
  0
LINE
  8
0
 62
     0
 10
232.37
 20
111.999
 30
0.0
 11
231.571
 21
111.999
 31
0.0
  0
LINE
  8
0
 62
     0
 10
231.571
 20
111.999
 30
0.0
 11
231.571
 21
109.099
 31
0.0
  0
LINE
  8
0
 62
     0
 10
231.571
 20
109.099
 30
0.0
 11
232.37
 21
109.099
 31
0.0
  0
LINE
  8
0
 62
     0
 10
232.37
 20
109.099
 30
0.0
 11
232.37
 21
103.099
 31
0.0
  0
LINE
  8
0
 62
     0
 10
232.37
 20
103.099
 30
0.0
 11
231.571
 21
103.099
 31
0.0
  0
LINE
  8
0
 62
     0
 10
231.571
 20
103.099
 30
0.0
 11
231.571
 21
100.198
 31
0.0
  0
LINE
  8
0
 62
     0
 10
231.571
 20
100.198
 30
0.0
 11
232.37
 21
100.198
 31
0.0
  0
LINE
  8
0
 62
     0
 10
232.37
 20
100.198
 30
0.0
 11
232.37
 21
99.1994
 31
0.0
  0
LINE
  8
0
 62
     0
 10
232.37
 20
99.1994
 30
0.0
 11
246.17
 21
99.1994
 31
0.0
  0
LINE
  8
0
 62
     0
 10
246.17
 20
99.1994
 30
0.0
 11
246.17
 21
100.198
 31
0.0
  0
LINE
  8
0
 62
     0
 10
246.17
 20
100.198
 30
0.0
 11
246.971
 21
100.198
 31
0.0
  0
LINE
  8
0
 62
     0
 10
246.971
 20
100.198
 30
0.0
 11
246.971
 21
103.099
 31
0.0
  0
LINE
  8
0
 62
     0
 10
246.971
 20
103.099
 30
0.0
 11
246.17
 21
103.099
 31
0.0
  0
LINE
  8
0
 62
     0
 10
246.17
 20
103.099
 30
0.0
 11
246.17
 21
109.099
 31
0.0
  0
LINE
  8
0
 62
     0
 10
246.17
 20
109.099
 30
0.0
 11
246.971
 21
109.099
 31
0.0
  0
LINE
  8
0
 62
     0
 10
246.971
 20
109.099
 30
0.0
 11
246.971
 21
111.999
 31
0.0
  0
LINE
  8
0
 62
     0
 10
246.971
 20
111.999
 30
0.0
 11
246.17
 21
111.999
 31
0.0
  0
LINE
  8
0
 62
     0
 10
246.17
 20
111.999
 30
0.0
 11
246.17
 21
112.999
 31
0.0
  0
LINE
  8
0
 62
     0
 10
246.17
 20
112.999
 30
0.0
 11
232.37
 21
112.999
 31
0.0
  0
LINE
  8
0
 62
     0
 10
213.32
 20
112.999
 30
0.0
 11
213.32
 21
111.999
 31
0.0
  0
LINE
  8
0
 62
     0
 10
213.32
 20
111.999
 30
0.0
 11
212.521
 21
111.999
 31
0.0
  0
LINE
  8
0
 62
     0
 10
212.521
 20
111.999
 30
0.0
 11
212.521
 21
109.099
 31
0.0
  0
LINE
  8
0
 62
     0
 10
212.521
 20
109.099
 30
0.0
 11
213.32
 21
109.099
 31
0.0
  0
LINE
  8
0
 62
     0
 10
213.32
 20
109.099
 30
0.0
 11
213.32
 21
103.099
 31
0.0
  0
LINE
  8
0
 62
     0
 10
213.32
 20
103.099
 30
0.0
 11
212.521
 21
103.099
 31
0.0
  0
LINE
  8
0
 62
     0
 10
212.521
 20
103.099
 30
0.0
 11
212.521
 21
100.198
 31
0.0
  0
LINE
  8
0
 62
     0
 10
212.521
 20
100.198
 30
0.0
 11
213.32
 21
100.198
 31
0.0
  0
LINE
  8
0
 62
     0
 10
213.32
 20
100.198
 30
0.0
 11
213.32
 21
99.1994
 31
0.0
  0
LINE
  8
0
 62
     0
 10
213.32
 20
99.1994
 30
0.0
 11
227.12
 21
99.1994
 31
0.0
  0
LINE
  8
0
 62
     0
 10
227.12
 20
99.1994
 30
0.0
 11
227.12
 21
100.198
 31
0.0
  0
LINE
  8
0
 62
     0
 10
227.12
 20
100.198
 30
0.0
 11
227.921
 21
100.198
 31
0.0
  0
LINE
  8
0
 62
     0
 10
227.921
 20
100.198
 30
0.0
 11
227.921
 21
103.099
 31
0.0
  0
LINE
  8
0
 62
     0
 10
227.921
 20
103.099
 30
0.0
 11
227.12
 21
103.099
 31
0.0
  0
LINE
  8
0
 62
     0
 10
227.12
 20
103.099
 30
0.0
 11
227.12
 21
109.099
 31
0.0
  0
LINE
  8
0
 62
     0
 10
227.12
 20
109.099
 30
0.0
 11
227.921
 21
109.099
 31
0.0
  0
LINE
  8
0
 62
     0
 10
227.921
 20
109.099
 30
0.0
 11
227.921
 21
111.999
 31
0.0
  0
LINE
  8
0
 62
     0
 10
227.921
 20
111.999
 30
0.0
 11
227.12
 21
111.999
 31
0.0
  0
LINE
  8
0
 62
     0
 10
227.12
 20
111.999
 30
0.0
 11
227.12
 21
112.999
 31
0.0
  0
LINE
  8
0
 62
     0
 10
227.12
 20
112.999
 30
0.0
 11
213.32
 21
112.999
 31
0.0
  0
LINE
  8
0
 62
     0
 10
194.27
 20
112.999
 30
0.0
 11
194.27
 21
111.999
 31
0.0
  0
LINE
  8
0
 62
     0
 10
194.27
 20
111.999
 30
0.0
 11
193.471
 21
111.999
 31
0.0
  0
LINE
  8
0
 62
     0
 10
193.471
 20
111.999
 30
0.0
 11
193.471
 21
109.099
 31
0.0
  0
LINE
  8
0
 62
     0
 10
193.471
 20
109.099
 30
0.0
 11
194.27
 21
109.099
 31
0.0
  0
LINE
  8
0
 62
     0
 10
194.27
 20
109.099
 30
0.0
 11
194.27
 21
103.099
 31
0.0
  0
LINE
  8
0
 62
     0
 10
194.27
 20
103.099
 30
0.0
 11
193.471
 21
103.099
 31
0.0
  0
LINE
  8
0
 62
     0
 10
193.471
 20
103.099
 30
0.0
 11
193.471
 21
100.198
 31
0.0
  0
LINE
  8
0
 62
     0
 10
193.471
 20
100.198
 30
0.0
 11
194.27
 21
100.198
 31
0.0
  0
LINE
  8
0
 62
     0
 10
194.27
 20
100.198
 30
0.0
 11
194.27
 21
99.1994
 31
0.0
  0
LINE
  8
0
 62
     0
 10
194.27
 20
99.1994
 30
0.0
 11
208.07
 21
99.1994
 31
0.0
  0
LINE
  8
0
 62
     0
 10
208.07
 20
99.1994
 30
0.0
 11
208.07
 21
100.198
 31
0.0
  0
LINE
  8
0
 62
     0
 10
208.07
 20
100.198
 30
0.0
 11
208.871
 21
100.198
 31
0.0
  0
LINE
  8
0
 62
     0
 10
208.871
 20
100.198
 30
0.0
 11
208.871
 21
103.099
 31
0.0
  0
LINE
  8
0
 62
     0
 10
208.871
 20
103.099
 30
0.0
 11
208.07
 21
103.099
 31
0.0
  0
LINE
  8
0
 62
     0
 10
208.07
 20
103.099
 30
0.0
 11
208.07
 21
109.099
 31
0.0
  0
LINE
  8
0
 62
     0
 10
208.07
 20
109.099
 30
0.0
 11
208.871
 21
109.099
 31
0.0
  0
LINE
  8
0
 62
     0
 10
208.871
 20
109.099
 30
0.0
 11
208.871
 21
111.999
 31
0.0
  0
LINE
  8
0
 62
     0
 10
208.871
 20
111.999
 30
0.0
 11
208.07
 21
111.999
 31
0.0
  0
LINE
  8
0
 62
     0
 10
208.07
 20
111.999
 30
0.0
 11
208.07
 21
112.999
 31
0.0
  0
LINE
  8
0
 62
     0
 10
208.07
 20
112.999
 30
0.0
 11
194.27
 21
112.999
 31
0.0
  0
LINE
  8
0
 62
     0
 10
175.22
 20
112.999
 30
0.0
 11
175.22
 21
111.999
 31
0.0
  0
LINE
  8
0
 62
     0
 10
175.22
 20
111.999
 30
0.0
 11
174.421
 21
111.999
 31
0.0
  0
LINE
  8
0
 62
     0
 10
174.421
 20
111.999
 30
0.0
 11
174.421
 21
109.099
 31
0.0
  0
LINE
  8
0
 62
     0
 10
174.421
 20
109.099
 30
0.0
 11
175.22
 21
109.099
 31
0.0
  0
LINE
  8
0
 62
     0
 10
175.22
 20
109.099
 30
0.0
 11
175.22
 21
103.099
 31
0.0
  0
LINE
  8
0
 62
     0
 10
175.22
 20
103.099
 30
0.0
 11
174.421
 21
103.099
 31
0.0
  0
LINE
  8
0
 62
     0
 10
174.421
 20
103.099
 30
0.0
 11
174.421
 21
100.198
 31
0.0
  0
LINE
  8
0
 62
     0
 10
174.421
 20
100.198
 30
0.0
 11
175.22
 21
100.198
 31
0.0
  0
LINE
  8
0
 62
     0
 10
175.22
 20
100.198
 30
0.0
 11
175.22
 21
99.1994
 31
0.0
  0
LINE
  8
0
 62
     0
 10
175.22
 20
99.1994
 30
0.0
 11
189.02
 21
99.1994
 31
0.0
  0
LINE
  8
0
 62
     0
 10
189.02
 20
99.1994
 30
0.0
 11
189.02
 21
100.198
 31
0.0
  0
LINE
  8
0
 62
     0
 10
189.02
 20
100.198
 30
0.0
 11
189.821
 21
100.198
 31
0.0
  0
LINE
  8
0
 62
     0
 10
189.821
 20
100.198
 30
0.0
 11
189.821
 21
103.099
 31
0.0
  0
LINE
  8
0
 62
     0
 10
189.821
 20
103.099
 30
0.0
 11
189.02
 21
103.099
 31
0.0
  0
LINE
  8
0
 62
     0
 10
189.02
 20
103.099
 30
0.0
 11
189.02
 21
109.099
 31
0.0
  0
LINE
  8
0
 62
     0
 10
189.02
 20
109.099
 30
0.0
 11
189.821
 21
109.099
 31
0.0
  0
LINE
  8
0
 62
     0
 10
189.821
 20
109.099
 30
0.0
 11
189.821
 21
111.999
 31
0.0
  0
LINE
  8
0
 62
     0
 10
189.821
 20
111.999
 30
0.0
 11
189.02
 21
111.999
 31
0.0
  0
LINE
  8
0
 62
     0
 10
189.02
 20
111.999
 30
0.0
 11
189.02
 21
112.999
 31
0.0
  0
LINE
  8
0
 62
     0
 10
189.02
 20
112.999
 30
0.0
 11
175.22
 21
112.999
 31
0.0
  0
LINE
  8
0
 62
     0
 10
156.17
 20
112.999
 30
0.0
 11
156.17
 21
111.999
 31
0.0
  0
LINE
  8
0
 62
     0
 10
156.17
 20
111.999
 30
0.0
 11
155.371
 21
111.999
 31
0.0
  0
LINE
  8
0
 62
     0
 10
155.371
 20
111.999
 30
0.0
 11
155.371
 21
109.099
 31
0.0
  0
LINE
  8
0
 62
     0
 10
155.371
 20
109.099
 30
0.0
 11
156.17
 21
109.099
 31
0.0
  0
LINE
  8
0
 62
     0
 10
156.17
 20
109.099
 30
0.0
 11
156.17
 21
103.099
 31
0.0
  0
LINE
  8
0
 62
     0
 10
156.17
 20
103.099
 30
0.0
 11
155.371
 21
103.099
 31
0.0
  0
LINE
  8
0
 62
     0
 10
155.371
 20
103.099
 30
0.0
 11
155.371
 21
100.198
 31
0.0
  0
LINE
  8
0
 62
     0
 10
155.371
 20
100.198
 30
0.0
 11
156.17
 21
100.198
 31
0.0
  0
LINE
  8
0
 62
     0
 10
156.17
 20
100.198
 30
0.0
 11
156.17
 21
99.1994
 31
0.0
  0
LINE
  8
0
 62
     0
 10
156.17
 20
99.1994
 30
0.0
 11
169.97
 21
99.1994
 31
0.0
  0
LINE
  8
0
 62
     0
 10
169.97
 20
99.1994
 30
0.0
 11
169.97
 21
100.198
 31
0.0
  0
LINE
  8
0
 62
     0
 10
169.97
 20
100.198
 30
0.0
 11
170.771
 21
100.198
 31
0.0
  0
LINE
  8
0
 62
     0
 10
170.771
 20
100.198
 30
0.0
 11
170.771
 21
103.099
 31
0.0
  0
LINE
  8
0
 62
     0
 10
170.771
 20
103.099
 30
0.0
 11
169.97
 21
103.099
 31
0.0
  0
LINE
  8
0
 62
     0
 10
169.97
 20
103.099
 30
0.0
 11
169.97
 21
109.099
 31
0.0
  0
LINE
  8
0
 62
     0
 10
169.97
 20
109.099
 30
0.0
 11
170.771
 21
109.099
 31
0.0
  0
LINE
  8
0
 62
     0
 10
170.771
 20
109.099
 30
0.0
 11
170.771
 21
111.999
 31
0.0
  0
LINE
  8
0
 62
     0
 10
170.771
 20
111.999
 30
0.0
 11
169.97
 21
111.999
 31
0.0
  0
LINE
  8
0
 62
     0
 10
169.97
 20
111.999
 30
0.0
 11
169.97
 21
112.999
 31
0.0
  0
LINE
  8
0
 62
     0
 10
169.97
 20
112.999
 30
0.0
 11
156.17
 21
112.999
 31
0.0
  0
LINE
  8
0
 62
     0
 10
137.12
 20
112.999
 30
0.0
 11
137.12
 21
111.999
 31
0.0
  0
LINE
  8
0
 62
     0
 10
137.12
 20
111.999
 30
0.0
 11
136.321
 21
111.999
 31
0.0
  0
LINE
  8
0
 62
     0
 10
136.321
 20
111.999
 30
0.0
 11
136.321
 21
109.099
 31
0.0
  0
LINE
  8
0
 62
     0
 10
136.321
 20
109.099
 30
0.0
 11
137.12
 21
109.099
 31
0.0
  0
LINE
  8
0
 62
     0
 10
137.12
 20
109.099
 30
0.0
 11
137.12
 21
103.099
 31
0.0
  0
LINE
  8
0
 62
     0
 10
137.12
 20
103.099
 30
0.0
 11
136.321
 21
103.099
 31
0.0
  0
LINE
  8
0
 62
     0
 10
136.321
 20
103.099
 30
0.0
 11
136.321
 21
100.198
 31
0.0
  0
LINE
  8
0
 62
     0
 10
136.321
 20
100.198
 30
0.0
 11
137.12
 21
100.198
 31
0.0
  0
LINE
  8
0
 62
     0
 10
137.12
 20
100.198
 30
0.0
 11
137.12
 21
99.1994
 31
0.0
  0
LINE
  8
0
 62
     0
 10
137.12
 20
99.1994
 30
0.0
 11
150.92
 21
99.1994
 31
0.0
  0
LINE
  8
0
 62
     0
 10
150.92
 20
99.1994
 30
0.0
 11
150.92
 21
100.198
 31
0.0
  0
LINE
  8
0
 62
     0
 10
150.92
 20
100.198
 30
0.0
 11
151.721
 21
100.198
 31
0.0
  0
LINE
  8
0
 62
     0
 10
151.721
 20
100.198
 30
0.0
 11
151.721
 21
103.099
 31
0.0
  0
LINE
  8
0
 62
     0
 10
151.721
 20
103.099
 30
0.0
 11
150.92
 21
103.099
 31
0.0
  0
LINE
  8
0
 62
     0
 10
150.92
 20
103.099
 30
0.0
 11
150.92
 21
109.099
 31
0.0
  0
LINE
  8
0
 62
     0
 10
150.92
 20
109.099
 30
0.0
 11
151.721
 21
109.099
 31
0.0
  0
LINE
  8
0
 62
     0
 10
151.721
 20
109.099
 30
0.0
 11
151.721
 21
111.999
 31
0.0
  0
LINE
  8
0
 62
     0
 10
151.721
 20
111.999
 30
0.0
 11
150.92
 21
111.999
 31
0.0
  0
LINE
  8
0
 62
     0
 10
150.92
 20
111.999
 30
0.0
 11
150.92
 21
112.999
 31
0.0
  0
LINE
  8
0
 62
     0
 10
150.92
 20
112.999
 30
0.0
 11
137.12
 21
112.999
 31
0.0
  0
LINE
  8
0
 62
     0
 10
118.07
 20
112.999
 30
0.0
 11
118.07
 21
111.999
 31
0.0
  0
LINE
  8
0
 62
     0
 10
118.07
 20
111.999
 30
0.0
 11
117.271
 21
111.999
 31
0.0
  0
LINE
  8
0
 62
     0
 10
117.271
 20
111.999
 30
0.0
 11
117.271
 21
109.099
 31
0.0
  0
LINE
  8
0
 62
     0
 10
117.271
 20
109.099
 30
0.0
 11
118.07
 21
109.099
 31
0.0
  0
LINE
  8
0
 62
     0
 10
118.07
 20
109.099
 30
0.0
 11
118.07
 21
103.099
 31
0.0
  0
LINE
  8
0
 62
     0
 10
118.07
 20
103.099
 30
0.0
 11
117.271
 21
103.099
 31
0.0
  0
LINE
  8
0
 62
     0
 10
117.271
 20
103.099
 30
0.0
 11
117.271
 21
100.198
 31
0.0
  0
LINE
  8
0
 62
     0
 10
117.271
 20
100.198
 30
0.0
 11
118.07
 21
100.198
 31
0.0
  0
LINE
  8
0
 62
     0
 10
118.07
 20
100.198
 30
0.0
 11
118.07
 21
99.1994
 31
0.0
  0
LINE
  8
0
 62
     0
 10
118.07
 20
99.1994
 30
0.0
 11
131.87
 21
99.1994
 31
0.0
  0
LINE
  8
0
 62
     0
 10
131.87
 20
99.1994
 30
0.0
 11
131.87
 21
100.198
 31
0.0
  0
LINE
  8
0
 62
     0
 10
131.87
 20
100.198
 30
0.0
 11
132.671
 21
100.198
 31
0.0
  0
LINE
  8
0
 62
     0
 10
132.671
 20
100.198
 30
0.0
 11
132.671
 21
103.099
 31
0.0
  0
LINE
  8
0
 62
     0
 10
132.671
 20
103.099
 30
0.0
 11
131.87
 21
103.099
 31
0.0
  0
LINE
  8
0
 62
     0
 10
131.87
 20
103.099
 30
0.0
 11
131.87
 21
109.099
 31
0.0
  0
LINE
  8
0
 62
     0
 10
131.87
 20
109.099
 30
0.0
 11
132.671
 21
109.099
 31
0.0
  0
LINE
  8
0
 62
     0
 10
132.671
 20
109.099
 30
0.0
 11
132.671
 21
111.999
 31
0.0
  0
LINE
  8
0
 62
     0
 10
132.671
 20
111.999
 30
0.0
 11
131.87
 21
111.999
 31
0.0
  0
LINE
  8
0
 62
     0
 10
131.87
 20
111.999
 30
0.0
 11
131.87
 21
112.999
 31
0.0
  0
LINE
  8
0
 62
     0
 10
131.87
 20
112.999
 30
0.0
 11
118.07
 21
112.999
 31
0.0
  0
LINE
  8
0
 62
     0
 10
99.0191
 20
112.999
 30
0.0
 11
99.0191
 21
111.999
 31
0.0
  0
LINE
  8
0
 62
     0
 10
99.0191
 20
111.999
 30
0.0
 11
98.2197
 21
111.999
 31
0.0
  0
LINE
  8
0
 62
     0
 10
98.2197
 20
111.999
 30
0.0
 11
98.2197
 21
109.099
 31
0.0
  0
LINE
  8
0
 62
     0
 10
98.2197
 20
109.099
 30
0.0
 11
99.0191
 21
109.099
 31
0.0
  0
LINE
  8
0
 62
     0
 10
99.0191
 20
109.099
 30
0.0
 11
99.0191
 21
103.099
 31
0.0
  0
LINE
  8
0
 62
     0
 10
99.0191
 20
103.099
 30
0.0
 11
98.2197
 21
103.099
 31
0.0
  0
LINE
  8
0
 62
     0
 10
98.2197
 20
103.099
 30
0.0
 11
98.2197
 21
100.198
 31
0.0
  0
LINE
  8
0
 62
     0
 10
98.2197
 20
100.198
 30
0.0
 11
99.0191
 21
100.198
 31
0.0
  0
LINE
  8
0
 62
     0
 10
99.0191
 20
100.198
 30
0.0
 11
99.0191
 21
99.1994
 31
0.0
  0
LINE
  8
0
 62
     0
 10
99.0191
 20
99.1994
 30
0.0
 11
112.82
 21
99.1994
 31
0.0
  0
LINE
  8
0
 62
     0
 10
112.82
 20
99.1994
 30
0.0
 11
112.82
 21
100.198
 31
0.0
  0
LINE
  8
0
 62
     0
 10
112.82
 20
100.198
 30
0.0
 11
113.619
 21
100.198
 31
0.0
  0
LINE
  8
0
 62
     0
 10
113.619
 20
100.198
 30
0.0
 11
113.619
 21
103.099
 31
0.0
  0
LINE
  8
0
 62
     0
 10
113.619
 20
103.099
 30
0.0
 11
112.82
 21
103.099
 31
0.0
  0
LINE
  8
0
 62
     0
 10
112.82
 20
103.099
 30
0.0
 11
112.82
 21
109.099
 31
0.0
  0
LINE
  8
0
 62
     0
 10
112.82
 20
109.099
 30
0.0
 11
113.619
 21
109.099
 31
0.0
  0
LINE
  8
0
 62
     0
 10
113.619
 20
109.099
 30
0.0
 11
113.619
 21
111.999
 31
0.0
  0
LINE
  8
0
 62
     0
 10
113.619
 20
111.999
 30
0.0
 11
112.82
 21
111.999
 31
0.0
  0
LINE
  8
0
 62
     0
 10
112.82
 20
111.999
 30
0.0
 11
112.82
 21
112.999
 31
0.0
  0
LINE
  8
0
 62
     0
 10
112.82
 20
112.999
 30
0.0
 11
99.0191
 21
112.999
 31
0.0
  0
LINE
  8
0
 62
     0
 10
79.9691
 20
112.999
 30
0.0
 11
79.9691
 21
111.999
 31
0.0
  0
LINE
  8
0
 62
     0
 10
79.9691
 20
111.999
 30
0.0
 11
79.1697
 21
111.999
 31
0.0
  0
LINE
  8
0
 62
     0
 10
79.1697
 20
111.999
 30
0.0
 11
79.1697
 21
109.099
 31
0.0
  0
LINE
  8
0
 62
     0
 10
79.1697
 20
109.099
 30
0.0
 11
79.9691
 21
109.099
 31
0.0
  0
LINE
  8
0
 62
     0
 10
79.9691
 20
109.099
 30
0.0
 11
79.9691
 21
103.099
 31
0.0
  0
LINE
  8
0
 62
     0
 10
79.9691
 20
103.099
 30
0.0
 11
79.1697
 21
103.099
 31
0.0
  0
LINE
  8
0
 62
     0
 10
79.1697
 20
103.099
 30
0.0
 11
79.1697
 21
100.198
 31
0.0
  0
LINE
  8
0
 62
     0
 10
79.1697
 20
100.198
 30
0.0
 11
79.9691
 21
100.198
 31
0.0
  0
LINE
  8
0
 62
     0
 10
79.9691
 20
100.198
 30
0.0
 11
79.9691
 21
99.1994
 31
0.0
  0
LINE
  8
0
 62
     0
 10
79.9691
 20
99.1994
 30
0.0
 11
93.7701
 21
99.1994
 31
0.0
  0
LINE
  8
0
 62
     0
 10
93.7701
 20
99.1994
 30
0.0
 11
93.7701
 21
100.198
 31
0.0
  0
LINE
  8
0
 62
     0
 10
93.7701
 20
100.198
 30
0.0
 11
94.5706
 21
100.198
 31
0.0
  0
LINE
  8
0
 62
     0
 10
94.5706
 20
100.198
 30
0.0
 11
94.5706
 21
103.099
 31
0.0
  0
LINE
  8
0
 62
     0
 10
94.5706
 20
103.099
 30
0.0
 11
93.7701
 21
103.099
 31
0.0
  0
LINE
  8
0
 62
     0
 10
93.7701
 20
103.099
 30
0.0
 11
93.7701
 21
109.099
 31
0.0
  0
LINE
  8
0
 62
     0
 10
93.7701
 20
109.099
 30
0.0
 11
94.5706
 21
109.099
 31
0.0
  0
LINE
  8
0
 62
     0
 10
94.5706
 20
109.099
 30
0.0
 11
94.5706
 21
111.999
 31
0.0
  0
LINE
  8
0
 62
     0
 10
94.5706
 20
111.999
 30
0.0
 11
93.7701
 21
111.999
 31
0.0
  0
LINE
  8
0
 62
     0
 10
93.7701
 20
111.999
 30
0.0
 11
93.7701
 21
112.999
 31
0.0
  0
LINE
  8
0
 62
     0
 10
93.7701
 20
112.999
 30
0.0
 11
79.9691
 21
112.999
 31
0.0
  0
LINE
  8
0
 62
     0
 10
60.9191
 20
112.999
 30
0.0
 11
60.9191
 21
111.999
 31
0.0
  0
LINE
  8
0
 62
     0
 10
60.9191
 20
111.999
 30
0.0
 11
60.1197
 21
111.999
 31
0.0
  0
LINE
  8
0
 62
     0
 10
60.1197
 20
111.999
 30
0.0
 11
60.1197
 21
109.099
 31
0.0
  0
LINE
  8
0
 62
     0
 10
60.1197
 20
109.099
 30
0.0
 11
60.9191
 21
109.099
 31
0.0
  0
LINE
  8
0
 62
     0
 10
60.9191
 20
109.099
 30
0.0
 11
60.9191
 21
103.099
 31
0.0
  0
LINE
  8
0
 62
     0
 10
60.9191
 20
103.099
 30
0.0
 11
60.1197
 21
103.099
 31
0.0
  0
LINE
  8
0
 62
     0
 10
60.1197
 20
103.099
 30
0.0
 11
60.1197
 21
100.198
 31
0.0
  0
LINE
  8
0
 62
     0
 10
60.1197
 20
100.198
 30
0.0
 11
60.9191
 21
100.198
 31
0.0
  0
LINE
  8
0
 62
     0
 10
60.9191
 20
100.198
 30
0.0
 11
60.9191
 21
99.1994
 31
0.0
  0
LINE
  8
0
 62
     0
 10
60.9191
 20
99.1994
 30
0.0
 11
74.7201
 21
99.1994
 31
0.0
  0
LINE
  8
0
 62
     0
 10
74.7201
 20
99.1994
 30
0.0
 11
74.7201
 21
100.198
 31
0.0
  0
LINE
  8
0
 62
     0
 10
74.7201
 20
100.198
 30
0.0
 11
75.5206
 21
100.198
 31
0.0
  0
LINE
  8
0
 62
     0
 10
75.5206
 20
100.198
 30
0.0
 11
75.5206
 21
103.099
 31
0.0
  0
LINE
  8
0
 62
     0
 10
75.5206
 20
103.099
 30
0.0
 11
74.7201
 21
103.099
 31
0.0
  0
LINE
  8
0
 62
     0
 10
74.7201
 20
103.099
 30
0.0
 11
74.7201
 21
109.099
 31
0.0
  0
LINE
  8
0
 62
     0
 10
74.7201
 20
109.099
 30
0.0
 11
75.5206
 21
109.099
 31
0.0
  0
LINE
  8
0
 62
     0
 10
75.5206
 20
109.099
 30
0.0
 11
75.5206
 21
111.999
 31
0.0
  0
LINE
  8
0
 62
     0
 10
75.5206
 20
111.999
 30
0.0
 11
74.7201
 21
111.999
 31
0.0
  0
LINE
  8
0
 62
     0
 10
74.7201
 20
111.999
 30
0.0
 11
74.7201
 21
112.999
 31
0.0
  0
LINE
  8
0
 62
     0
 10
74.7201
 20
112.999
 30
0.0
 11
60.9191
 21
112.999
 31
0.0
  0
LINE
  8
0
 62
     0
 10
41.8705
 20
112.999
 30
0.0
 11
41.8705
 21
111.999
 31
0.0
  0
LINE
  8
0
 62
     0
 10
41.8705
 20
111.999
 30
0.0
 11
41.0697
 21
111.999
 31
0.0
  0
LINE
  8
0
 62
     0
 10
41.0697
 20
111.999
 30
0.0
 11
41.0697
 21
109.099
 31
0.0
  0
LINE
  8
0
 62
     0
 10
41.0697
 20
109.099
 30
0.0
 11
41.8705
 21
109.099
 31
0.0
  0
LINE
  8
0
 62
     0
 10
41.8705
 20
109.099
 30
0.0
 11
41.8705
 21
103.099
 31
0.0
  0
LINE
  8
0
 62
     0
 10
41.8705
 20
103.099
 30
0.0
 11
41.0697
 21
103.099
 31
0.0
  0
LINE
  8
0
 62
     0
 10
41.0697
 20
103.099
 30
0.0
 11
41.0697
 21
100.198
 31
0.0
  0
LINE
  8
0
 62
     0
 10
41.0697
 20
100.198
 30
0.0
 11
41.8705
 21
100.198
 31
0.0
  0
LINE
  8
0
 62
     0
 10
41.8705
 20
100.198
 30
0.0
 11
41.8705
 21
99.1994
 31
0.0
  0
LINE
  8
0
 62
     0
 10
41.8705
 20
99.1994
 30
0.0
 11
55.6701
 21
99.1994
 31
0.0
  0
LINE
  8
0
 62
     0
 10
55.6701
 20
99.1994
 30
0.0
 11
55.6701
 21
100.198
 31
0.0
  0
LINE
  8
0
 62
     0
 10
55.6701
 20
100.198
 30
0.0
 11
56.4706
 21
100.198
 31
0.0
  0
LINE
  8
0
 62
     0
 10
56.4706
 20
100.198
 30
0.0
 11
56.4706
 21
103.099
 31
0.0
  0
LINE
  8
0
 62
     0
 10
56.4706
 20
103.099
 30
0.0
 11
55.6701
 21
103.099
 31
0.0
  0
LINE
  8
0
 62
     0
 10
55.6701
 20
103.099
 30
0.0
 11
55.6701
 21
109.099
 31
0.0
  0
LINE
  8
0
 62
     0
 10
55.6701
 20
109.099
 30
0.0
 11
56.4706
 21
109.099
 31
0.0
  0
LINE
  8
0
 62
     0
 10
56.4706
 20
109.099
 30
0.0
 11
56.4706
 21
111.999
 31
0.0
  0
LINE
  8
0
 62
     0
 10
56.4706
 20
111.999
 30
0.0
 11
55.6701
 21
111.999
 31
0.0
  0
LINE
  8
0
 62
     0
 10
55.6701
 20
111.999
 30
0.0
 11
55.6701
 21
112.999
 31
0.0
  0
LINE
  8
0
 62
     0
 10
55.6701
 20
112.999
 30
0.0
 11
41.8705
 21
112.999
 31
0.0
  0
LINE
  8
0
 62
     0
 10
22.8203
 20
112.999
 30
0.0
 11
22.8203
 21
111.999
 31
0.0
  0
LINE
  8
0
 62
     0
 10
22.8203
 20
111.999
 30
0.0
 11
22.0211
 21
111.999
 31
0.0
  0
LINE
  8
0
 62
     0
 10
22.0211
 20
111.999
 30
0.0
 11
22.0211
 21
109.099
 31
0.0
  0
LINE
  8
0
 62
     0
 10
22.0211
 20
109.099
 30
0.0
 11
22.8203
 21
109.099
 31
0.0
  0
LINE
  8
0
 62
     0
 10
22.8203
 20
109.099
 30
0.0
 11
22.8203
 21
103.099
 31
0.0
  0
LINE
  8
0
 62
     0
 10
22.8203
 20
103.099
 30
0.0
 11
22.0211
 21
103.099
 31
0.0
  0
LINE
  8
0
 62
     0
 10
22.0211
 20
103.099
 30
0.0
 11
22.0211
 21
100.198
 31
0.0
  0
LINE
  8
0
 62
     0
 10
22.0211
 20
100.198
 30
0.0
 11
22.8203
 21
100.198
 31
0.0
  0
LINE
  8
0
 62
     0
 10
22.8203
 20
100.198
 30
0.0
 11
22.8203
 21
99.1994
 31
0.0
  0
LINE
  8
0
 62
     0
 10
22.8203
 20
99.1994
 30
0.0
 11
36.6201
 21
99.1994
 31
0.0
  0
LINE
  8
0
 62
     0
 10
36.6201
 20
99.1994
 30
0.0
 11
36.6201
 21
100.198
 31
0.0
  0
LINE
  8
0
 62
     0
 10
36.6201
 20
100.198
 30
0.0
 11
37.4205
 21
100.198
 31
0.0
  0
LINE
  8
0
 62
     0
 10
37.4205
 20
100.198
 30
0.0
 11
37.4205
 21
103.099
 31
0.0
  0
LINE
  8
0
 62
     0
 10
37.4205
 20
103.099
 30
0.0
 11
36.6201
 21
103.099
 31
0.0
  0
LINE
  8
0
 62
     0
 10
36.6201
 20
103.099
 30
0.0
 11
36.6201
 21
109.099
 31
0.0
  0
LINE
  8
0
 62
     0
 10
36.6201
 20
109.099
 30
0.0
 11
37.4205
 21
109.099
 31
0.0
  0
LINE
  8
0
 62
     0
 10
37.4205
 20
109.099
 30
0.0
 11
37.4205
 21
111.999
 31
0.0
  0
LINE
  8
0
 62
     0
 10
37.4205
 20
111.999
 30
0.0
 11
36.6201
 21
111.999
 31
0.0
  0
LINE
  8
0
 62
     0
 10
36.6201
 20
111.999
 30
0.0
 11
36.6201
 21
112.999
 31
0.0
  0
LINE
  8
0
 62
     0
 10
36.6201
 20
112.999
 30
0.0
 11
22.8203
 21
112.999
 31
0.0
  0
LINE
  8
0
 62
     0
 10
351.433
 20
141.574
 30
0.0
 11
351.433
 21
140.574
 31
0.0
  0
LINE
  8
0
 62
     0
 10
351.433
 20
140.574
 30
0.0
 11
350.632
 21
140.574
 31
0.0
  0
LINE
  8
0
 62
     0
 10
350.632
 20
140.574
 30
0.0
 11
350.632
 21
137.674
 31
0.0
  0
LINE
  8
0
 62
     0
 10
350.632
 20
137.674
 30
0.0
 11
351.433
 21
137.674
 31
0.0
  0
LINE
  8
0
 62
     0
 10
351.433
 20
137.674
 30
0.0
 11
351.433
 21
131.674
 31
0.0
  0
LINE
  8
0
 62
     0
 10
351.433
 20
131.674
 30
0.0
 11
350.632
 21
131.674
 31
0.0
  0
LINE
  8
0
 62
     0
 10
350.632
 20
131.674
 30
0.0
 11
350.632
 21
128.773
 31
0.0
  0
LINE
  8
0
 62
     0
 10
350.632
 20
128.773
 30
0.0
 11
351.433
 21
128.773
 31
0.0
  0
LINE
  8
0
 62
     0
 10
351.433
 20
128.773
 30
0.0
 11
351.433
 21
127.774
 31
0.0
  0
LINE
  8
0
 62
     0
 10
351.433
 20
127.774
 30
0.0
 11
365.231
 21
127.774
 31
0.0
  0
LINE
  8
0
 62
     0
 10
365.231
 20
127.774
 30
0.0
 11
365.231
 21
128.773
 31
0.0
  0
LINE
  8
0
 62
     0
 10
365.231
 20
128.773
 30
0.0
 11
366.032
 21
128.773
 31
0.0
  0
LINE
  8
0
 62
     0
 10
366.032
 20
128.773
 30
0.0
 11
366.032
 21
131.674
 31
0.0
  0
LINE
  8
0
 62
     0
 10
366.032
 20
131.674
 30
0.0
 11
365.231
 21
131.674
 31
0.0
  0
LINE
  8
0
 62
     0
 10
365.231
 20
131.674
 30
0.0
 11
365.231
 21
137.674
 31
0.0
  0
LINE
  8
0
 62
     0
 10
365.231
 20
137.674
 30
0.0
 11
366.032
 21
137.674
 31
0.0
  0
LINE
  8
0
 62
     0
 10
366.032
 20
137.674
 30
0.0
 11
366.032
 21
140.574
 31
0.0
  0
LINE
  8
0
 62
     0
 10
366.032
 20
140.574
 30
0.0
 11
365.231
 21
140.574
 31
0.0
  0
LINE
  8
0
 62
     0
 10
365.231
 20
140.574
 30
0.0
 11
365.231
 21
141.574
 31
0.0
  0
LINE
  8
0
 62
     0
 10
365.231
 20
141.574
 30
0.0
 11
351.433
 21
141.574
 31
0.0
  0
LINE
  8
0
 62
     0
 10
332.383
 20
141.574
 30
0.0
 11
332.383
 21
140.574
 31
0.0
  0
LINE
  8
0
 62
     0
 10
332.383
 20
140.574
 30
0.0
 11
331.582
 21
140.574
 31
0.0
  0
LINE
  8
0
 62
     0
 10
331.582
 20
140.574
 30
0.0
 11
331.582
 21
137.674
 31
0.0
  0
LINE
  8
0
 62
     0
 10
331.582
 20
137.674
 30
0.0
 11
332.383
 21
137.674
 31
0.0
  0
LINE
  8
0
 62
     0
 10
332.383
 20
137.674
 30
0.0
 11
332.383
 21
131.674
 31
0.0
  0
LINE
  8
0
 62
     0
 10
332.383
 20
131.674
 30
0.0
 11
331.582
 21
131.674
 31
0.0
  0
LINE
  8
0
 62
     0
 10
331.582
 20
131.674
 30
0.0
 11
331.582
 21
128.773
 31
0.0
  0
LINE
  8
0
 62
     0
 10
331.582
 20
128.773
 30
0.0
 11
332.383
 21
128.773
 31
0.0
  0
LINE
  8
0
 62
     0
 10
332.383
 20
128.773
 30
0.0
 11
332.383
 21
127.774
 31
0.0
  0
LINE
  8
0
 62
     0
 10
332.383
 20
127.774
 30
0.0
 11
346.183
 21
127.774
 31
0.0
  0
LINE
  8
0
 62
     0
 10
346.183
 20
127.774
 30
0.0
 11
346.183
 21
128.773
 31
0.0
  0
LINE
  8
0
 62
     0
 10
346.183
 20
128.773
 30
0.0
 11
346.983
 21
128.773
 31
0.0
  0
LINE
  8
0
 62
     0
 10
346.983
 20
128.773
 30
0.0
 11
346.983
 21
131.674
 31
0.0
  0
LINE
  8
0
 62
     0
 10
346.983
 20
131.674
 30
0.0
 11
346.183
 21
131.674
 31
0.0
  0
LINE
  8
0
 62
     0
 10
346.183
 20
131.674
 30
0.0
 11
346.183
 21
137.674
 31
0.0
  0
LINE
  8
0
 62
     0
 10
346.183
 20
137.674
 30
0.0
 11
346.983
 21
137.674
 31
0.0
  0
LINE
  8
0
 62
     0
 10
346.983
 20
137.674
 30
0.0
 11
346.983
 21
140.574
 31
0.0
  0
LINE
  8
0
 62
     0
 10
346.983
 20
140.574
 30
0.0
 11
346.183
 21
140.574
 31
0.0
  0
LINE
  8
0
 62
     0
 10
346.183
 20
140.574
 30
0.0
 11
346.183
 21
141.574
 31
0.0
  0
LINE
  8
0
 62
     0
 10
346.183
 20
141.574
 30
0.0
 11
332.383
 21
141.574
 31
0.0
  0
LINE
  8
0
 62
     0
 10
313.333
 20
141.574
 30
0.0
 11
313.333
 21
140.574
 31
0.0
  0
LINE
  8
0
 62
     0
 10
313.333
 20
140.574
 30
0.0
 11
312.532
 21
140.574
 31
0.0
  0
LINE
  8
0
 62
     0
 10
312.532
 20
140.574
 30
0.0
 11
312.532
 21
137.674
 31
0.0
  0
LINE
  8
0
 62
     0
 10
312.532
 20
137.674
 30
0.0
 11
313.333
 21
137.674
 31
0.0
  0
LINE
  8
0
 62
     0
 10
313.333
 20
137.674
 30
0.0
 11
313.333
 21
131.674
 31
0.0
  0
LINE
  8
0
 62
     0
 10
313.333
 20
131.674
 30
0.0
 11
312.532
 21
131.674
 31
0.0
  0
LINE
  8
0
 62
     0
 10
312.532
 20
131.674
 30
0.0
 11
312.532
 21
128.773
 31
0.0
  0
LINE
  8
0
 62
     0
 10
312.532
 20
128.773
 30
0.0
 11
313.333
 21
128.773
 31
0.0
  0
LINE
  8
0
 62
     0
 10
313.333
 20
128.773
 30
0.0
 11
313.333
 21
127.774
 31
0.0
  0
LINE
  8
0
 62
     0
 10
313.333
 20
127.774
 30
0.0
 11
327.133
 21
127.774
 31
0.0
  0
LINE
  8
0
 62
     0
 10
327.133
 20
127.774
 30
0.0
 11
327.133
 21
128.773
 31
0.0
  0
LINE
  8
0
 62
     0
 10
327.133
 20
128.773
 30
0.0
 11
327.933
 21
128.773
 31
0.0
  0
LINE
  8
0
 62
     0
 10
327.933
 20
128.773
 30
0.0
 11
327.933
 21
131.674
 31
0.0
  0
LINE
  8
0
 62
     0
 10
327.933
 20
131.674
 30
0.0
 11
327.133
 21
131.674
 31
0.0
  0
LINE
  8
0
 62
     0
 10
327.133
 20
131.674
 30
0.0
 11
327.133
 21
137.674
 31
0.0
  0
LINE
  8
0
 62
     0
 10
327.133
 20
137.674
 30
0.0
 11
327.933
 21
137.674
 31
0.0
  0
LINE
  8
0
 62
     0
 10
327.933
 20
137.674
 30
0.0
 11
327.933
 21
140.574
 31
0.0
  0
LINE
  8
0
 62
     0
 10
327.933
 20
140.574
 30
0.0
 11
327.133
 21
140.574
 31
0.0
  0
LINE
  8
0
 62
     0
 10
327.133
 20
140.574
 30
0.0
 11
327.133
 21
141.574
 31
0.0
  0
LINE
  8
0
 62
     0
 10
327.133
 20
141.574
 30
0.0
 11
313.333
 21
141.574
 31
0.0
  0
LINE
  8
0
 62
     0
 10
289.52
 20
141.574
 30
0.0
 11
289.52
 21
140.574
 31
0.0
  0
LINE
  8
0
 62
     0
 10
289.52
 20
140.574
 30
0.0
 11
288.721
 21
140.574
 31
0.0
  0
LINE
  8
0
 62
     0
 10
288.721
 20
140.574
 30
0.0
 11
288.721
 21
137.674
 31
0.0
  0
LINE
  8
0
 62
     0
 10
288.721
 20
137.674
 30
0.0
 11
289.52
 21
137.674
 31
0.0
  0
LINE
  8
0
 62
     0
 10
289.52
 20
137.674
 30
0.0
 11
289.52
 21
131.674
 31
0.0
  0
LINE
  8
0
 62
     0
 10
289.52
 20
131.674
 30
0.0
 11
288.721
 21
131.674
 31
0.0
  0
LINE
  8
0
 62
     0
 10
288.721
 20
131.674
 30
0.0
 11
288.721
 21
128.773
 31
0.0
  0
LINE
  8
0
 62
     0
 10
288.721
 20
128.773
 30
0.0
 11
289.52
 21
128.773
 31
0.0
  0
LINE
  8
0
 62
     0
 10
289.52
 20
128.773
 30
0.0
 11
289.52
 21
127.774
 31
0.0
  0
LINE
  8
0
 62
     0
 10
289.52
 20
127.774
 30
0.0
 11
303.32
 21
127.774
 31
0.0
  0
LINE
  8
0
 62
     0
 10
303.32
 20
127.774
 30
0.0
 11
303.32
 21
128.773
 31
0.0
  0
LINE
  8
0
 62
     0
 10
303.32
 20
128.773
 30
0.0
 11
304.121
 21
128.773
 31
0.0
  0
LINE
  8
0
 62
     0
 10
304.121
 20
128.773
 30
0.0
 11
304.121
 21
131.674
 31
0.0
  0
LINE
  8
0
 62
     0
 10
304.121
 20
131.674
 30
0.0
 11
303.32
 21
131.674
 31
0.0
  0
LINE
  8
0
 62
     0
 10
303.32
 20
131.674
 30
0.0
 11
303.32
 21
137.674
 31
0.0
  0
LINE
  8
0
 62
     0
 10
303.32
 20
137.674
 30
0.0
 11
304.121
 21
137.674
 31
0.0
  0
LINE
  8
0
 62
     0
 10
304.121
 20
137.674
 30
0.0
 11
304.121
 21
140.574
 31
0.0
  0
LINE
  8
0
 62
     0
 10
304.121
 20
140.574
 30
0.0
 11
303.32
 21
140.574
 31
0.0
  0
LINE
  8
0
 62
     0
 10
303.32
 20
140.574
 30
0.0
 11
303.32
 21
141.574
 31
0.0
  0
LINE
  8
0
 62
     0
 10
303.32
 20
141.574
 30
0.0
 11
289.52
 21
141.574
 31
0.0
  0
LINE
  8
0
 62
     0
 10
270.47
 20
141.574
 30
0.0
 11
270.47
 21
140.574
 31
0.0
  0
LINE
  8
0
 62
     0
 10
270.47
 20
140.574
 30
0.0
 11
269.671
 21
140.574
 31
0.0
  0
LINE
  8
0
 62
     0
 10
269.671
 20
140.574
 30
0.0
 11
269.671
 21
137.674
 31
0.0
  0
LINE
  8
0
 62
     0
 10
269.671
 20
137.674
 30
0.0
 11
270.47
 21
137.674
 31
0.0
  0
LINE
  8
0
 62
     0
 10
270.47
 20
137.674
 30
0.0
 11
270.47
 21
131.674
 31
0.0
  0
LINE
  8
0
 62
     0
 10
270.47
 20
131.674
 30
0.0
 11
269.671
 21
131.674
 31
0.0
  0
LINE
  8
0
 62
     0
 10
269.671
 20
131.674
 30
0.0
 11
269.671
 21
128.773
 31
0.0
  0
LINE
  8
0
 62
     0
 10
269.671
 20
128.773
 30
0.0
 11
270.47
 21
128.773
 31
0.0
  0
LINE
  8
0
 62
     0
 10
270.47
 20
128.773
 30
0.0
 11
270.47
 21
127.774
 31
0.0
  0
LINE
  8
0
 62
     0
 10
270.47
 20
127.774
 30
0.0
 11
284.27
 21
127.774
 31
0.0
  0
LINE
  8
0
 62
     0
 10
284.27
 20
127.774
 30
0.0
 11
284.27
 21
128.773
 31
0.0
  0
LINE
  8
0
 62
     0
 10
284.27
 20
128.773
 30
0.0
 11
285.071
 21
128.773
 31
0.0
  0
LINE
  8
0
 62
     0
 10
285.071
 20
128.773
 30
0.0
 11
285.071
 21
131.674
 31
0.0
  0
LINE
  8
0
 62
     0
 10
285.071
 20
131.674
 30
0.0
 11
284.27
 21
131.674
 31
0.0
  0
LINE
  8
0
 62
     0
 10
284.27
 20
131.674
 30
0.0
 11
284.27
 21
137.674
 31
0.0
  0
LINE
  8
0
 62
     0
 10
284.27
 20
137.674
 30
0.0
 11
285.071
 21
137.674
 31
0.0
  0
LINE
  8
0
 62
     0
 10
285.071
 20
137.674
 30
0.0
 11
285.071
 21
140.574
 31
0.0
  0
LINE
  8
0
 62
     0
 10
285.071
 20
140.574
 30
0.0
 11
284.27
 21
140.574
 31
0.0
  0
LINE
  8
0
 62
     0
 10
284.27
 20
140.574
 30
0.0
 11
284.27
 21
141.574
 31
0.0
  0
LINE
  8
0
 62
     0
 10
284.27
 20
141.574
 30
0.0
 11
270.47
 21
141.574
 31
0.0
  0
LINE
  8
0
 62
     0
 10
251.42
 20
141.574
 30
0.0
 11
251.42
 21
140.574
 31
0.0
  0
LINE
  8
0
 62
     0
 10
251.42
 20
140.574
 30
0.0
 11
250.621
 21
140.574
 31
0.0
  0
LINE
  8
0
 62
     0
 10
250.621
 20
140.574
 30
0.0
 11
250.621
 21
137.674
 31
0.0
  0
LINE
  8
0
 62
     0
 10
250.621
 20
137.674
 30
0.0
 11
251.42
 21
137.674
 31
0.0
  0
LINE
  8
0
 62
     0
 10
251.42
 20
137.674
 30
0.0
 11
251.42
 21
131.674
 31
0.0
  0
LINE
  8
0
 62
     0
 10
251.42
 20
131.674
 30
0.0
 11
250.621
 21
131.674
 31
0.0
  0
LINE
  8
0
 62
     0
 10
250.621
 20
131.674
 30
0.0
 11
250.621
 21
128.773
 31
0.0
  0
LINE
  8
0
 62
     0
 10
250.621
 20
128.773
 30
0.0
 11
251.42
 21
128.773
 31
0.0
  0
LINE
  8
0
 62
     0
 10
251.42
 20
128.773
 30
0.0
 11
251.42
 21
127.774
 31
0.0
  0
LINE
  8
0
 62
     0
 10
251.42
 20
127.774
 30
0.0
 11
265.22
 21
127.774
 31
0.0
  0
LINE
  8
0
 62
     0
 10
265.22
 20
127.774
 30
0.0
 11
265.22
 21
128.773
 31
0.0
  0
LINE
  8
0
 62
     0
 10
265.22
 20
128.773
 30
0.0
 11
266.021
 21
128.773
 31
0.0
  0
LINE
  8
0
 62
     0
 10
266.021
 20
128.773
 30
0.0
 11
266.021
 21
131.674
 31
0.0
  0
LINE
  8
0
 62
     0
 10
266.021
 20
131.674
 30
0.0
 11
265.22
 21
131.674
 31
0.0
  0
LINE
  8
0
 62
     0
 10
265.22
 20
131.674
 30
0.0
 11
265.22
 21
137.674
 31
0.0
  0
LINE
  8
0
 62
     0
 10
265.22
 20
137.674
 30
0.0
 11
266.021
 21
137.674
 31
0.0
  0
LINE
  8
0
 62
     0
 10
266.021
 20
137.674
 30
0.0
 11
266.021
 21
140.574
 31
0.0
  0
LINE
  8
0
 62
     0
 10
266.021
 20
140.574
 30
0.0
 11
265.22
 21
140.574
 31
0.0
  0
LINE
  8
0
 62
     0
 10
265.22
 20
140.574
 30
0.0
 11
265.22
 21
141.574
 31
0.0
  0
LINE
  8
0
 62
     0
 10
265.22
 20
141.574
 30
0.0
 11
251.42
 21
141.574
 31
0.0
  0
LINE
  8
0
 62
     0
 10
232.37
 20
141.574
 30
0.0
 11
232.37
 21
140.574
 31
0.0
  0
LINE
  8
0
 62
     0
 10
232.37
 20
140.574
 30
0.0
 11
231.571
 21
140.574
 31
0.0
  0
LINE
  8
0
 62
     0
 10
231.571
 20
140.574
 30
0.0
 11
231.571
 21
137.674
 31
0.0
  0
LINE
  8
0
 62
     0
 10
231.571
 20
137.674
 30
0.0
 11
232.37
 21
137.674
 31
0.0
  0
LINE
  8
0
 62
     0
 10
232.37
 20
137.674
 30
0.0
 11
232.37
 21
131.674
 31
0.0
  0
LINE
  8
0
 62
     0
 10
232.37
 20
131.674
 30
0.0
 11
231.571
 21
131.674
 31
0.0
  0
LINE
  8
0
 62
     0
 10
231.571
 20
131.674
 30
0.0
 11
231.571
 21
128.773
 31
0.0
  0
LINE
  8
0
 62
     0
 10
231.571
 20
128.773
 30
0.0
 11
232.37
 21
128.773
 31
0.0
  0
LINE
  8
0
 62
     0
 10
232.37
 20
128.773
 30
0.0
 11
232.37
 21
127.774
 31
0.0
  0
LINE
  8
0
 62
     0
 10
232.37
 20
127.774
 30
0.0
 11
246.17
 21
127.774
 31
0.0
  0
LINE
  8
0
 62
     0
 10
246.17
 20
127.774
 30
0.0
 11
246.17
 21
128.773
 31
0.0
  0
LINE
  8
0
 62
     0
 10
246.17
 20
128.773
 30
0.0
 11
246.971
 21
128.773
 31
0.0
  0
LINE
  8
0
 62
     0
 10
246.971
 20
128.773
 30
0.0
 11
246.971
 21
131.674
 31
0.0
  0
LINE
  8
0
 62
     0
 10
246.971
 20
131.674
 30
0.0
 11
246.17
 21
131.674
 31
0.0
  0
LINE
  8
0
 62
     0
 10
246.17
 20
131.674
 30
0.0
 11
246.17
 21
137.674
 31
0.0
  0
LINE
  8
0
 62
     0
 10
246.17
 20
137.674
 30
0.0
 11
246.971
 21
137.674
 31
0.0
  0
LINE
  8
0
 62
     0
 10
246.971
 20
137.674
 30
0.0
 11
246.971
 21
140.574
 31
0.0
  0
LINE
  8
0
 62
     0
 10
246.971
 20
140.574
 30
0.0
 11
246.17
 21
140.574
 31
0.0
  0
LINE
  8
0
 62
     0
 10
246.17
 20
140.574
 30
0.0
 11
246.17
 21
141.574
 31
0.0
  0
LINE
  8
0
 62
     0
 10
246.17
 20
141.574
 30
0.0
 11
232.37
 21
141.574
 31
0.0
  0
LINE
  8
0
 62
     0
 10
203.795
 20
141.574
 30
0.0
 11
203.795
 21
140.574
 31
0.0
  0
LINE
  8
0
 62
     0
 10
203.795
 20
140.574
 30
0.0
 11
202.996
 21
140.574
 31
0.0
  0
LINE
  8
0
 62
     0
 10
202.996
 20
140.574
 30
0.0
 11
202.996
 21
137.674
 31
0.0
  0
LINE
  8
0
 62
     0
 10
202.996
 20
137.674
 30
0.0
 11
203.795
 21
137.674
 31
0.0
  0
LINE
  8
0
 62
     0
 10
203.795
 20
137.674
 30
0.0
 11
203.795
 21
131.674
 31
0.0
  0
LINE
  8
0
 62
     0
 10
203.795
 20
131.674
 30
0.0
 11
202.996
 21
131.674
 31
0.0
  0
LINE
  8
0
 62
     0
 10
202.996
 20
131.674
 30
0.0
 11
202.996
 21
128.773
 31
0.0
  0
LINE
  8
0
 62
     0
 10
202.996
 20
128.773
 30
0.0
 11
203.795
 21
128.773
 31
0.0
  0
LINE
  8
0
 62
     0
 10
203.795
 20
128.773
 30
0.0
 11
203.795
 21
127.774
 31
0.0
  0
LINE
  8
0
 62
     0
 10
203.795
 20
127.774
 30
0.0
 11
217.595
 21
127.774
 31
0.0
  0
LINE
  8
0
 62
     0
 10
217.595
 20
127.774
 30
0.0
 11
217.595
 21
128.773
 31
0.0
  0
LINE
  8
0
 62
     0
 10
217.595
 20
128.773
 30
0.0
 11
218.396
 21
128.773
 31
0.0
  0
LINE
  8
0
 62
     0
 10
218.396
 20
128.773
 30
0.0
 11
218.396
 21
131.674
 31
0.0
  0
LINE
  8
0
 62
     0
 10
218.396
 20
131.674
 30
0.0
 11
217.595
 21
131.674
 31
0.0
  0
LINE
  8
0
 62
     0
 10
217.595
 20
131.674
 30
0.0
 11
217.595
 21
137.674
 31
0.0
  0
LINE
  8
0
 62
     0
 10
217.595
 20
137.674
 30
0.0
 11
218.396
 21
137.674
 31
0.0
  0
LINE
  8
0
 62
     0
 10
218.396
 20
137.674
 30
0.0
 11
218.396
 21
140.574
 31
0.0
  0
LINE
  8
0
 62
     0
 10
218.396
 20
140.574
 30
0.0
 11
217.595
 21
140.574
 31
0.0
  0
LINE
  8
0
 62
     0
 10
217.595
 20
140.574
 30
0.0
 11
217.595
 21
141.574
 31
0.0
  0
LINE
  8
0
 62
     0
 10
217.595
 20
141.574
 30
0.0
 11
203.795
 21
141.574
 31
0.0
  0
LINE
  8
0
 62
     0
 10
184.745
 20
141.574
 30
0.0
 11
184.745
 21
140.574
 31
0.0
  0
LINE
  8
0
 62
     0
 10
184.745
 20
140.574
 30
0.0
 11
183.946
 21
140.574
 31
0.0
  0
LINE
  8
0
 62
     0
 10
183.946
 20
140.574
 30
0.0
 11
183.946
 21
137.674
 31
0.0
  0
LINE
  8
0
 62
     0
 10
183.946
 20
137.674
 30
0.0
 11
184.745
 21
137.674
 31
0.0
  0
LINE
  8
0
 62
     0
 10
184.745
 20
137.674
 30
0.0
 11
184.745
 21
131.674
 31
0.0
  0
LINE
  8
0
 62
     0
 10
184.745
 20
131.674
 30
0.0
 11
183.946
 21
131.674
 31
0.0
  0
LINE
  8
0
 62
     0
 10
183.946
 20
131.674
 30
0.0
 11
183.946
 21
128.773
 31
0.0
  0
LINE
  8
0
 62
     0
 10
183.946
 20
128.773
 30
0.0
 11
184.745
 21
128.773
 31
0.0
  0
LINE
  8
0
 62
     0
 10
184.745
 20
128.773
 30
0.0
 11
184.745
 21
127.774
 31
0.0
  0
LINE
  8
0
 62
     0
 10
184.745
 20
127.774
 30
0.0
 11
198.545
 21
127.774
 31
0.0
  0
LINE
  8
0
 62
     0
 10
198.545
 20
127.774
 30
0.0
 11
198.545
 21
128.773
 31
0.0
  0
LINE
  8
0
 62
     0
 10
198.545
 20
128.773
 30
0.0
 11
199.346
 21
128.773
 31
0.0
  0
LINE
  8
0
 62
     0
 10
199.346
 20
128.773
 30
0.0
 11
199.346
 21
131.674
 31
0.0
  0
LINE
  8
0
 62
     0
 10
199.346
 20
131.674
 30
0.0
 11
198.545
 21
131.674
 31
0.0
  0
LINE
  8
0
 62
     0
 10
198.545
 20
131.674
 30
0.0
 11
198.545
 21
137.674
 31
0.0
  0
LINE
  8
0
 62
     0
 10
198.545
 20
137.674
 30
0.0
 11
199.346
 21
137.674
 31
0.0
  0
LINE
  8
0
 62
     0
 10
199.346
 20
137.674
 30
0.0
 11
199.346
 21
140.574
 31
0.0
  0
LINE
  8
0
 62
     0
 10
199.346
 20
140.574
 30
0.0
 11
198.545
 21
140.574
 31
0.0
  0
LINE
  8
0
 62
     0
 10
198.545
 20
140.574
 30
0.0
 11
198.545
 21
141.574
 31
0.0
  0
LINE
  8
0
 62
     0
 10
198.545
 20
141.574
 30
0.0
 11
184.745
 21
141.574
 31
0.0
  0
LINE
  8
0
 62
     0
 10
165.695
 20
141.574
 30
0.0
 11
165.695
 21
140.574
 31
0.0
  0
LINE
  8
0
 62
     0
 10
165.695
 20
140.574
 30
0.0
 11
164.896
 21
140.574
 31
0.0
  0
LINE
  8
0
 62
     0
 10
164.896
 20
140.574
 30
0.0
 11
164.896
 21
137.674
 31
0.0
  0
LINE
  8
0
 62
     0
 10
164.896
 20
137.674
 30
0.0
 11
165.695
 21
137.674
 31
0.0
  0
LINE
  8
0
 62
     0
 10
165.695
 20
137.674
 30
0.0
 11
165.695
 21
131.674
 31
0.0
  0
LINE
  8
0
 62
     0
 10
165.695
 20
131.674
 30
0.0
 11
164.896
 21
131.674
 31
0.0
  0
LINE
  8
0
 62
     0
 10
164.896
 20
131.674
 30
0.0
 11
164.896
 21
128.773
 31
0.0
  0
LINE
  8
0
 62
     0
 10
164.896
 20
128.773
 30
0.0
 11
165.695
 21
128.773
 31
0.0
  0
LINE
  8
0
 62
     0
 10
165.695
 20
128.773
 30
0.0
 11
165.695
 21
127.774
 31
0.0
  0
LINE
  8
0
 62
     0
 10
165.695
 20
127.774
 30
0.0
 11
179.495
 21
127.774
 31
0.0
  0
LINE
  8
0
 62
     0
 10
179.495
 20
127.774
 30
0.0
 11
179.495
 21
128.773
 31
0.0
  0
LINE
  8
0
 62
     0
 10
179.495
 20
128.773
 30
0.0
 11
180.296
 21
128.773
 31
0.0
  0
LINE
  8
0
 62
     0
 10
180.296
 20
128.773
 30
0.0
 11
180.296
 21
131.674
 31
0.0
  0
LINE
  8
0
 62
     0
 10
180.296
 20
131.674
 30
0.0
 11
179.495
 21
131.674
 31
0.0
  0
LINE
  8
0
 62
     0
 10
179.495
 20
131.674
 30
0.0
 11
179.495
 21
137.674
 31
0.0
  0
LINE
  8
0
 62
     0
 10
179.495
 20
137.674
 30
0.0
 11
180.296
 21
137.674
 31
0.0
  0
LINE
  8
0
 62
     0
 10
180.296
 20
137.674
 30
0.0
 11
180.296
 21
140.574
 31
0.0
  0
LINE
  8
0
 62
     0
 10
180.296
 20
140.574
 30
0.0
 11
179.495
 21
140.574
 31
0.0
  0
LINE
  8
0
 62
     0
 10
179.495
 20
140.574
 30
0.0
 11
179.495
 21
141.574
 31
0.0
  0
LINE
  8
0
 62
     0
 10
179.495
 20
141.574
 30
0.0
 11
165.695
 21
141.574
 31
0.0
  0
LINE
  8
0
 62
     0
 10
146.644
 20
141.574
 30
0.0
 11
146.644
 21
140.574
 31
0.0
  0
LINE
  8
0
 62
     0
 10
146.644
 20
140.574
 30
0.0
 11
145.846
 21
140.574
 31
0.0
  0
LINE
  8
0
 62
     0
 10
145.846
 20
140.574
 30
0.0
 11
145.846
 21
137.674
 31
0.0
  0
LINE
  8
0
 62
     0
 10
145.846
 20
137.674
 30
0.0
 11
146.644
 21
137.674
 31
0.0
  0
LINE
  8
0
 62
     0
 10
146.644
 20
137.674
 30
0.0
 11
146.644
 21
131.674
 31
0.0
  0
LINE
  8
0
 62
     0
 10
146.644
 20
131.674
 30
0.0
 11
145.846
 21
131.674
 31
0.0
  0
LINE
  8
0
 62
     0
 10
145.846
 20
131.674
 30
0.0
 11
145.846
 21
128.773
 31
0.0
  0
LINE
  8
0
 62
     0
 10
145.846
 20
128.773
 30
0.0
 11
146.644
 21
128.773
 31
0.0
  0
LINE
  8
0
 62
     0
 10
146.644
 20
128.773
 30
0.0
 11
146.644
 21
127.774
 31
0.0
  0
LINE
  8
0
 62
     0
 10
146.644
 20
127.774
 30
0.0
 11
160.445
 21
127.774
 31
0.0
  0
LINE
  8
0
 62
     0
 10
160.445
 20
127.774
 30
0.0
 11
160.445
 21
128.773
 31
0.0
  0
LINE
  8
0
 62
     0
 10
160.445
 20
128.773
 30
0.0
 11
161.244
 21
128.773
 31
0.0
  0
LINE
  8
0
 62
     0
 10
161.244
 20
128.773
 30
0.0
 11
161.244
 21
131.674
 31
0.0
  0
LINE
  8
0
 62
     0
 10
161.244
 20
131.674
 30
0.0
 11
160.445
 21
131.674
 31
0.0
  0
LINE
  8
0
 62
     0
 10
160.445
 20
131.674
 30
0.0
 11
160.445
 21
137.674
 31
0.0
  0
LINE
  8
0
 62
     0
 10
160.445
 20
137.674
 30
0.0
 11
161.244
 21
137.674
 31
0.0
  0
LINE
  8
0
 62
     0
 10
161.244
 20
137.674
 30
0.0
 11
161.244
 21
140.574
 31
0.0
  0
LINE
  8
0
 62
     0
 10
161.244
 20
140.574
 30
0.0
 11
160.445
 21
140.574
 31
0.0
  0
LINE
  8
0
 62
     0
 10
160.445
 20
140.574
 30
0.0
 11
160.445
 21
141.574
 31
0.0
  0
LINE
  8
0
 62
     0
 10
160.445
 20
141.574
 30
0.0
 11
146.644
 21
141.574
 31
0.0
  0
LINE
  8
0
 62
     0
 10
118.07
 20
141.574
 30
0.0
 11
118.07
 21
140.574
 31
0.0
  0
LINE
  8
0
 62
     0
 10
118.07
 20
140.574
 30
0.0
 11
117.271
 21
140.574
 31
0.0
  0
LINE
  8
0
 62
     0
 10
117.271
 20
140.574
 30
0.0
 11
117.271
 21
137.674
 31
0.0
  0
LINE
  8
0
 62
     0
 10
117.271
 20
137.674
 30
0.0
 11
118.07
 21
137.674
 31
0.0
  0
LINE
  8
0
 62
     0
 10
118.07
 20
137.674
 30
0.0
 11
118.07
 21
131.674
 31
0.0
  0
LINE
  8
0
 62
     0
 10
118.07
 20
131.674
 30
0.0
 11
117.271
 21
131.674
 31
0.0
  0
LINE
  8
0
 62
     0
 10
117.271
 20
131.674
 30
0.0
 11
117.271
 21
128.773
 31
0.0
  0
LINE
  8
0
 62
     0
 10
117.271
 20
128.773
 30
0.0
 11
118.07
 21
128.773
 31
0.0
  0
LINE
  8
0
 62
     0
 10
118.07
 20
128.773
 30
0.0
 11
118.07
 21
127.774
 31
0.0
  0
LINE
  8
0
 62
     0
 10
118.07
 20
127.774
 30
0.0
 11
131.87
 21
127.774
 31
0.0
  0
LINE
  8
0
 62
     0
 10
131.87
 20
127.774
 30
0.0
 11
131.87
 21
128.773
 31
0.0
  0
LINE
  8
0
 62
     0
 10
131.87
 20
128.773
 30
0.0
 11
132.671
 21
128.773
 31
0.0
  0
LINE
  8
0
 62
     0
 10
132.671
 20
128.773
 30
0.0
 11
132.671
 21
131.674
 31
0.0
  0
LINE
  8
0
 62
     0
 10
132.671
 20
131.674
 30
0.0
 11
131.87
 21
131.674
 31
0.0
  0
LINE
  8
0
 62
     0
 10
131.87
 20
131.674
 30
0.0
 11
131.87
 21
137.674
 31
0.0
  0
LINE
  8
0
 62
     0
 10
131.87
 20
137.674
 30
0.0
 11
132.671
 21
137.674
 31
0.0
  0
LINE
  8
0
 62
     0
 10
132.671
 20
137.674
 30
0.0
 11
132.671
 21
140.574
 31
0.0
  0
LINE
  8
0
 62
     0
 10
132.671
 20
140.574
 30
0.0
 11
131.87
 21
140.574
 31
0.0
  0
LINE
  8
0
 62
     0
 10
131.87
 20
140.574
 30
0.0
 11
131.87
 21
141.574
 31
0.0
  0
LINE
  8
0
 62
     0
 10
131.87
 20
141.574
 30
0.0
 11
118.07
 21
141.574
 31
0.0
  0
LINE
  8
0
 62
     0
 10
99.0191
 20
141.574
 30
0.0
 11
99.0191
 21
140.574
 31
0.0
  0
LINE
  8
0
 62
     0
 10
99.0191
 20
140.574
 30
0.0
 11
98.2197
 21
140.574
 31
0.0
  0
LINE
  8
0
 62
     0
 10
98.2197
 20
140.574
 30
0.0
 11
98.2197
 21
137.674
 31
0.0
  0
LINE
  8
0
 62
     0
 10
98.2197
 20
137.674
 30
0.0
 11
99.0191
 21
137.674
 31
0.0
  0
LINE
  8
0
 62
     0
 10
99.0191
 20
137.674
 30
0.0
 11
99.0191
 21
131.674
 31
0.0
  0
LINE
  8
0
 62
     0
 10
99.0191
 20
131.674
 30
0.0
 11
98.2197
 21
131.674
 31
0.0
  0
LINE
  8
0
 62
     0
 10
98.2197
 20
131.674
 30
0.0
 11
98.2197
 21
128.773
 31
0.0
  0
LINE
  8
0
 62
     0
 10
98.2197
 20
128.773
 30
0.0
 11
99.0191
 21
128.773
 31
0.0
  0
LINE
  8
0
 62
     0
 10
99.0191
 20
128.773
 30
0.0
 11
99.0191
 21
127.774
 31
0.0
  0
LINE
  8
0
 62
     0
 10
99.0191
 20
127.774
 30
0.0
 11
112.82
 21
127.774
 31
0.0
  0
LINE
  8
0
 62
     0
 10
112.82
 20
127.774
 30
0.0
 11
112.82
 21
128.773
 31
0.0
  0
LINE
  8
0
 62
     0
 10
112.82
 20
128.773
 30
0.0
 11
113.619
 21
128.773
 31
0.0
  0
LINE
  8
0
 62
     0
 10
113.619
 20
128.773
 30
0.0
 11
113.619
 21
131.674
 31
0.0
  0
LINE
  8
0
 62
     0
 10
113.619
 20
131.674
 30
0.0
 11
112.82
 21
131.674
 31
0.0
  0
LINE
  8
0
 62
     0
 10
112.82
 20
131.674
 30
0.0
 11
112.82
 21
137.674
 31
0.0
  0
LINE
  8
0
 62
     0
 10
112.82
 20
137.674
 30
0.0
 11
113.619
 21
137.674
 31
0.0
  0
LINE
  8
0
 62
     0
 10
113.619
 20
137.674
 30
0.0
 11
113.619
 21
140.574
 31
0.0
  0
LINE
  8
0
 62
     0
 10
113.619
 20
140.574
 30
0.0
 11
112.82
 21
140.574
 31
0.0
  0
LINE
  8
0
 62
     0
 10
112.82
 20
140.574
 30
0.0
 11
112.82
 21
141.574
 31
0.0
  0
LINE
  8
0
 62
     0
 10
112.82
 20
141.574
 30
0.0
 11
99.0191
 21
141.574
 31
0.0
  0
LINE
  8
0
 62
     0
 10
79.9691
 20
141.574
 30
0.0
 11
79.9691
 21
140.574
 31
0.0
  0
LINE
  8
0
 62
     0
 10
79.9691
 20
140.574
 30
0.0
 11
79.1697
 21
140.574
 31
0.0
  0
LINE
  8
0
 62
     0
 10
79.1697
 20
140.574
 30
0.0
 11
79.1697
 21
137.674
 31
0.0
  0
LINE
  8
0
 62
     0
 10
79.1697
 20
137.674
 30
0.0
 11
79.9691
 21
137.674
 31
0.0
  0
LINE
  8
0
 62
     0
 10
79.9691
 20
137.674
 30
0.0
 11
79.9691
 21
131.674
 31
0.0
  0
LINE
  8
0
 62
     0
 10
79.9691
 20
131.674
 30
0.0
 11
79.1697
 21
131.674
 31
0.0
  0
LINE
  8
0
 62
     0
 10
79.1697
 20
131.674
 30
0.0
 11
79.1697
 21
128.773
 31
0.0
  0
LINE
  8
0
 62
     0
 10
79.1697
 20
128.773
 30
0.0
 11
79.9691
 21
128.773
 31
0.0
  0
LINE
  8
0
 62
     0
 10
79.9691
 20
128.773
 30
0.0
 11
79.9691
 21
127.774
 31
0.0
  0
LINE
  8
0
 62
     0
 10
79.9691
 20
127.774
 30
0.0
 11
93.7701
 21
127.774
 31
0.0
  0
LINE
  8
0
 62
     0
 10
93.7701
 20
127.774
 30
0.0
 11
93.7701
 21
128.773
 31
0.0
  0
LINE
  8
0
 62
     0
 10
93.7701
 20
128.773
 30
0.0
 11
94.5706
 21
128.773
 31
0.0
  0
LINE
  8
0
 62
     0
 10
94.5706
 20
128.773
 30
0.0
 11
94.5706
 21
131.674
 31
0.0
  0
LINE
  8
0
 62
     0
 10
94.5706
 20
131.674
 30
0.0
 11
93.7701
 21
131.674
 31
0.0
  0
LINE
  8
0
 62
     0
 10
93.7701
 20
131.674
 30
0.0
 11
93.7701
 21
137.674
 31
0.0
  0
LINE
  8
0
 62
     0
 10
93.7701
 20
137.674
 30
0.0
 11
94.5706
 21
137.674
 31
0.0
  0
LINE
  8
0
 62
     0
 10
94.5706
 20
137.674
 30
0.0
 11
94.5706
 21
140.574
 31
0.0
  0
LINE
  8
0
 62
     0
 10
94.5706
 20
140.574
 30
0.0
 11
93.7701
 21
140.574
 31
0.0
  0
LINE
  8
0
 62
     0
 10
93.7701
 20
140.574
 30
0.0
 11
93.7701
 21
141.574
 31
0.0
  0
LINE
  8
0
 62
     0
 10
93.7701
 20
141.574
 30
0.0
 11
79.9691
 21
141.574
 31
0.0
  0
LINE
  8
0
 62
     0
 10
60.9191
 20
141.574
 30
0.0
 11
60.9191
 21
140.574
 31
0.0
  0
LINE
  8
0
 62
     0
 10
60.9191
 20
140.574
 30
0.0
 11
60.1197
 21
140.574
 31
0.0
  0
LINE
  8
0
 62
     0
 10
60.1197
 20
140.574
 30
0.0
 11
60.1197
 21
137.674
 31
0.0
  0
LINE
  8
0
 62
     0
 10
60.1197
 20
137.674
 30
0.0
 11
60.9191
 21
137.674
 31
0.0
  0
LINE
  8
0
 62
     0
 10
60.9191
 20
137.674
 30
0.0
 11
60.9191
 21
131.674
 31
0.0
  0
LINE
  8
0
 62
     0
 10
60.9191
 20
131.674
 30
0.0
 11
60.1197
 21
131.674
 31
0.0
  0
LINE
  8
0
 62
     0
 10
60.1197
 20
131.674
 30
0.0
 11
60.1197
 21
128.773
 31
0.0
  0
LINE
  8
0
 62
     0
 10
60.1197
 20
128.773
 30
0.0
 11
60.9191
 21
128.773
 31
0.0
  0
LINE
  8
0
 62
     0
 10
60.9191
 20
128.773
 30
0.0
 11
60.9191
 21
127.774
 31
0.0
  0
LINE
  8
0
 62
     0
 10
60.9191
 20
127.774
 30
0.0
 11
74.7201
 21
127.774
 31
0.0
  0
LINE
  8
0
 62
     0
 10
74.7201
 20
127.774
 30
0.0
 11
74.7201
 21
128.773
 31
0.0
  0
LINE
  8
0
 62
     0
 10
74.7201
 20
128.773
 30
0.0
 11
75.5206
 21
128.773
 31
0.0
  0
LINE
  8
0
 62
     0
 10
75.5206
 20
128.773
 30
0.0
 11
75.5206
 21
131.674
 31
0.0
  0
LINE
  8
0
 62
     0
 10
75.5206
 20
131.674
 30
0.0
 11
74.7201
 21
131.674
 31
0.0
  0
LINE
  8
0
 62
     0
 10
74.7201
 20
131.674
 30
0.0
 11
74.7201
 21
137.674
 31
0.0
  0
LINE
  8
0
 62
     0
 10
74.7201
 20
137.674
 30
0.0
 11
75.5206
 21
137.674
 31
0.0
  0
LINE
  8
0
 62
     0
 10
75.5206
 20
137.674
 30
0.0
 11
75.5206
 21
140.574
 31
0.0
  0
LINE
  8
0
 62
     0
 10
75.5206
 20
140.574
 30
0.0
 11
74.7201
 21
140.574
 31
0.0
  0
LINE
  8
0
 62
     0
 10
74.7201
 20
140.574
 30
0.0
 11
74.7201
 21
141.574
 31
0.0
  0
LINE
  8
0
 62
     0
 10
74.7201
 20
141.574
 30
0.0
 11
60.9191
 21
141.574
 31
0.0
  0
LINE
  8
0
 62
     0
 10
22.8203
 20
141.574
 30
0.0
 11
22.8203
 21
140.574
 31
0.0
  0
LINE
  8
0
 62
     0
 10
22.8203
 20
140.574
 30
0.0
 11
22.0211
 21
140.574
 31
0.0
  0
LINE
  8
0
 62
     0
 10
22.0211
 20
140.574
 30
0.0
 11
22.0211
 21
137.674
 31
0.0
  0
LINE
  8
0
 62
     0
 10
22.0211
 20
137.674
 30
0.0
 11
22.8203
 21
137.674
 31
0.0
  0
LINE
  8
0
 62
     0
 10
22.8203
 20
137.674
 30
0.0
 11
22.8203
 21
131.674
 31
0.0
  0
LINE
  8
0
 62
     0
 10
22.8203
 20
131.674
 30
0.0
 11
22.0211
 21
131.674
 31
0.0
  0
LINE
  8
0
 62
     0
 10
22.0211
 20
131.674
 30
0.0
 11
22.0211
 21
128.773
 31
0.0
  0
LINE
  8
0
 62
     0
 10
22.0211
 20
128.773
 30
0.0
 11
22.8203
 21
128.773
 31
0.0
  0
LINE
  8
0
 62
     0
 10
22.8203
 20
128.773
 30
0.0
 11
22.8203
 21
127.774
 31
0.0
  0
LINE
  8
0
 62
     0
 10
22.8203
 20
127.774
 30
0.0
 11
36.6201
 21
127.774
 31
0.0
  0
LINE
  8
0
 62
     0
 10
36.6201
 20
127.774
 30
0.0
 11
36.6201
 21
128.773
 31
0.0
  0
LINE
  8
0
 62
     0
 10
36.6201
 20
128.773
 30
0.0
 11
37.4205
 21
128.773
 31
0.0
  0
LINE
  8
0
 62
     0
 10
37.4205
 20
128.773
 30
0.0
 11
37.4205
 21
131.674
 31
0.0
  0
LINE
  8
0
 62
     0
 10
37.4205
 20
131.674
 30
0.0
 11
36.6201
 21
131.674
 31
0.0
  0
LINE
  8
0
 62
     0
 10
36.6201
 20
131.674
 30
0.0
 11
36.6201
 21
137.674
 31
0.0
  0
LINE
  8
0
 62
     0
 10
36.6201
 20
137.674
 30
0.0
 11
37.4205
 21
137.674
 31
0.0
  0
LINE
  8
0
 62
     0
 10
37.4205
 20
137.674
 30
0.0
 11
37.4205
 21
140.574
 31
0.0
  0
LINE
  8
0
 62
     0
 10
37.4205
 20
140.574
 30
0.0
 11
36.6201
 21
140.574
 31
0.0
  0
LINE
  8
0
 62
     0
 10
36.6201
 20
140.574
 30
0.0
 11
36.6201
 21
141.574
 31
0.0
  0
LINE
  8
0
 62
     0
 10
36.6201
 20
141.574
 30
0.0
 11
22.8203
 21
141.574
 31
0.0
  0
ENDSEC
  0
EOF
