M48
; DRILL file {KiCad (5.1.9)-1} date 03/16/21 22:25:30
; FORMAT={-:-/ absolute / metric / decimal}
; #@! TF.CreationDate,2021-03-16T22:25:30-04:00
; #@! TF.GenerationSoftware,Kicad,Pcbnew,(5.1.9)-1
; #@! TF.FileFunction,Plated,1,2,PTH
FMAT,2
METRIC
T1C0.400
T2C0.600
T3C1.500
%
G90
G05
T1
X97.027Y-173.389
X116.593Y-173.863
X148.703Y-171.097
X266.38Y-182.348
X293.291Y-171.097
X296.988Y-182.629
X298.248Y-174.152
X312.42Y-104.648
X312.42Y-111.252
X314.008Y-160.154
X315.034Y-166.298
X315.034Y-174.532
X315.044Y-178.195
X315.445Y-104.14
X316.113Y-175.123
X316.495Y-104.14
X316.855Y-174.381
X317.128Y-139.989
X318.087Y-106.568
X318.087Y-114.524
X318.087Y-135.102
X318.849Y-156.117
X319.988Y-156.099
X320.724Y-111.834
X325.07Y-174.653
X325.506Y-169.991
X326.05Y-175.917
X327.383Y-175.59
X328.036Y-180.803
X328.15Y-172.081
X328.474Y-188.748
X328.5Y-171.043
X329.197Y-189.973
X329.284Y-175.621
X329.309Y-174.621
X329.341Y-171.678
X329.513Y-180.535
X329.679Y-164.202
X329.732Y-181.657
X331.209Y-165.612
X332.156Y-174.388
X332.716Y-204.714
X332.774Y-156.111
X332.897Y-165.659
X334.543Y-161.052
X351.55Y-166.174
X355.092Y-172.72
X359.664Y-185.928
T3
X33.812Y-99.052
X33.812Y-127.627
X36.195Y-203.822
X38.574Y-146.676
X40.162Y-96.512
X40.162Y-125.087
X40.955Y-165.724
X42.545Y-201.282
X44.924Y-144.136
X45.717Y-184.773
X47.305Y-163.184
X52.067Y-182.233
X52.86Y-127.627
X59.21Y-125.087
X60.004Y-203.822
X62.385Y-146.676
X66.354Y-201.282
X67.147Y-165.724
X68.735Y-144.136
X71.909Y-127.627
X71.912Y-99.052
X73.497Y-163.184
X76.671Y-184.773
X78.259Y-125.087
X78.262Y-96.512
X81.434Y-146.676
X83.022Y-182.233
X83.815Y-203.822
X86.196Y-165.724
X87.784Y-144.136
X90.165Y-201.282
X90.958Y-99.052
X90.958Y-127.627
X92.546Y-163.184
X95.72Y-184.773
X97.308Y-96.512
X97.308Y-125.087
X100.482Y-146.676
X102.07Y-182.233
X105.245Y-165.724
X106.832Y-144.136
X110.007Y-99.052
X110.007Y-127.627
X111.595Y-163.184
X114.769Y-184.773
X116.357Y-96.512
X116.357Y-125.087
X119.531Y-146.676
X121.119Y-182.233
X124.294Y-165.724
X125.881Y-144.136
X129.056Y-99.052
X129.056Y-127.627
X130.644Y-163.184
X133.818Y-184.773
X135.406Y-96.512
X135.406Y-125.087
X138.58Y-146.676
X140.168Y-182.233
X143.342Y-165.724
X144.93Y-144.136
X148.104Y-127.627
X149.692Y-163.184
X152.867Y-184.773
X154.454Y-125.087
X155.248Y-203.822
X157.629Y-146.676
X157.63Y-99.052
X159.217Y-182.233
X161.598Y-201.282
X162.391Y-165.724
X163.979Y-144.136
X163.98Y-96.512
X167.153Y-127.627
X168.741Y-163.184
X171.916Y-184.773
X173.503Y-125.087
X176.678Y-146.676
X176.68Y-99.052
X178.266Y-182.233
X181.44Y-165.724
X183.028Y-144.136
X183.03Y-96.512
X186.202Y-127.627
X187.79Y-163.184
X190.964Y-184.773
X192.552Y-125.087
X195.726Y-146.676
X195.73Y-99.052
X197.314Y-182.233
X200.489Y-165.724
X202.076Y-144.136
X202.08Y-96.512
X205.251Y-127.627
X206.839Y-163.184
X210.013Y-184.773
X211.601Y-125.087
X214.775Y-146.676
X214.78Y-99.052
X216.363Y-182.233
X219.538Y-165.724
X221.125Y-144.136
X221.13Y-96.512
X224.3Y-127.627
X225.888Y-163.184
X226.681Y-203.822
X229.062Y-184.773
X230.65Y-125.087
X233.031Y-201.282
X233.824Y-146.676
X235.412Y-182.233
X238.586Y-165.724
X240.174Y-144.136
X243.348Y-127.627
X243.354Y-99.052
X244.936Y-163.184
X248.111Y-184.773
X249.698Y-125.087
X249.704Y-96.512
X250.492Y-203.822
X252.873Y-146.676
X254.461Y-182.233
X256.842Y-201.282
X257.635Y-165.724
X259.223Y-144.136
X262.397Y-127.627
X262.404Y-99.052
X263.985Y-163.184
X268.747Y-125.087
X268.754Y-96.512
X271.922Y-146.676
X274.303Y-203.822
X278.272Y-144.136
X280.653Y-201.282
X281.454Y-99.052
X283.827Y-184.773
X287.804Y-96.512
X288.589Y-165.724
X290.177Y-182.233
X290.97Y-127.627
X294.939Y-163.184
X295.733Y-146.676
X297.32Y-125.087
X298.114Y-203.822
X300.504Y-99.052
X302.083Y-144.136
X304.464Y-201.282
X306.854Y-96.512
X324.317Y-99.052
X324.317Y-127.627
X324.317Y-146.676
X324.317Y-203.822
X330.667Y-96.512
X330.667Y-125.087
X330.667Y-144.136
X330.667Y-201.282
X343.367Y-99.052
X343.367Y-127.627
X343.367Y-146.676
X343.367Y-184.773
X343.367Y-203.822
X349.717Y-96.512
X349.717Y-125.087
X349.717Y-144.136
X349.717Y-182.233
X349.717Y-201.282
X362.417Y-99.052
X362.417Y-127.627
X362.417Y-146.676
X362.417Y-203.822
X368.767Y-96.512
X368.767Y-125.087
X368.767Y-144.136
X368.767Y-201.282
T2
G00X311.15Y-93.58
M15
G01X311.15Y-94.38
M16
G05
G00X311.15Y-97.6
M15
G01X311.15Y-98.7
M16
G05
G00X319.79Y-93.58
M15
G01X319.79Y-94.38
M16
G05
G00X319.79Y-97.6
M15
G01X319.79Y-98.7
M16
G05
T0
M30
