  0
SECTION
  2
HEADER
  9
$ACADVER
  1
AC1009
  9
$EXTMIN
 10
0.0
 20
0.0
 30
0.0
  9
$EXTMAX
 10
1000.0
 20
1000.0
 30
0.0
  9
$FILLMODE
 70
 0
  9
$SPLFRAME
 70
 1
  0
ENDSEC
  0
SECTION
  2
TABLES
  0
TABLE
  2
LAYER
 70
1
  0
LAYER
  2
0
 70
     0
 62
     7
  6
CONTINUOUS
  0
ENDTAB
  0
ENDSEC
  0
SECTION
  2
ENTITIES
  0
LINE
  8
0
 62
     0
 10
382.958
 20
164.299
 30
0.0
 11
383.35
 21
164.284
 31
0.0
  0
LINE
  8
0
 62
     0
 10
383.35
 20
164.284
 30
0.0
 11
383.741
 21
164.237
 31
0.0
  0
LINE
  8
0
 62
     0
 10
383.741
 20
164.237
 30
0.0
 11
384.126
 21
164.162
 31
0.0
  0
LINE
  8
0
 62
     0
 10
384.126
 20
164.162
 30
0.0
 11
384.503
 21
164.055
 31
0.0
  0
LINE
  8
0
 62
     0
 10
384.503
 20
164.055
 30
0.0
 11
384.87
 21
163.919
 31
0.0
  0
LINE
  8
0
 62
     0
 10
384.87
 20
163.919
 30
0.0
 11
385.226
 21
163.755
 31
0.0
  0
LINE
  8
0
 62
     0
 10
385.226
 20
163.755
 30
0.0
 11
385.572
 21
163.564
 31
0.0
  0
LINE
  8
0
 62
     0
 10
385.572
 20
163.564
 30
0.0
 11
385.897
 21
163.344
 31
0.0
  0
LINE
  8
0
 62
     0
 10
385.897
 20
163.344
 30
0.0
 11
386.203
 21
163.102
 31
0.0
  0
LINE
  8
0
 62
     0
 10
386.203
 20
163.102
 30
0.0
 11
386.493
 21
162.834
 31
0.0
  0
LINE
  8
0
 62
     0
 10
386.493
 20
162.834
 30
0.0
 11
386.761
 21
162.547
 31
0.0
  0
LINE
  8
0
 62
     0
 10
386.761
 20
162.547
 30
0.0
 11
387.004
 21
162.238
 31
0.0
  0
LINE
  8
0
 62
     0
 10
387.004
 20
162.238
 30
0.0
 11
387.223
 21
161.913
 31
0.0
  0
LINE
  8
0
 62
     0
 10
387.223
 20
161.913
 30
0.0
 11
387.414
 21
161.569
 31
0.0
  0
LINE
  8
0
 62
     0
 10
387.414
 20
161.569
 30
0.0
 11
387.576
 21
161.212
 31
0.0
  0
LINE
  8
0
 62
     0
 10
387.576
 20
161.212
 30
0.0
 11
387.713
 21
160.845
 31
0.0
  0
LINE
  8
0
 62
     0
 10
387.713
 20
160.845
 30
0.0
 11
387.819
 21
160.467
 31
0.0
  0
LINE
  8
0
 62
     0
 10
387.819
 20
160.467
 30
0.0
 11
387.897
 21
160.082
 31
0.0
  0
LINE
  8
0
 62
     0
 10
387.897
 20
160.082
 30
0.0
 11
387.943
 21
159.693
 31
0.0
  0
LINE
  8
0
 62
     0
 10
387.943
 20
159.693
 30
0.0
 11
387.96
 21
159.299
 31
0.0
  0
LINE
  8
0
 62
     0
 10
387.96
 20
159.299
 30
0.0
 11
387.96
 21
5.27237
 31
0.0
  0
LINE
  8
0
 62
     0
 10
387.96
 20
5.27237
 30
0.0
 11
387.943
 21
4.881
 31
0.0
  0
LINE
  8
0
 62
     0
 10
387.943
 20
4.881
 30
0.0
 11
387.897
 21
4.49104
 31
0.0
  0
LINE
  8
0
 62
     0
 10
387.897
 20
4.49104
 30
0.0
 11
387.819
 21
4.10655
 31
0.0
  0
LINE
  8
0
 62
     0
 10
387.819
 20
4.10655
 30
0.0
 11
387.713
 21
3.72759
 31
0.0
  0
LINE
  8
0
 62
     0
 10
387.713
 20
3.72759
 30
0.0
 11
387.576
 21
3.35966
 31
0.0
  0
LINE
  8
0
 62
     0
 10
387.576
 20
3.35966
 30
0.0
 11
387.414
 21
3.00412
 31
0.0
  0
LINE
  8
0
 62
     0
 10
387.414
 20
3.00412
 30
0.0
 11
387.223
 21
2.66099
 31
0.0
  0
LINE
  8
0
 62
     0
 10
387.223
 20
2.66099
 30
0.0
 11
387.004
 21
2.3344
 31
0.0
  0
LINE
  8
0
 62
     0
 10
387.004
 20
2.3344
 30
0.0
 11
386.761
 21
2.02572
 31
0.0
  0
LINE
  8
0
 62
     0
 10
386.761
 20
2.02572
 30
0.0
 11
386.493
 21
1.73771
 31
0.0
  0
LINE
  8
0
 62
     0
 10
386.493
 20
1.73771
 30
0.0
 11
386.203
 21
1.47037
 31
0.0
  0
LINE
  8
0
 62
     0
 10
386.203
 20
1.47037
 30
0.0
 11
385.897
 21
1.22783
 31
0.0
  0
LINE
  8
0
 62
     0
 10
385.897
 20
1.22783
 30
0.0
 11
385.572
 21
1.0101
 31
0.0
  0
LINE
  8
0
 62
     0
 10
385.572
 20
1.0101
 30
0.0
 11
385.226
 21
0.818554
 31
0.0
  0
LINE
  8
0
 62
     0
 10
385.226
 20
0.818554
 30
0.0
 11
384.87
 21
0.654569
 31
0.0
  0
LINE
  8
0
 62
     0
 10
384.87
 20
0.654569
 30
0.0
 11
384.503
 21
0.518142
 31
0.0
  0
LINE
  8
0
 62
     0
 10
384.503
 20
0.518142
 30
0.0
 11
384.126
 21
0.412034
 31
0.0
  0
LINE
  8
0
 62
     0
 10
384.126
 20
0.412034
 30
0.0
 11
383.741
 21
0.334863
 31
0.0
  0
LINE
  8
0
 62
     0
 10
383.741
 20
0.334863
 30
0.0
 11
383.35
 21
0.289388
 31
0.0
  0
LINE
  8
0
 62
     0
 10
383.35
 20
0.289388
 30
0.0
 11
382.958
 21
0.272852
 31
0.0
  0
LINE
  8
0
 62
     0
 10
382.958
 20
0.272852
 30
0.0
 11
5.09598
 21
0.272852
 31
0.0
  0
LINE
  8
0
 62
     0
 10
5.09598
 20
0.272852
 30
0.0
 11
4.70186
 21
0.289388
 31
0.0
  0
LINE
  8
0
 62
     0
 10
4.70186
 20
0.289388
 30
0.0
 11
4.3119
 21
0.334863
 31
0.0
  0
LINE
  8
0
 62
     0
 10
4.3119
 20
0.334863
 30
0.0
 11
3.9274
 21
0.412034
 31
0.0
  0
LINE
  8
0
 62
     0
 10
3.9274
 20
0.412034
 30
0.0
 11
3.54983
 21
0.518142
 31
0.0
  0
LINE
  8
0
 62
     0
 10
3.54983
 20
0.518142
 30
0.0
 11
3.18189
 21
0.654569
 31
0.0
  0
LINE
  8
0
 62
     0
 10
3.18189
 20
0.654569
 30
0.0
 11
2.82498
 21
0.818554
 31
0.0
  0
LINE
  8
0
 62
     0
 10
2.82498
 20
0.818554
 30
0.0
 11
2.48185
 21
1.0101
 31
0.0
  0
LINE
  8
0
 62
     0
 10
2.48185
 20
1.0101
 30
0.0
 11
2.15663
 21
1.22783
 31
0.0
  0
LINE
  8
0
 62
     0
 10
2.15663
 20
1.22783
 30
0.0
 11
1.84795
 21
1.47037
 31
0.0
  0
LINE
  8
0
 62
     0
 10
1.84795
 20
1.47037
 30
0.0
 11
1.55994
 21
1.73771
 31
0.0
  0
LINE
  8
0
 62
     0
 10
1.55994
 20
1.73771
 30
0.0
 11
1.2926
 21
2.02572
 31
0.0
  0
LINE
  8
0
 62
     0
 10
1.2926
 20
2.02572
 30
0.0
 11
1.05006
 21
2.3344
 31
0.0
  0
LINE
  8
0
 62
     0
 10
1.05006
 20
2.3344
 30
0.0
 11
0.830957
 21
2.66099
 31
0.0
  0
LINE
  8
0
 62
     0
 10
0.830957
 20
2.66099
 30
0.0
 11
0.63941
 21
3.00412
 31
0.0
  0
LINE
  8
0
 62
     0
 10
0.63941
 20
3.00412
 30
0.0
 11
0.475424
 21
3.35966
 31
0.0
  0
LINE
  8
0
 62
     0
 10
0.475424
 20
3.35966
 30
0.0
 11
0.338998
 21
3.72759
 31
0.0
  0
LINE
  8
0
 62
     0
 10
0.338998
 20
3.72759
 30
0.0
 11
0.232888
 21
4.10655
 31
0.0
  0
LINE
  8
0
 62
     0
 10
0.232888
 20
4.10655
 30
0.0
 11
0.157097
 21
4.49104
 31
0.0
  0
LINE
  8
0
 62
     0
 10
0.157097
 20
4.49104
 30
0.0
 11
0.110243
 21
4.881
 31
0.0
  0
LINE
  8
0
 62
     0
 10
0.110243
 20
4.881
 30
0.0
 11
0.0950846
 21
5.27375
 31
0.0
  0
LINE
  8
0
 62
     0
 10
0.0950846
 20
5.27375
 30
0.0
 11
0.0950846
 21
159.299
 31
0.0
  0
LINE
  8
0
 62
     0
 10
0.0950846
 20
159.299
 30
0.0
 11
0.110243
 21
159.693
 31
0.0
  0
LINE
  8
0
 62
     0
 10
0.110243
 20
159.693
 30
0.0
 11
0.157097
 21
160.082
 31
0.0
  0
LINE
  8
0
 62
     0
 10
0.157097
 20
160.082
 30
0.0
 11
0.232888
 21
160.467
 31
0.0
  0
LINE
  8
0
 62
     0
 10
0.232888
 20
160.467
 30
0.0
 11
0.338998
 21
160.845
 31
0.0
  0
LINE
  8
0
 62
     0
 10
0.338998
 20
160.845
 30
0.0
 11
0.475424
 21
161.212
 31
0.0
  0
LINE
  8
0
 62
     0
 10
0.475424
 20
161.212
 30
0.0
 11
0.63941
 21
161.569
 31
0.0
  0
LINE
  8
0
 62
     0
 10
0.63941
 20
161.569
 30
0.0
 11
0.830957
 21
161.913
 31
0.0
  0
LINE
  8
0
 62
     0
 10
0.830957
 20
161.913
 30
0.0
 11
1.05006
 21
162.238
 31
0.0
  0
LINE
  8
0
 62
     0
 10
1.05006
 20
162.238
 30
0.0
 11
1.2926
 21
162.547
 31
0.0
  0
LINE
  8
0
 62
     0
 10
1.2926
 20
162.547
 30
0.0
 11
1.55994
 21
162.834
 31
0.0
  0
LINE
  8
0
 62
     0
 10
1.55994
 20
162.834
 30
0.0
 11
1.84795
 21
163.102
 31
0.0
  0
LINE
  8
0
 62
     0
 10
1.84795
 20
163.102
 30
0.0
 11
2.15663
 21
163.344
 31
0.0
  0
LINE
  8
0
 62
     0
 10
2.15663
 20
163.344
 30
0.0
 11
2.48185
 21
163.564
 31
0.0
  0
LINE
  8
0
 62
     0
 10
2.48185
 20
163.564
 30
0.0
 11
2.82498
 21
163.755
 31
0.0
  0
LINE
  8
0
 62
     0
 10
2.82498
 20
163.755
 30
0.0
 11
3.18189
 21
163.919
 31
0.0
  0
LINE
  8
0
 62
     0
 10
3.18189
 20
163.919
 30
0.0
 11
3.54983
 21
164.055
 31
0.0
  0
LINE
  8
0
 62
     0
 10
3.54983
 20
164.055
 30
0.0
 11
3.9274
 21
164.162
 31
0.0
  0
LINE
  8
0
 62
     0
 10
3.9274
 20
164.162
 30
0.0
 11
4.3119
 21
164.237
 31
0.0
  0
LINE
  8
0
 62
     0
 10
4.3119
 20
164.237
 30
0.0
 11
4.70186
 21
164.284
 31
0.0
  0
LINE
  8
0
 62
     0
 10
4.70186
 20
164.284
 30
0.0
 11
5.09598
 21
164.299
 31
0.0
  0
LINE
  8
0
 62
     0
 10
5.09598
 20
164.299
 30
0.0
 11
382.958
 21
164.299
 31
0.0
  0
LINE
  8
0
 62
     0
 10
329.756
 20
58.4743
 30
0.0
 11
329.756
 21
39.4243
 31
0.0
  0
LINE
  8
0
 62
     0
 10
329.756
 20
39.4243
 30
0.0
 11
310.706
 21
39.4243
 31
0.0
  0
LINE
  8
0
 62
     0
 10
310.706
 20
39.4243
 30
0.0
 11
310.706
 21
20.3729
 31
0.0
  0
LINE
  8
0
 62
     0
 10
310.706
 20
20.3729
 30
0.0
 11
367.859
 21
20.3729
 31
0.0
  0
LINE
  8
0
 62
     0
 10
367.859
 20
20.3729
 30
0.0
 11
367.859
 21
39.4243
 31
0.0
  0
LINE
  8
0
 62
     0
 10
367.859
 20
39.4243
 30
0.0
 11
348.809
 21
39.4243
 31
0.0
  0
LINE
  8
0
 62
     0
 10
348.809
 20
39.4243
 30
0.0
 11
348.809
 21
58.4743
 31
0.0
  0
LINE
  8
0
 62
     0
 10
348.809
 20
58.4743
 30
0.0
 11
329.756
 21
58.4743
 31
0.0
  0
LINE
  8
0
 62
     0
 10
20.1952
 20
115.624
 30
0.0
 11
20.1952
 21
77.5243
 31
0.0
  0
LINE
  8
0
 62
     0
 10
20.1952
 20
77.5243
 30
0.0
 11
20.1938
 21
77.5243
 31
0.0
  0
LINE
  8
0
 62
     0
 10
20.1938
 20
77.5243
 30
0.0
 11
20.1938
 21
39.4229
 31
0.0
  0
LINE
  8
0
 62
     0
 10
20.1938
 20
39.4229
 30
0.0
 11
20.1952
 21
39.4229
 31
0.0
  0
LINE
  8
0
 62
     0
 10
20.1952
 20
39.4229
 30
0.0
 11
20.1952
 21
20.3729
 31
0.0
  0
LINE
  8
0
 62
     0
 10
20.1952
 20
20.3729
 30
0.0
 11
305.947
 21
20.3729
 31
0.0
  0
LINE
  8
0
 62
     0
 10
305.947
 20
20.3729
 30
0.0
 11
305.947
 21
115.624
 31
0.0
  0
LINE
  8
0
 62
     0
 10
305.947
 20
115.624
 30
0.0
 11
20.1952
 21
115.624
 31
0.0
  0
LINE
  8
0
 62
     0
 10
310.706
 20
115.624
 30
0.0
 11
367.859
 21
115.624
 31
0.0
  0
LINE
  8
0
 62
     0
 10
367.859
 20
115.624
 30
0.0
 11
367.859
 21
77.5229
 31
0.0
  0
LINE
  8
0
 62
     0
 10
367.859
 20
77.5229
 30
0.0
 11
310.706
 21
77.5229
 31
0.0
  0
LINE
  8
0
 62
     0
 10
310.706
 20
77.5229
 30
0.0
 11
310.706
 21
115.624
 31
0.0
  0
LINE
  8
0
 62
     0
 10
310.706
 20
144.199
 30
0.0
 11
367.859
 21
144.199
 31
0.0
  0
LINE
  8
0
 62
     0
 10
367.859
 20
144.199
 30
0.0
 11
367.859
 21
125.149
 31
0.0
  0
LINE
  8
0
 62
     0
 10
367.859
 20
125.149
 30
0.0
 11
310.706
 21
125.149
 31
0.0
  0
LINE
  8
0
 62
     0
 10
310.706
 20
125.149
 30
0.0
 11
310.706
 21
144.199
 31
0.0
  0
LINE
  8
0
 62
     0
 10
229.745
 20
144.199
 30
0.0
 11
305.947
 21
144.199
 31
0.0
  0
LINE
  8
0
 62
     0
 10
305.947
 20
144.199
 30
0.0
 11
305.947
 21
125.149
 31
0.0
  0
LINE
  8
0
 62
     0
 10
305.947
 20
125.149
 30
0.0
 11
229.745
 21
125.149
 31
0.0
  0
LINE
  8
0
 62
     0
 10
229.745
 20
125.149
 30
0.0
 11
229.745
 21
144.199
 31
0.0
  0
LINE
  8
0
 62
     0
 10
144.019
 20
144.199
 30
0.0
 11
220.222
 21
144.199
 31
0.0
  0
LINE
  8
0
 62
     0
 10
220.222
 20
144.199
 30
0.0
 11
220.222
 21
125.149
 31
0.0
  0
LINE
  8
0
 62
     0
 10
220.222
 20
125.149
 30
0.0
 11
144.019
 21
125.149
 31
0.0
  0
LINE
  8
0
 62
     0
 10
144.019
 20
125.149
 30
0.0
 11
144.019
 21
144.199
 31
0.0
  0
LINE
  8
0
 62
     0
 10
58.2951
 20
144.199
 30
0.0
 11
134.497
 21
144.199
 31
0.0
  0
LINE
  8
0
 62
     0
 10
134.497
 20
144.199
 30
0.0
 11
134.497
 21
125.149
 31
0.0
  0
LINE
  8
0
 62
     0
 10
134.497
 20
125.149
 30
0.0
 11
58.2951
 21
125.149
 31
0.0
  0
LINE
  8
0
 62
     0
 10
58.2951
 20
125.149
 30
0.0
 11
58.2951
 21
144.199
 31
0.0
  0
LINE
  8
0
 62
     0
 10
20.1952
 20
144.199
 30
0.0
 11
39.2451
 21
144.199
 31
0.0
  0
LINE
  8
0
 62
     0
 10
39.2451
 20
144.199
 30
0.0
 11
39.2451
 21
125.149
 31
0.0
  0
LINE
  8
0
 62
     0
 10
39.2451
 20
125.149
 30
0.0
 11
20.1952
 21
125.149
 31
0.0
  0
LINE
  8
0
 62
     0
 10
20.1952
 20
125.149
 30
0.0
 11
20.1952
 21
144.199
 31
0.0
  0
ENDSEC
  0
EOF
