M48
; DRILL file {KiCad (5.1.9)-1} date 03/16/21 22:25:30
; FORMAT={-:-/ absolute / metric / decimal}
; #@! TF.CreationDate,2021-03-16T22:25:30-04:00
; #@! TF.GenerationSoftware,Kicad,Pcbnew,(5.1.9)-1
; #@! TF.FileFunction,NonPlated,1,2,NPTH
FMAT,2
METRIC
T1C0.600
T2C1.700
T3C3.050
T4C4.000
%
G90
G05
T1
X312.58Y-97.67
X318.36Y-97.67
T2
X32.542Y-101.592
X32.542Y-130.167
X34.925Y-206.362
X37.304Y-149.216
X39.685Y-168.264
X42.702Y-101.592
X42.702Y-130.167
X44.447Y-187.313
X45.085Y-206.362
X47.464Y-149.216
X49.845Y-168.264
X51.59Y-130.167
X54.607Y-187.313
X58.734Y-206.362
X61.115Y-149.216
X61.75Y-130.167
X65.877Y-168.264
X68.894Y-206.362
X70.639Y-130.167
X70.642Y-101.592
X71.275Y-149.216
X75.401Y-187.313
X76.037Y-168.264
X80.164Y-149.216
X80.799Y-130.167
X80.802Y-101.592
X82.545Y-206.362
X84.926Y-168.264
X85.561Y-187.313
X89.688Y-101.592
X89.688Y-130.167
X90.324Y-149.216
X92.705Y-206.362
X94.45Y-187.313
X95.086Y-168.264
X99.212Y-149.216
X99.848Y-101.592
X99.848Y-130.167
X103.975Y-168.264
X104.61Y-187.313
X108.737Y-101.592
X108.737Y-130.167
X109.372Y-149.216
X113.499Y-187.313
X114.135Y-168.264
X118.261Y-149.216
X118.897Y-101.592
X118.897Y-130.167
X123.024Y-168.264
X123.659Y-187.313
X127.786Y-101.592
X127.786Y-130.167
X128.421Y-149.216
X132.548Y-187.313
X133.184Y-168.264
X137.31Y-149.216
X137.946Y-101.592
X137.946Y-130.167
X142.072Y-168.264
X142.708Y-187.313
X146.834Y-130.167
X147.47Y-149.216
X151.597Y-187.313
X152.232Y-168.264
X153.978Y-206.362
X156.359Y-149.216
X156.36Y-101.592
X156.994Y-130.167
X161.121Y-168.264
X161.757Y-187.313
X164.138Y-206.362
X165.883Y-130.167
X166.519Y-149.216
X166.52Y-101.592
X170.646Y-187.313
X171.281Y-168.264
X175.408Y-149.216
X175.41Y-101.592
X176.043Y-130.167
X180.17Y-168.264
X180.806Y-187.313
X184.932Y-130.167
X185.568Y-149.216
X185.57Y-101.592
X189.694Y-187.313
X190.33Y-168.264
X194.456Y-149.216
X194.46Y-101.592
X195.092Y-130.167
X199.219Y-168.264
X199.854Y-187.313
X203.981Y-130.167
X204.616Y-149.216
X204.62Y-101.592
X208.743Y-187.313
X209.379Y-168.264
X213.505Y-149.216
X213.51Y-101.592
X214.141Y-130.167
X218.268Y-168.264
X218.903Y-187.313
X223.03Y-130.167
X223.665Y-149.216
X223.67Y-101.592
X225.411Y-206.362
X227.792Y-187.313
X228.428Y-168.264
X232.554Y-149.216
X233.19Y-130.167
X235.571Y-206.362
X237.316Y-168.264
X237.952Y-187.313
X242.078Y-130.167
X242.084Y-101.592
X242.714Y-149.216
X246.841Y-187.313
X247.476Y-168.264
X249.222Y-206.362
X251.603Y-149.216
X252.238Y-130.167
X252.244Y-101.592
X256.365Y-168.264
X257.001Y-187.313
X259.382Y-206.362
X261.127Y-130.167
X261.134Y-101.592
X261.763Y-149.216
X266.525Y-168.264
X270.652Y-149.216
X271.287Y-130.167
X271.294Y-101.592
X273.033Y-206.362
X280.184Y-101.592
X280.812Y-149.216
X282.557Y-187.313
X283.193Y-206.362
X287.319Y-168.264
X289.7Y-130.167
X290.344Y-101.592
X292.717Y-187.313
X294.463Y-149.216
X296.844Y-206.362
X297.479Y-168.264
X299.234Y-101.592
X299.86Y-130.167
X304.623Y-149.216
X307.004Y-206.362
X309.394Y-101.592
X323.047Y-101.592
X323.047Y-130.167
X323.047Y-149.216
X323.047Y-206.362
X333.207Y-101.592
X333.207Y-130.167
X333.207Y-149.216
X333.207Y-206.362
X342.097Y-101.592
X342.097Y-130.167
X342.097Y-149.216
X342.097Y-187.313
X342.097Y-206.362
X352.257Y-101.592
X352.257Y-130.167
X352.257Y-149.216
X352.257Y-187.313
X352.257Y-206.362
X361.147Y-101.592
X361.147Y-130.167
X361.147Y-149.216
X361.147Y-206.362
X371.307Y-101.592
X371.307Y-130.167
X371.307Y-149.216
X371.307Y-206.362
T3
X37.627Y-180.313
X61.427Y-180.313
X109.058Y-199.362
X209.058Y-199.362
X275.737Y-180.313
X280.499Y-161.264
X282.88Y-123.167
X299.537Y-180.313
X304.299Y-161.264
X306.68Y-123.167
T4
X37.622Y-101.592
X37.622Y-130.167
X37.627Y-195.553
X40.005Y-206.362
X42.384Y-149.216
X44.765Y-168.264
X49.527Y-187.313
X56.67Y-130.167
X61.427Y-195.553
X63.814Y-206.362
X66.195Y-149.216
X70.957Y-168.264
X75.719Y-130.167
X75.722Y-101.592
X80.481Y-187.313
X85.244Y-149.216
X87.625Y-206.362
X90.006Y-168.264
X94.768Y-101.592
X94.768Y-130.167
X99.53Y-187.313
X104.292Y-149.216
X109.055Y-168.264
X109.058Y-214.602
X113.817Y-101.592
X113.817Y-130.167
X118.579Y-187.313
X123.341Y-149.216
X128.104Y-168.264
X132.866Y-101.592
X132.866Y-130.167
X137.628Y-187.313
X142.39Y-149.216
X147.152Y-168.264
X151.914Y-130.167
X156.677Y-187.313
X159.058Y-206.362
X161.439Y-149.216
X161.44Y-101.592
X166.201Y-168.264
X170.963Y-130.167
X175.726Y-187.313
X180.488Y-149.216
X180.49Y-101.592
X185.25Y-168.264
X190.012Y-130.167
X194.774Y-187.313
X199.536Y-149.216
X199.54Y-101.592
X204.299Y-168.264
X209.058Y-214.602
X209.061Y-130.167
X213.823Y-187.313
X218.585Y-149.216
X218.59Y-101.592
X223.348Y-168.264
X228.11Y-130.167
X230.491Y-206.362
X232.872Y-187.313
X237.634Y-149.216
X242.396Y-168.264
X247.158Y-130.167
X247.164Y-101.592
X251.921Y-187.313
X254.302Y-206.362
X256.683Y-149.216
X261.445Y-168.264
X266.207Y-130.167
X266.214Y-101.592
X275.732Y-149.216
X275.737Y-195.553
X278.113Y-206.362
X280.499Y-176.504
X282.88Y-138.407
X285.264Y-101.592
X287.637Y-187.313
X292.399Y-168.264
X294.78Y-130.167
X299.537Y-195.553
X299.543Y-149.216
X301.924Y-206.362
X304.299Y-176.504
X304.314Y-101.592
X306.68Y-138.407
X328.127Y-101.592
X328.127Y-130.167
X328.127Y-149.216
X328.127Y-206.362
X347.177Y-101.592
X347.177Y-130.167
X347.177Y-149.216
X347.177Y-187.313
X347.177Y-206.362
X366.227Y-101.592
X366.227Y-130.167
X366.227Y-149.216
X366.227Y-206.362
T0
M30
